<svg xmlns="http://www.w3.org/2000/svg" xmlns:xlink="http://www.w3.org/1999/xlink" width="41.281" height="33.37" viewBox="0 0 41.281 33.37">
  <defs>
    <style>
      .cls-1 {
        fill: #6d6e70;
        fill-rule: evenodd;
        filter: url(#filter);
      }
    </style>
    <filter id="filter" x="980.719" y="4843.94" width="41.281" height="33.37" filterUnits="userSpaceOnUse">
      <feFlood result="flood" flood-color="#fff"/>
      <feComposite result="composite" operator="in" in2="SourceGraphic"/>
      <feBlend result="blend" in2="SourceGraphic"/>
    </filter>
  </defs>
  <path id="icon_" data-name="icon " class="cls-1" d="M1016.84,4877.32H985.889a5.146,5.146,0,0,1-5.158-5.13v-23.12a5.146,5.146,0,0,1,5.158-5.13h30.951a5.147,5.147,0,0,1,5.16,5.13v23.12A5.147,5.147,0,0,1,1016.84,4877.32Zm-29.661-30.81,14.191,12.27,14.18-12.27H987.179Zm32.241,2.56a2.537,2.537,0,0,0-.82-1.86l-17.23,14.7-17.24-14.7a2.53,2.53,0,0,0-.82,1.86v23.12a2.574,2.574,0,0,0,2.579,2.57h30.951a2.571,2.571,0,0,0,2.58-2.57v-23.12Z" transform="translate(-980.719 -4843.94)"/>
</svg>
