<svg xmlns="http://www.w3.org/2000/svg" xmlns:xlink="http://www.w3.org/1999/xlink" width="35.063" height="48" viewBox="0 0 35.063 48">
  <defs>
    <style>
      .cls-1 {
        fill: #fff;
        fill-rule: evenodd;
        filter: url(#filter);
      }
    </style>
    <filter id="filter" x="909.406" y="4837" width="35.063" height="48" filterUnits="userSpaceOnUse">
      <feFlood result="flood" flood-color="#6c6d6f"/>
      <feComposite result="composite" operator="in" in2="SourceGraphic"/>
      <feBlend result="blend" in2="SourceGraphic"/>
    </filter>
  </defs>
  <path id="icon_" data-name="icon " class="cls-1" d="M926.944,4884.99c-2.916.02-17.539-22.47-17.539-29.99a17.545,17.545,0,1,1,35.079,0C944.484,4862.42,929.815,4885.01,926.944,4884.99Zm0-44.99a14.808,14.808,0,0,0-14.616,15c0,6.27,12.186,25.51,14.616,25.49,2.392,0.02,14.617-19.31,14.617-25.49A14.808,14.808,0,0,0,926.944,4840Zm0,22.5a7.5,7.5,0,1,1,7.308-7.5A7.407,7.407,0,0,1,926.944,4862.5Zm0-12a4.5,4.5,0,1,0,4.385,4.5A4.441,4.441,0,0,0,926.944,4850.5Z" transform="translate(-909.406 -4837)"/>
</svg>
