<svg xmlns="http://www.w3.org/2000/svg" xmlns:xlink="http://www.w3.org/1999/xlink" width="39.22" height="39.66" viewBox="0 0 39.22 39.66">
  <defs>
    <style>
      .cls-1 {
        fill: #6d6e70;
        fill-rule: evenodd;
        filter: url(#filter);
      }
    </style>
    <filter id="filter" x="1054.97" y="4840.34" width="39.22" height="39.66" filterUnits="userSpaceOnUse">
      <feFlood result="flood" flood-color="#fff"/>
      <feComposite result="composite" operator="in" in2="SourceGraphic"/>
      <feBlend result="blend" in2="SourceGraphic"/>
    </filter>
  </defs>
  <path id="icon_" data-name="icon " class="cls-1" d="M1059.8,4841.09l-3.63,3.67c-2.01,2.03-1.04,4.45,0,7.34a86.83,86.83,0,0,0,11.44,15.13,77.255,77.255,0,0,0,14.87,11.48c2.64,1.38,5.25,2.03,7.26,0l3.62-3.67c1.01-1.01,1.22-2.82,0-3.67l-7.25-5.5c-1.23-.84-2.63-1.02-3.63,0h0l-2.15,2.17a72.677,72.677,0,0,1-7.83-6.76,62.792,62.792,0,0,1-5.85-6.93l2.22-2.25c1-1.01.83-2.42,0-3.67l-5.44-7.34a2.553,2.553,0,0,0-3.63,0m3.52,12.96,2.91-2.95a1.763,1.763,0,0,0,0-2.33l-3.46-4.68a1.467,1.467,0,0,0-2.31,0l-2.31,2.34c-0.91.86-.65,2.87-0.17,3.84a77.761,77.761,0,0,0,10.89,14.68c4.59,5.04,15.42,11.93,15.42,11.93,0.84,0.44,3.16.48,3.8-.17l2.3-2.33c0.48-.81.7-1.75,0-2.34l-4.61-3.5a1.715,1.715,0,0,0-2.31,0l-2.85,2.87C1079.95,4870.94,1069.26,4863.83,1063.32,4854.05Z" transform="translate(-1054.97 -4840.34)"/>
</svg>
