<svg xmlns="http://www.w3.org/2000/svg" width="23" height="40" viewBox="0 0 23 40">
  <defs>
    <style>
      .cls-1 {
        fill: #d3d3d3;
        fill-rule: evenodd;
      }
    </style>
  </defs>
  <path id="arrow" class="cls-1" d="M1514,992.024l15.07,14.966-15.26,15.17h0a2.823,2.823,0,0,0-.81,1.98,2.868,2.868,0,0,0,2.87,2.86,2.907,2.907,0,0,0,2-.8h0l17.25-17.14h0a2.853,2.853,0,0,0,.88-2.06v-0.01h0a2.853,2.853,0,0,0-.88-2.06h0l-17.25-17.142-0.01.007A2.864,2.864,0,1,0,1514,992.024Z" transform="translate(-1513 -987)"/>
</svg>
