<svg xmlns="http://www.w3.org/2000/svg" width="21.531" height="21" viewBox="0 0 21.531 21">
  <defs>
    <style>
      .cls-1 {
        fill: #ccc;
        fill-rule: evenodd;
      }
    </style>
  </defs>
  <path id="facebook" class="cls-1" d="M492.872,4315H474.663a1.58,1.58,0,0,1-1.659-1.55v-17.83a1.637,1.637,0,0,1,1.659-1.62h18.209a1.636,1.636,0,0,1,1.658,1.62v17.83A1.579,1.579,0,0,1,492.872,4315Zm-10.7-16.95a6.288,6.288,0,0,0-2.577.46,3.016,3.016,0,0,0-1.346,1.33,4.529,4.529,0,0,0-.359,2.07v0.94h-1.61v2.46h1.61v8.17h3.443v-8.17h2.147l0.594-2.46h-2.741v-0.88a1.658,1.658,0,0,1,.333-1.21,1.8,1.8,0,0,1,1.177-.34,2.946,2.946,0,0,1,1.464.54l0.627-2.32A10.158,10.158,0,0,0,482.176,4298.05Z" transform="translate(-473 -4294)"/>
</svg>
