<svg xmlns="http://www.w3.org/2000/svg" width="21.532" height="21" viewBox="0 0 21.532 21">
  <defs>
    <style>
      .cls-1 {
        fill: #ccc;
        fill-rule: evenodd;
      }
    </style>
  </defs>
  <path id="instagram" class="cls-1" d="M593.486,4315H577.335a2.654,2.654,0,0,1-2.691-2.62v-15.75a2.663,2.663,0,0,1,2.691-2.63h16.151a2.663,2.663,0,0,1,2.692,2.63v15.75A2.655,2.655,0,0,1,593.486,4315Zm-8.075-14.57a4.18,4.18,0,0,0-3.784,2.36h0l-0.018.05c-0.04.09-.075,0.17-0.108,0.26-0.016.05-.034,0.09-0.048,0.13-0.031.09-.056,0.18-0.08,0.28-0.012.04-.025,0.09-0.035,0.13-0.022.1-.037,0.2-0.052,0.3,0,0.04-.014.08-0.019,0.12a4.324,4.324,0,0,0-.024.44,4.173,4.173,0,0,0,8.344,0,4.324,4.324,0,0,0-.024-0.44c0-.04-0.014-0.08-0.019-0.12-0.015-.1-0.03-0.2-0.052-0.3-0.01-.04-0.023-0.09-0.035-0.13-0.024-.1-0.049-0.19-0.08-0.28-0.014-.04-0.032-0.08-0.048-0.13-0.033-.09-0.068-0.17-0.108-0.26l-0.018-.05h0A4.18,4.18,0,0,0,585.411,4300.43Zm8.345-3.02a1.064,1.064,0,0,0-1.077-1.05h-2.154a1.063,1.063,0,0,0-1.076,1.05v2.1a1.063,1.063,0,0,0,1.076,1.05h2.154a1.064,1.064,0,0,0,1.077-1.05v-2.1Zm0,5.38h-1.985a6.354,6.354,0,0,1,.235,1.71,6.6,6.6,0,0,1-13.19,0,6.354,6.354,0,0,1,.235-1.71h-1.985v8.8a1.064,1.064,0,0,0,1.077,1.05h14.536a1.064,1.064,0,0,0,1.077-1.05v-8.8Z" transform="translate(-574.656 -4294)"/>
</svg>
