<svg xmlns="http://www.w3.org/2000/svg" width="21.531" height="16.78" viewBox="0 0 21.531 16.78">
  <defs>
    <style>
      .cls-1 {
        fill: #ccc;
        fill-rule: evenodd;
      }
    </style>
  </defs>
  <path id="twitter" class="cls-1" d="M538.469,4296.52a4.636,4.636,0,0,1,3.492,1.33,7.22,7.22,0,0,0,2.264-.73c0.183-.1.366-0.19,0.549-0.29a4.186,4.186,0,0,1-1.433,1.99,2.153,2.153,0,0,1-.485.34v0.01a8.434,8.434,0,0,0,2.5-.66v0.02a7.03,7.03,0,0,1-1.5,1.65c-0.23.17-.46,0.35-0.689,0.52a11.728,11.728,0,0,1-.2,2.73,12.036,12.036,0,0,1-8.655,9.39,13.777,13.777,0,0,1-6.251.25,16.669,16.669,0,0,1-2.6-.82,9.632,9.632,0,0,1-1.25-.62c-0.129-.07-0.259-0.15-0.388-0.22a8.149,8.149,0,0,0,1.412.05c0.434-.07.86-0.05,1.261-0.14a9.252,9.252,0,0,0,2.651-.92,4.723,4.723,0,0,0,1.2-.75,3.728,3.728,0,0,1-1.315-.23,4.335,4.335,0,0,1-2.8-2.71,4.587,4.587,0,0,0,1.973-.09,3.376,3.376,0,0,1-1.444-.55,4.079,4.079,0,0,1-2.081-3.64l0.453,0.21a4.9,4.9,0,0,0,.927.24,1.356,1.356,0,0,0,.6.06h-0.022c-0.223-.25-0.585-0.42-0.808-0.69a4.21,4.21,0,0,1-.992-3.85,4.729,4.729,0,0,1,.474-1.1,0.023,0.023,0,0,1,.022.01,2.52,2.52,0,0,0,.4.44,8.053,8.053,0,0,0,1.315,1.21,13.241,13.241,0,0,0,5.4,2.51,8.706,8.706,0,0,0,1.984.25,3.821,3.821,0,0,1,.021-2,4.256,4.256,0,0,1,2.5-2.85,6.667,6.667,0,0,1,.98-0.29Z" transform="translate(-523.813 -4296.53)"/>
</svg>
