<svg xmlns="http://www.w3.org/2000/svg" xmlns:xlink="http://www.w3.org/1999/xlink" width="29.34" height="23.656" viewBox="0 0 29.34 23.656">
  <defs>
    <style>
      .cls-1 {
        fill: #6d6e71;
        fill-rule: evenodd;
        filter: url(#filter);
      }
    </style>
    <filter id="filter" x="1517.66" y="194.625" width="29.34" height="23.656" filterUnits="userSpaceOnUse">
      <feFlood result="flood" flood-color="#1faae2"/>
      <feComposite result="composite" operator="in" in2="SourceGraphic"/>
      <feBlend result="blend" in2="SourceGraphic"/>
    </filter>
  </defs>
  <path id="icon" class="cls-1" d="M1543.33,218.271h-22.02a3.652,3.652,0,0,1-3.67-3.638V198.261a3.652,3.652,0,0,1,3.67-3.638h22.02a3.652,3.652,0,0,1,3.67,3.638v16.372A3.652,3.652,0,0,1,1543.33,218.271Zm-21.1-21.829,10.09,8.7,10.09-8.7h-20.18Zm22.94,1.819a1.8,1.8,0,0,0-.59-1.324l-12.26,10.42-12.26-10.42a1.79,1.79,0,0,0-.58,1.324v16.372a1.825,1.825,0,0,0,1.83,1.819h22.02a1.833,1.833,0,0,0,1.84-1.819V198.261Z" transform="translate(-1517.66 -194.625)"/>
</svg>
