<svg width="15" height="26" viewBox="0 0 15 26" fill="none" xmlns="http://www.w3.org/2000/svg">
<path d="M14.5927 11.8114L3.23054 0.40933C2.96774 0.145401 2.61694 0 2.24288 0C1.86882 0 1.51802 0.145401 1.25522 0.40933L0.418477 1.24882C-0.126 1.79584 -0.126 2.68491 0.418477 3.2311L9.95959 12.8059L0.407891 22.3913C0.145097 22.6552 0 23.007 0 23.3822C0 23.7578 0.145097 24.1096 0.407891 24.3738L1.24464 25.2131C1.50764 25.477 1.85824 25.6224 2.23229 25.6224C2.60635 25.6224 2.95716 25.477 3.21995 25.2131L14.5927 13.8006C14.8561 13.5358 15.0008 13.1823 15 12.8065C15.0008 12.4293 14.8561 12.076 14.5927 11.8114Z" fill="#2a9d8f"/>
</svg>
