<svg xmlns="http://www.w3.org/2000/svg" xmlns:xlink="http://www.w3.org/1999/xlink" version="1.1" style="" xml:space="preserve" width="497.2080078125" height="497.2080078125"><rect id="backgroundrect" width="100%" height="100%" x="0" y="0" fill="none" stroke="none"/>
































<g class="currentLayer" style=""><title>Layer 1</title>
	
		<path d="M466.292,240c-33.44,0-64.48-16.608-83.032-44.44l-6.656-9.984l-6.656,9.984C351.396,223.392,320.356,240,286.916,240    h-30.312v128.288c0,31.008,13.96,60.152,37.288,79.712H128.604v-32h104V272h-168v64h-48V16h352v144h16V0h-384v347.312L117.292,464    h201.192l58.12,33.208l67.6-38.624c32.32-18.464,52.4-53.072,52.4-90.296V240H466.292z M112.604,436.688L27.916,352h84.688    V436.688z M80.604,336v-48h136v112h-88v-64H80.604z M480.604,368.288c0,31.504-16.992,60.776-44.336,76.408l-59.664,34.096    l-59.664-34.096c-27.344-15.632-44.336-44.904-44.336-76.408V256h14.312c35.04,0,67.808-15.72,89.688-42.544    C398.484,240.28,431.252,256,466.292,256h14.312V368.288z" id="svg_3" fill="#4a4a4a" class=""/>
	

	
<g id="svg_10" class="selected" fill="#04b8b8" fill-opacity="1">
	<g id="svg_11" fill="#04b8b8" fill-opacity="1">
		<polygon points="453.27057933807373,291.1181888580322 346.92658519744873,397.4621829986572 320.58259105682373,371.1181888580322 309.27057933807373,382.4302005767822 346.92658519744873,420.0862064361572 464.58259105682373,302.4302005767822 " id="svg_12" fill="#04b8b8" fill-opacity="1"/>
	</g>
</g><g id="svg_13" class="" fill-opacity="1" fill="#4a4a4a">
	<g id="svg_14" fill="#4a4a4a">
		<rect x="96.60399627685547" y="304" width="104" height="16" id="svg_15" fill="#4a4a4a"/>
	</g>
</g>
	<g id="svg_23" class="" fill-opacity="1" fill="#4a4a4a">
		<rect x="48.604000091552734" y="112" width="256" height="16" id="svg_24" fill="#4a4a4a"/>
	</g>
<g id="svg_25" class="" fill-opacity="1" fill="#4a4a4a">
	<g id="svg_26" fill="#4a4a4a">
		<rect x="48.604000091552734" y="144" width="256" height="16" id="svg_27" fill="#4a4a4a"/>
	</g>
</g><g id="svg_28" class="" fill-opacity="1" fill="#4a4a4a">
	<g id="svg_29" fill="#4a4a4a">
		<rect x="48.604000091552734" y="176" width="256" height="16" id="svg_30" fill="#4a4a4a"/>
	</g>
</g><g id="svg_37" class="" fill-opacity="1" fill="#4a4a4a">
	<g id="svg_38" fill="#4a4a4a">
		<rect x="320.60400390625" y="112" width="16" height="16" id="svg_39" fill="#4a4a4a"/>
	</g>
</g><g id="svg_40" class="" fill-opacity="1" fill="#4a4a4a">
	<g id="svg_41" fill="#4a4a4a">
		<rect x="320.60400390625" y="144" width="16" height="16" id="svg_42" fill="#4a4a4a"/>
	</g>
</g><g id="svg_43" class="" fill-opacity="1" fill="#4a4a4a">
	<g id="svg_44" fill="#4a4a4a">
		<rect x="320.60400390625" y="176" width="16" height="16" id="svg_45" fill="#4a4a4a"/>
	</g>
</g><g id="svg_52">
</g><g id="svg_53">
</g><g id="svg_54">
</g><g id="svg_55">
</g><g id="svg_56">
</g><g id="svg_57">
</g><g id="svg_58">
</g><g id="svg_59">
</g><g id="svg_60">
</g><g id="svg_61">
</g><g id="svg_62">
</g><g id="svg_63">
</g><g id="svg_64">
</g><g id="svg_65">
</g><g id="svg_66">
</g></g></svg>