<svg xmlns="http://www.w3.org/2000/svg" width="18.062" height="18.281" viewBox="0 0 18.062 18.281">
  <defs>
    <style>
      .cls-1 {
        fill: #6d6e71;
        fill-rule: evenodd;
      }
    </style>
  </defs>
  <path id="icon" class="cls-1" d="M748.723,41.6a9.144,9.144,0,1,1,9.03-9.143A9.088,9.088,0,0,1,748.723,41.6Zm6.545-4.669a8,8,0,0,0,1.335-3.9h-4.518a22.471,22.471,0,0,1-.283,3.09A19.635,19.635,0,0,1,755.268,36.931Zm-8.777-3.9a20.073,20.073,0,0,0,.291,2.947c0.635-.056,1.281-0.089,1.941-0.089s1.305,0.033,1.94.089a20.073,20.073,0,0,0,.291-2.947h-4.463Zm4.463-1.143a20.069,20.069,0,0,0-.291-2.947c-0.635.056-1.281,0.089-1.94,0.089s-1.306-.033-1.941-0.089a20.069,20.069,0,0,0-.291,2.947h4.463Zm3.536,6.03a18.532,18.532,0,0,0-2.909-.671,18.769,18.769,0,0,1-.92,2.959A7.894,7.894,0,0,0,754.49,37.916Zm-6.315,2.513c0.181,0.013.363,0.028,0.548,0.028s0.366-.015.547-0.028a17.175,17.175,0,0,0,1.158-3.335c-0.561-.049-1.13-0.079-1.705-0.079s-1.145.03-1.706,0.079A17.175,17.175,0,0,0,748.175,40.429Zm-1.391-.224a18.769,18.769,0,0,1-.92-2.959,18.532,18.532,0,0,0-2.909.671A7.894,7.894,0,0,0,746.784,40.2Zm-1.141-4.086a22.471,22.471,0,0,1-.283-3.09h-4.518a7.992,7.992,0,0,0,1.336,3.9A19.6,19.6,0,0,1,745.643,36.119Zm-3.465-8.135a7.991,7.991,0,0,0-1.336,3.9h4.518a22.469,22.469,0,0,1,.283-3.09A19.6,19.6,0,0,1,742.178,27.984ZM742.955,27a18.588,18.588,0,0,0,2.909.671,18.776,18.776,0,0,1,.92-2.96A7.893,7.893,0,0,0,742.955,27Zm6.315-2.513c-0.181-.013-0.362-0.028-0.547-0.028s-0.367.015-.548,0.028a17.187,17.187,0,0,0-1.158,3.335c0.561,0.05,1.13.079,1.706,0.079s1.144-.03,1.705-0.079A17.187,17.187,0,0,0,749.27,24.485Zm1.391,0.225a18.776,18.776,0,0,1,.92,2.96A18.562,18.562,0,0,0,754.49,27,7.893,7.893,0,0,0,750.661,24.71ZM751.8,28.8a22.469,22.469,0,0,1,.283,3.09H756.6a8,8,0,0,0-1.335-3.9A19.635,19.635,0,0,1,751.8,28.8Z" transform="translate(-739.688 -23.313)"/>
</svg>
