<svg xmlns="http://www.w3.org/2000/svg" version="1.0" width="709.000000" height="821.000000" preserveAspectRatio="xMidYMid meet"><rect id="backgroundrect" width="100%" height="100%" x="0" y="0" fill="none" stroke="none"/>


<g class="currentLayer" style=""><title>Layer 1</title><g transform="translate(0,821) scale(0.10000000149011612,-0.10000000149011612) " fill="#e0e0e0" stroke="#b6b6b6" id="svg_1" class="selected" stroke-opacity="1" opacity="0.46" filter="" fill-opacity="1">
<path d="M4161 8173 c-26 -55 -111 -277 -111 -287 0 -7 19 -20 43 -31 35 -17 43 -25 45 -53 2 -20 -5 -45 -17 -66 -22 -35 -27 -56 -12 -56 5 0 21 24 37 54 28 54 28 55 12 90 -10 20 -32 43 -51 53 -30 15 -33 21 -26 41 10 27 24 28 86 1 115 -50 143 -59 143 -46 0 6 -46 30 -101 52 -56 21 -97 41 -91 43 12 4 262 -96 277 -111 7 -7 3 -7 -10 -2 -40 15 -55 17 -55 8 0 -5 11 -15 25 -21 26 -12 31 -27 16 -50 -6 -11 -17 -11 -43 -4 -44 12 -82 5 -103 -18 -9 -10 -25 -55 -36 -101 -24 -101 -86 -233 -128 -273 l-31 -30 0 57 c0 38 10 84 30 139 32 88 34 98 22 98 -26 0 -94 -245 -79 -283 33 -87 158 84 208 286 26 106 41 119 116 99 26 -7 49 -9 53 -5 11 12 120 291 120 306 0 8 -64 39 -158 75 -87 34 -161 62 -164 62 -2 0 -11 -12 -17 -27z m39 -14 c0 -6 -4 -18 -10 -28 -28 -52 -49 -121 -37 -121 6 0 25 32 40 70 16 39 33 70 38 70 12 0 12 -5 -5 -45 -9 -22 -11 -37 -5 -41 5 -3 17 13 26 35 9 23 20 41 25 41 11 0 12 1 -22 -80 -34 -83 -33 -80 -19 -80 5 0 17 17 26 38 8 20 21 52 29 71 17 40 32 34 16 -6 -6 -15 -13 -44 -17 -63 -5 -31 -4 -33 8 -17 8 9 19 17 25 17 6 0 12 6 15 13 2 6 7 9 11 6 10 -9 -5 -39 -19 -39 -14 0 -31 -37 -22 -47 9 -8 27 7 27 23 0 8 4 14 8 14 16 0 32 -25 32 -51 0 -19 6 -30 20 -34 11 -3 20 -11 20 -16 0 -5 -15 -3 -32 5 -18 8 -84 34 -145 57 -62 24 -113 49 -113 54 0 19 64 165 72 165 4 0 8 -5 8 -11z m232 -83 l47 -21 -27 -65 c-29 -68 -54 -85 -60 -40 -2 14 -9 31 -15 38 -6 8 -11 28 -11 45 -1 27 -5 32 -23 31 -26 -1 -27 0 -12 27 11 22 22 21 101 -15z" id="svg_2" stroke="#b6b6b6" stroke-opacity="1" opacity="0.46" filter="" fill="#e0e0e0" fill-opacity="1"/>
<path d="M4200 8035 c0 -8 5 -15 10 -15 6 0 10 7 10 15 0 8 -4 15 -10 15 -5 0 -10 -7 -10 -15z" id="svg_3" stroke="#b6b6b6" stroke-opacity="1" opacity="0.46" filter="" fill="#e0e0e0" fill-opacity="1"/>
<path d="M4100 7910 c0 -5 5 -10 10 -10 6 0 10 5 10 10 0 6 -4 10 -10 10 -5 0 -10 -4 -10 -10z" id="svg_4" stroke="#b6b6b6" stroke-opacity="1" opacity="0.46" filter="" fill="#e0e0e0" fill-opacity="1"/>
<path d="M4340 7810 c0 -5 5 -10 10 -10 6 0 10 5 10 10 0 6 -4 10 -10 10 -5 0 -10 -4 -10 -10z" id="svg_5" stroke="#b6b6b6" stroke-opacity="1" opacity="0.46" filter="" fill="#e0e0e0" fill-opacity="1"/>
<path d="M4056 7514 c-9 -22 17 -49 39 -40 10 3 15 15 13 28 -4 29 -42 37 -52 12z" id="svg_6" stroke="#b6b6b6" stroke-opacity="1" opacity="0.46" filter="" fill="#e0e0e0" fill-opacity="1"/>
<path d="M1408 7344 c-46 -23 -69 -41 -73 -57 -3 -12 1 -78 10 -147 8 -69 22 -183 31 -255 8 -71 24 -190 35 -263 28 -194 27 -204 -18 -227 -27 -13 -33 -20 -21 -22 9 -2 49 12 88 32 40 20 111 54 159 75 47 21 165 75 261 120 96 45 194 91 218 101 24 10 40 23 37 29 -4 6 -17 4 -35 -5 -16 -8 -37 -15 -46 -15 -10 0 -50 35 -90 78 -40 42 -76 74 -80 70 -4 -5 0 -16 9 -26 10 -10 17 -23 17 -29 0 -5 -37 -26 -82 -46 l-82 -37 -42 47 c-24 27 -43 50 -44 53 0 3 37 22 82 43 73 33 83 35 98 22 9 -8 20 -15 23 -15 21 0 -6 36 -122 158 -171 181 -170 180 -183 259 -5 38 -15 74 -20 81 -17 20 -59 13 -130 -24z m126 -50 c3 -30 4 -59 1 -64 -7 -11 -157 -81 -162 -76 -9 9 -19 116 -12 128 10 16 118 66 145 67 18 1 22 -6 28 -55z m-63 -139 c-40 -19 -79 -35 -85 -35 -16 1 126 68 144 69 8 0 -18 -15 -59 -34z m81 -54 l3 -44 -78 -35 c-86 -39 -97 -36 -97 22 l0 29 23 -21 c23 -21 47 -29 47 -15 0 4 -10 17 -22 30 -12 13 -20 25 -17 27 16 15 125 63 131 58 4 -4 8 -27 10 -51z m88 -1 l51 -59 -40 -21 c-22 -11 -44 -20 -50 -20 -5 0 -12 28 -16 63 -3 34 -9 70 -11 80 -10 32 14 17 66 -43z m-70 -93 c0 -26 -44 -55 -55 -37 -4 6 -10 10 -16 10 -18 0 -8 -27 21 -55 17 -16 30 -32 30 -37 0 -8 -131 -71 -136 -65 -2 2 -8 31 -12 66 -10 70 -15 63 78 108 79 38 90 39 90 10z m188 -37 l43 -50 -82 -40 c-96 -46 -103 -44 -114 37 l-7 52 49 25 c26 14 53 25 58 26 6 0 29 -23 53 -50z m-178 -41 c0 -24 -12 -24 -27 0 -10 15 -10 21 0 24 18 6 27 -2 27 -24z m13 -127 c5 -29 7 -59 4 -65 -6 -16 -156 -82 -164 -73 -4 4 -9 35 -11 69 l-4 62 69 32 c37 17 75 31 83 30 10 -2 18 -20 23 -55z m136 -97 c50 -55 90 -102 90 -105 0 -3 -36 -22 -79 -42 -93 -43 -80 -57 -105 115 -17 125 -18 140 -6 135 5 -1 50 -48 100 -103z m283 -16 c-4 -4 -41 -23 -83 -42 l-77 -35 -43 44 -43 43 85 40 84 40 42 -42 c24 -22 40 -44 35 -48z m-398 -31 c3 -24 8 -67 12 -96 l7 -52 -84 -39 -84 -39 -8 37 c-4 20 -9 64 -10 99 l-2 63 75 34 c41 19 78 34 81 34 4 1 9 -18 13 -41z" id="svg_7" stroke="#b6b6b6" stroke-opacity="1" opacity="0.46" filter="" fill="#e0e0e0" fill-opacity="1"/>
<path d="M6723 6860 c-57 -25 -68 -48 -47 -99 11 -27 13 -45 6 -57 -14 -25 -3 -53 23 -60 13 -3 26 -11 28 -17 3 -7 31 -75 62 -152 68 -168 77 -179 125 -170 19 4 31 3 27 -2 -13 -12 -161 -72 -168 -67 -4 2 -37 52 -75 111 -90 145 -90 144 -121 130 -21 -9 -27 -8 -41 11 l-17 22 -160 -66 c-88 -37 -166 -71 -173 -77 -8 -6 -12 -25 -10 -46 2 -26 10 -39 30 -50 25 -14 32 -13 110 18 253 103 250 102 245 128 -4 20 15 43 36 43 2 0 39 -56 83 -125 43 -69 84 -125 90 -125 29 0 199 79 202 94 2 9 14 28 28 41 13 13 24 28 24 32 0 4 -47 118 -104 253 -100 237 -104 245 -132 247 -16 1 -48 -6 -71 -17z m103 -50 c42 -88 42 -88 -18 -114 -84 -37 -97 -40 -105 -20 -4 10 0 20 10 26 10 5 17 20 17 33 0 14 8 29 20 35 27 14 26 50 -1 57 -21 6 -21 6 2 19 37 21 52 13 75 -36z m-100 -9 c23 4 24 -3 3 -20 -26 -21 -39 -13 -39 23 0 15 3 16 14 7 8 -6 18 -11 22 -10z m152 -138 c25 -22 41 -69 21 -60 -119 49 -122 50 -103 64 25 18 58 16 82 -4z m-26 -64 c54 -23 79 -39 87 -57 7 -13 9 -27 7 -30 -3 -3 -28 4 -56 16 -29 12 -52 17 -56 11 -5 -8 53 -39 119 -62 24 -9 42 -58 25 -69 -10 -6 -9 -12 6 -23 21 -16 21 -17 -11 -34 -31 -16 -110 19 -123 55 -6 15 -9 29 -7 31 2 2 25 -5 50 -16 30 -13 49 -16 53 -10 8 13 10 11 -59 39 -63 25 -93 57 -82 89 3 12 0 23 -8 28 -13 7 -37 45 -37 57 0 11 14 7 92 -25z m-314 -159 c6 -16 9 -30 7 -30 -5 0 -35 56 -35 65 0 15 19 -8 28 -35z m-38 1 c7 -17 10 -35 8 -42 -2 -6 -63 -36 -136 -65 -109 -45 -136 -53 -153 -44 -14 8 -19 19 -17 38 3 24 16 32 138 83 74 32 138 58 141 58 4 1 12 -12 19 -28z m410 -111 c0 -5 -4 -10 -9 -10 -6 0 -13 5 -16 10 -3 6 1 10 9 10 9 0 16 -4 16 -10z" id="svg_8" stroke="#b6b6b6" stroke-opacity="1" opacity="0.46" filter="" fill="#e0e0e0" fill-opacity="1"/>
<path d="M6460 6420 c0 -5 5 -10 10 -10 6 0 10 5 10 10 0 6 -4 10 -10 10 -5 0 -10 -4 -10 -10z" id="svg_9" stroke="#b6b6b6" stroke-opacity="1" opacity="0.46" filter="" fill="#e0e0e0" fill-opacity="1"/>
<path d="M6400 6403 c-8 -3 -37 -16 -65 -28 -27 -12 -60 -25 -72 -29 -23 -7 -32 -26 -14 -26 19 0 191 74 191 82 0 9 -17 9 -40 1z" id="svg_10" stroke="#b6b6b6" stroke-opacity="1" opacity="0.46" filter="" fill="#e0e0e0" fill-opacity="1"/>
<path d="M3669 6449 c-18 -34 -139 -322 -139 -331 0 -24 23 -2 40 37 20 47 29 52 61 34 22 -11 21 -19 -17 -104 -23 -53 -23 -54 -54 -42 -18 7 -30 19 -30 29 0 35 -17 17 -45 -47 -19 -45 -33 -65 -45 -65 -11 0 -20 -10 -24 -25 -4 -14 -11 -25 -17 -25 -6 0 -47 19 -90 41 -44 23 -82 39 -85 36 -22 -22 105 -135 210 -188 60 -30 87 -38 108 -34 20 5 30 2 34 -9 6 -16 85 -56 109 -56 7 0 21 21 31 47 11 27 20 51 22 55 4 9 -64 39 -108 47 -24 4 -36 13 -39 26 -2 11 -8 23 -14 27 -7 4 26 93 96 256 59 136 107 255 107 264 0 45 -89 67 -111 27z m80 -13 c9 -11 2 -37 -35 -122 -26 -60 -48 -110 -50 -112 -1 -2 -16 4 -33 12 l-30 16 33 79 c19 43 41 92 50 110 18 33 46 41 65 17z m-183 -420 c15 -12 16 -17 7 -27 -16 -16 -63 3 -63 26 0 19 30 19 56 1z m-19 -60 c23 -21 0 -37 -35 -25 -35 12 -34 11 -26 33 7 18 39 14 61 -8z m-166 -62 c39 -13 40 -13 51 11 6 14 14 25 18 25 21 0 70 -24 70 -33 0 -22 -35 -97 -45 -97 -20 0 -111 59 -155 99 -43 40 -44 41 -11 26 18 -9 51 -23 72 -31z m158 -65 c-13 -29 -24 -48 -26 -42 -4 12 37 106 44 100 2 -3 -6 -29 -18 -58z m60 2 c13 -8 7 -51 -7 -51 -20 1 -34 19 -27 39 7 23 13 25 34 12z m95 -24 c17 -13 17 -15 2 -45 -18 -35 -23 -37 -60 -22 -26 9 -26 10 -9 45 18 37 38 44 67 22z" id="svg_11" stroke="#b6b6b6" stroke-opacity="1" opacity="0.46" filter="" fill="#e0e0e0" fill-opacity="1"/>
<path d="M3680 6363 c-27 -61 -10 -82 19 -25 12 23 21 48 21 57 0 30 -19 14 -40 -32z" id="svg_12" stroke="#b6b6b6" stroke-opacity="1" opacity="0.46" filter="" fill="#e0e0e0" fill-opacity="1"/>
<path d="M3644 6276 c-8 -22 3 -33 18 -18 9 9 9 15 0 24 -9 9 -13 7 -18 -6z" id="svg_13" stroke="#b6b6b6" stroke-opacity="1" opacity="0.46" filter="" fill="#e0e0e0" fill-opacity="1"/>
<path d="M4015 4937 c-25 -24 -45 -51 -45 -60 0 -8 11 -29 25 -45 15 -18 25 -42 25 -61 0 -30 25 -54 51 -49 6 2 62 -58 123 -132 62 -74 120 -136 130 -138 9 -2 28 4 41 12 50 33 23 -2 -45 -57 l-69 -57 -116 100 -117 100 -28 -20 c-24 -17 -29 -18 -40 -5 -7 8 -16 15 -21 15 -5 0 -70 -50 -144 -110 -125 -103 -135 -113 -135 -145 0 -36 28 -65 61 -65 15 0 279 206 293 229 3 5 -1 14 -9 21 -20 16 -19 23 5 38 18 11 31 3 130 -83 61 -52 116 -95 121 -95 6 0 47 30 91 67 58 48 78 71 75 84 -3 10 1 23 8 29 21 18 24 47 6 72 -9 14 -85 109 -170 211 -119 145 -159 187 -177 187 -14 0 -42 -18 -69 -43z m106 -9 c17 -18 39 -45 50 -60 l19 -26 -57 -46 c-32 -25 -66 -46 -75 -46 -20 0 -24 25 -7 36 6 3 9 18 6 33 -3 16 1 33 11 44 21 24 4 53 -28 49 -22 -4 -22 -2 6 22 16 14 33 26 37 26 4 0 22 -15 38 -32z m-77 -61 c-10 -12 -20 -24 -22 -27 -4 -6 -22 22 -22 35 0 6 14 11 31 12 l32 2 -19 -22z m198 -84 c35 -31 23 -42 -44 -36 -35 3 -65 8 -68 10 -3 3 6 13 19 24 29 23 68 24 93 2z m24 -63 c21 0 64 -34 64 -51 0 -4 -27 -5 -60 -2 -37 4 -60 2 -60 -4 0 -11 55 -23 111 -23 46 0 89 -41 69 -65 -10 -13 -9 -15 9 -15 27 0 27 -26 0 -41 -44 -23 -149 8 -149 43 0 6 23 8 52 6 83 -5 71 18 -14 25 -59 5 -75 10 -90 29 -10 13 -16 29 -13 36 3 7 -3 16 -13 19 -23 8 -52 34 -52 46 0 6 23 7 61 3 34 -3 72 -6 85 -6z m-305 -242 l22 -33 -31 29 c-34 32 -37 36 -23 36 5 0 20 -15 32 -32z m-32 -14 c11 -15 18 -30 15 -35 -3 -5 -55 -50 -115 -99 -92 -75 -113 -88 -132 -81 -13 5 -23 18 -25 33 -3 21 15 39 109 116 61 51 115 92 120 92 4 0 17 -12 28 -26z m416 16 c-3 -5 -12 -7 -20 -3 -21 7 -19 13 6 13 11 0 18 -4 14 -10z" id="svg_14" stroke="#b6b6b6" stroke-opacity="1" opacity="0.46" filter="" fill="#e0e0e0" fill-opacity="1"/>
<path d="M3890 4440 c0 -5 5 -10 10 -10 6 0 10 5 10 10 0 6 -4 10 -10 10 -5 0 -10 -4 -10 -10z" id="svg_15" stroke="#b6b6b6" stroke-opacity="1" opacity="0.46" filter="" fill="#e0e0e0" fill-opacity="1"/>
<path d="M3788 4367 c-65 -53 -94 -87 -73 -87 14 0 164 133 159 141 -7 12 2 17 -86 -54z" id="svg_16" stroke="#b6b6b6" stroke-opacity="1" opacity="0.46" filter="" fill="#e0e0e0" fill-opacity="1"/>
<path d="M1105 4797 c-242 -176 -244 -180 -180 -255 41 -48 63 -52 108 -20 17 12 42 21 55 20 30 -2 52 14 52 39 0 11 50 54 143 122 144 105 164 129 136 163 -6 8 -9 18 -5 22 4 4 11 0 16 -8 5 -8 27 -39 49 -69 23 -30 41 -59 41 -65 0 -6 -46 -57 -102 -114 l-103 -102 18 -31 c16 -29 16 -32 1 -44 -10 -7 -15 -19 -11 -28 3 -9 52 -77 108 -152 85 -114 106 -135 128 -135 14 0 31 4 37 8 13 8 34 46 34 60 0 8 -185 268 -210 295 -4 5 -17 3 -29 -5 -19 -11 -24 -11 -36 6 -14 18 -7 27 88 123 56 57 103 108 105 113 2 5 -27 50 -63 100 -50 68 -70 88 -80 80 -8 -7 -17 -4 -30 10 -10 11 -28 20 -39 20 -12 0 -115 -69 -231 -153z m258 110 c28 -42 -5 -145 -47 -147 -5 0 -6 22 -3 50 3 27 2 52 -3 55 -10 6 -16 -13 -25 -83 -7 -56 -41 -97 -71 -85 -10 4 -17 -2 -21 -15 -3 -12 -16 -28 -29 -37 -23 -15 -24 -15 -24 11 0 15 5 56 12 91 9 48 18 69 36 84 14 11 27 17 29 15 2 -2 0 -28 -5 -57 -6 -30 -8 -57 -5 -62 11 -18 21 7 28 69 5 53 12 71 32 90 21 19 29 22 40 12 11 -9 15 -7 20 10 7 28 17 28 36 -1z m47 -72 c0 -8 -4 -15 -10 -15 -5 0 -10 7 -10 15 0 8 5 15 10 15 6 0 10 -7 10 -15z m-285 -117 c-4 -35 -9 -65 -12 -68 -8 -8 -43 41 -43 60 0 20 37 70 52 70 6 0 7 -22 3 -62z m-50 -68 c27 -35 44 -67 41 -75 -6 -17 -22 -20 -31 -5 -3 6 -20 10 -37 10 -17 0 -40 7 -50 16 -14 14 -20 14 -33 4 -8 -7 -15 -19 -15 -28 0 -13 -3 -12 -20 3 -32 29 -24 51 37 94 31 23 58 41 59 41 2 0 24 -27 49 -60z m-71 -85 c16 -12 17 -17 6 -30 -20 -25 -37 -18 -36 15 1 34 3 35 30 15z m396 -101 c-8 -8 -23 -20 -34 -25 -15 -7 -13 -3 7 15 31 29 47 35 27 10z m118 -128 c45 -63 82 -123 82 -134 0 -28 -26 -47 -50 -36 -19 9 -180 220 -180 237 0 11 42 46 55 46 6 0 47 -51 93 -113z" id="svg_17" stroke="#b6b6b6" stroke-opacity="1" opacity="0.46" filter="" fill="#e0e0e0" fill-opacity="1"/>
<path d="M1406 4412 c-3 -6 -1 -14 5 -17 15 -10 25 3 12 16 -7 7 -13 7 -17 1z" id="svg_18" stroke="#b6b6b6" stroke-opacity="1" opacity="0.46" filter="" fill="#e0e0e0" fill-opacity="1"/>
<path d="M1433 4366 c13 -33 119 -166 128 -160 6 3 0 19 -14 37 -13 18 -41 56 -62 85 -37 49 -64 69 -52 38z" id="svg_19" stroke="#b6b6b6" stroke-opacity="1" opacity="0.46" filter="" fill="#e0e0e0" fill-opacity="1"/>
<path d="M5691 3996 c-7 -31 -12 -59 -11 -63 1 -12 71 -34 115 -36 33 -2 41 -6 43 -24 2 -13 10 -23 18 -23 8 0 14 -3 14 -7 -1 -5 -36 -132 -80 -283 -86 -302 -86 -305 -21 -324 51 -15 64 8 120 210 28 99 51 184 51 187 0 4 -6 7 -14 7 -9 0 -19 -20 -26 -50 -7 -28 -15 -52 -19 -54 -14 -9 -61 7 -61 22 0 32 42 152 53 152 28 0 57 -13 57 -26 0 -7 4 -15 9 -18 5 -4 19 28 32 69 12 42 27 75 34 75 7 0 18 14 24 30 5 17 12 30 14 30 9 0 147 -49 167 -60 14 -7 26 -8 32 -2 6 6 -8 25 -39 52 -97 85 -283 167 -323 142 -20 -12 -50 -7 -50 9 0 7 -24 16 -101 34 -24 6 -26 3 -38 -49z m82 15 c24 -9 25 -12 15 -51 -10 -39 -12 -41 -42 -34 -44 9 -47 15 -34 57 12 39 21 43 61 28z m75 -40 c8 -4 12 -19 10 -32 -2 -18 -8 -23 -23 -21 -27 5 -28 7 -21 37 7 27 13 30 34 16z m57 -23 c-10 -45 -25 -82 -30 -76 -6 6 24 108 31 108 3 0 2 -15 -1 -32z m117 -1 c64 -29 142 -77 135 -83 -3 -3 -29 2 -58 10 -70 21 -78 20 -89 -10 -9 -24 -14 -26 -48 -19 -20 3 -40 10 -45 14 -12 12 22 111 38 111 8 0 38 -11 67 -23z m-64 -147 c3 -20 1 -22 -20 -17 -12 4 -29 7 -35 7 -13 0 -18 32 -7 42 13 14 59 -9 62 -32z m-34 -36 c9 -3 16 -15 16 -26 0 -18 -4 -20 -32 -14 -38 8 -42 11 -35 31 7 16 25 19 51 9z m-70 -250 c22 -8 20 -24 -16 -146 -30 -104 -32 -108 -59 -108 -15 0 -31 5 -34 11 -4 6 8 64 26 130 35 122 40 129 83 113z" id="svg_20" stroke="#b6b6b6" stroke-opacity="1" opacity="0.46" filter="" fill="#e0e0e0" fill-opacity="1"/>
<path d="M5816 3473 c-12 -12 -6 -33 9 -33 8 0 15 6 15 14 0 17 -14 28 -24 19z" id="svg_21" stroke="#b6b6b6" stroke-opacity="1" opacity="0.46" filter="" fill="#e0e0e0" fill-opacity="1"/>
<path d="M5795 3408 c-7 -24 -25 -93 -25 -100 0 -5 6 -8 14 -8 13 0 36 67 36 104 0 19 -19 21 -25 4z" id="svg_22" stroke="#b6b6b6" stroke-opacity="1" opacity="0.46" filter="" fill="#e0e0e0" fill-opacity="1"/>
<path d="M1762 3248 c-28 -29 -83 -92 -124 -139 -196 -230 -369 -429 -374 -429 -3 0 -19 7 -35 16 -31 15 -51 12 -33 -5 5 -5 32 -18 59 -29 28 -11 97 -40 155 -65 173 -74 371 -157 435 -183 70 -29 109 -27 50 2 -45 22 -44 20 -32 152 6 58 5 73 -5 70 -7 -3 -14 -15 -16 -27 -4 -27 -19 -25 -107 15 l-58 27 6 59 c3 33 7 61 9 64 3 2 39 -11 81 -29 63 -26 77 -36 77 -54 0 -13 4 -23 10 -23 13 0 18 28 25 130 3 47 10 123 15 170 5 47 10 93 10 102 0 10 20 40 45 68 66 74 62 92 -29 133 -86 40 -105 36 -164 -25z m143 4 c38 -15 70 -32 72 -38 2 -5 -14 -29 -35 -54 l-39 -44 -74 31 c-40 17 -75 36 -77 41 -3 11 65 92 78 92 4 0 38 -13 75 -28z m-103 -119 c38 -14 67 -28 65 -30 -4 -3 -139 45 -146 53 -10 10 19 2 81 -23z m-108 -39 c-5 -29 -4 -36 7 -32 8 2 15 17 17 31 2 15 7 27 12 27 22 0 120 -44 120 -54 0 -6 -12 -24 -25 -39 l-25 -28 -80 32 c-44 17 -80 34 -80 37 0 6 52 62 57 62 2 0 1 -16 -3 -36z m181 -130 c-3 -35 -11 -64 -16 -64 -15 0 -79 28 -79 35 0 14 95 115 98 105 2 -6 1 -40 -3 -76z m-152 41 c50 -21 57 -28 47 -40 -18 -21 -47 -19 -60 5 -16 30 -30 24 -30 -14 0 -64 -4 -67 -76 -38 -35 14 -64 28 -64 32 0 3 16 26 37 49 41 49 50 49 146 6z m7 -84 c0 -5 -7 -14 -15 -21 -13 -10 -15 -9 -15 9 0 12 6 21 15 21 8 0 15 -4 15 -9z m-125 -30 c36 -17 65 -33 65 -38 0 -4 -18 -27 -40 -50 l-40 -42 -43 19 c-23 10 -60 25 -81 34 l-40 17 44 44 c24 25 50 45 57 45 8 0 43 -13 78 -29z m215 -4 l45 -22 -3 -55 c-2 -30 -7 -58 -10 -62 -9 -9 -153 53 -159 68 -5 15 55 94 71 94 6 -1 31 -11 56 -23z m-325 -112 l77 -35 -21 -27 c-11 -16 -37 -47 -58 -70 l-38 -41 -77 30 c-43 17 -78 35 -78 39 0 8 108 139 115 139 2 0 38 -16 80 -35z m169 -7 c-2 -18 -9 -78 -14 -132 -6 -55 -13 -102 -15 -105 -8 -7 -145 51 -145 62 0 11 162 206 172 207 4 0 5 -15 2 -32z m98 -179 l77 -32 -6 -51 c-3 -28 -7 -53 -10 -55 -2 -3 -36 9 -76 25 l-72 30 -3 57 c-2 31 1 57 5 57 4 0 43 -14 85 -31z" id="svg_23" stroke="#b6b6b6" stroke-opacity="1" opacity="0.46" filter="" fill="#e0e0e0" fill-opacity="1"/>
<path d="M3940 2408 c-63 -66 -116 -125 -118 -133 -2 -7 10 -23 25 -35 15 -12 69 -62 119 -111 50 -49 95 -89 99 -89 4 0 23 13 42 30 54 48 85 40 140 -35 12 -17 25 -27 29 -23 9 9 -43 86 -67 99 -32 17 -76 10 -108 -16 -26 -23 -33 -24 -50 -13 -12 7 -21 17 -21 23 0 5 35 44 77 87 42 43 74 81 69 85 -4 4 -41 -27 -83 -70 -42 -43 -77 -76 -79 -74 -2 2 42 51 98 110 55 59 103 105 106 102 3 -3 -3 -14 -13 -25 -26 -28 -10 -38 18 -12 23 22 24 22 41 3 16 -18 16 -21 -9 -56 -45 -67 -31 -100 68 -167 34 -23 85 -65 113 -92 52 -52 108 -138 102 -156 -6 -17 -101 35 -171 95 -78 67 -106 65 -32 -2 75 -69 149 -115 187 -116 50 -3 50 34 -1 109 -49 73 -88 111 -182 178 -90 64 -102 91 -58 140 16 19 29 38 29 44 0 11 -239 243 -249 241 -3 0 -58 -55 -121 -121z m224 -5 c11 -21 -12 -35 -36 -22 -10 6 -27 7 -38 4 -11 -3 -29 -1 -41 6 -19 10 -25 9 -39 -9 -13 -16 -20 -18 -29 -9 -18 18 -13 29 36 79 l46 47 46 -40 c25 -23 50 -48 55 -56z m-40 -115 c-113 -117 -135 -138 -143 -138 -4 0 -36 29 -71 65 -76 77 -66 87 15 14 75 -69 86 -53 12 18 -62 60 -70 83 -13 39 44 -33 57 -17 15 18 -17 15 -29 30 -25 33 4 4 30 -17 59 -45 48 -47 77 -64 77 -44 0 4 -26 30 -57 59 -32 28 -55 55 -50 59 4 4 20 -5 35 -19 16 -15 32 -27 36 -27 5 0 15 -8 22 -17 16 -22 18 -5 4 33 -12 30 -8 40 12 28 23 -15 116 -13 129 2 7 8 14 12 17 9 3 -3 -30 -42 -74 -87z" id="svg_24" stroke="#b6b6b6" stroke-opacity="1" opacity="0.46" filter="" fill="#e0e0e0" fill-opacity="1"/>
<path d="M4060 2332 c0 -13 23 -32 39 -32 11 0 10 4 -4 20 -19 21 -35 26 -35 12z" id="svg_25" stroke="#b6b6b6" stroke-opacity="1" opacity="0.46" filter="" fill="#e0e0e0" fill-opacity="1"/>
<path d="M3976 2251 c-4 -5 -2 -12 3 -15 5 -4 12 -2 15 3 4 5 2 12 -3 15 -5 4 -12 2 -15 -3z" id="svg_26" stroke="#b6b6b6" stroke-opacity="1" opacity="0.46" filter="" fill="#e0e0e0" fill-opacity="1"/>
<path d="M4060 2104 c0 -8 5 -12 10 -9 6 3 10 10 10 16 0 5 -4 9 -10 9 -5 0 -10 -7 -10 -16z" id="svg_27" stroke="#b6b6b6" stroke-opacity="1" opacity="0.46" filter="" fill="#e0e0e0" fill-opacity="1"/>
<path d="M4414 1946 c-10 -26 4 -48 28 -44 17 2 23 10 23 28 0 18 -6 26 -23 28 -13 2 -25 -3 -28 -12z m36 -10 c0 -3 -4 -8 -10 -11 -5 -3 -10 -1 -10 4 0 6 5 11 10 11 6 0 10 -2 10 -4z" id="svg_28" stroke="#b6b6b6" stroke-opacity="1" opacity="0.46" filter="" fill="#e0e0e0" fill-opacity="1"/>
<path d="M5548 1774 c-46 -23 -69 -41 -73 -57 -3 -12 1 -78 10 -147 8 -69 22 -183 31 -255 8 -71 24 -190 35 -263 28 -194 27 -204 -18 -227 -27 -13 -33 -20 -21 -22 9 -2 49 12 88 32 40 20 111 54 159 75 47 21 165 75 261 120 96 45 194 91 218 101 24 10 40 23 37 29 -4 6 -17 4 -35 -5 -16 -8 -37 -15 -46 -15 -10 0 -50 35 -90 78 -40 42 -76 74 -80 70 -4 -5 0 -16 9 -26 10 -10 17 -23 17 -29 0 -5 -37 -26 -82 -46 l-82 -37 -42 47 c-24 27 -43 50 -44 53 0 3 37 22 82 43 73 33 83 35 98 22 9 -8 20 -15 23 -15 21 0 -6 36 -122 158 -171 181 -170 180 -183 259 -5 38 -15 74 -20 81 -17 20 -59 13 -130 -24z m126 -50 c3 -30 4 -59 1 -64 -7 -11 -157 -81 -162 -76 -9 9 -19 116 -12 128 10 16 118 66 145 67 18 1 22 -6 28 -55z m-63 -139 c-40 -19 -79 -35 -85 -35 -16 1 126 68 144 69 8 0 -18 -15 -59 -34z m81 -54 l3 -44 -78 -35 c-86 -39 -97 -36 -97 22 l0 29 23 -21 c23 -21 47 -29 47 -15 0 4 -10 17 -22 30 -12 13 -20 25 -17 27 16 15 125 63 131 58 4 -4 8 -27 10 -51z m88 -1 l51 -59 -40 -21 c-22 -11 -44 -20 -50 -20 -5 0 -12 28 -16 63 -3 34 -9 70 -11 80 -10 32 14 17 66 -43z m-70 -93 c0 -26 -44 -55 -55 -37 -4 6 -10 10 -16 10 -18 0 -8 -27 21 -55 17 -16 30 -32 30 -37 0 -8 -131 -71 -136 -65 -2 2 -8 31 -12 66 -10 70 -15 63 78 108 79 38 90 39 90 10z m188 -37 l43 -50 -82 -40 c-96 -46 -103 -44 -114 37 l-7 52 49 25 c26 14 53 25 58 26 6 0 29 -23 53 -50z m-178 -41 c0 -24 -12 -24 -27 0 -10 15 -10 21 0 24 18 6 27 -2 27 -24z m13 -127 c5 -29 7 -59 4 -65 -6 -16 -156 -82 -164 -73 -4 4 -9 35 -11 69 l-4 62 69 32 c37 17 75 31 83 30 10 -2 18 -20 23 -55z m136 -97 c50 -55 90 -102 90 -105 0 -3 -36 -22 -79 -42 -93 -43 -80 -57 -105 115 -17 125 -18 140 -6 135 5 -1 50 -48 100 -103z m283 -16 c-4 -4 -41 -23 -83 -42 l-77 -35 -43 44 -43 43 85 40 84 40 42 -42 c24 -22 40 -44 35 -48z m-398 -31 c3 -24 8 -67 12 -96 l7 -52 -84 -39 -84 -39 -8 37 c-4 20 -9 64 -10 99 l-2 63 75 34 c41 19 78 34 81 34 4 1 9 -18 13 -41z" id="svg_29" stroke="#b6b6b6" stroke-opacity="1" opacity="0.46" filter="" fill="#e0e0e0" fill-opacity="1"/>
<path d="M2463 1450 c-57 -25 -68 -48 -47 -99 11 -27 13 -45 6 -57 -14 -25 -3 -53 23 -60 13 -3 26 -11 28 -17 3 -7 31 -75 62 -152 68 -168 77 -179 125 -170 19 4 31 3 27 -2 -13 -12 -161 -72 -168 -67 -4 2 -37 52 -75 111 -90 145 -90 144 -121 130 -21 -9 -27 -8 -41 11 l-17 22 -160 -66 c-88 -37 -166 -71 -173 -77 -8 -6 -12 -25 -10 -46 2 -26 10 -39 30 -50 25 -14 32 -13 110 18 253 103 250 102 245 128 -4 20 15 43 36 43 2 0 39 -56 83 -125 43 -69 84 -125 90 -125 29 0 199 79 202 94 2 9 14 28 28 41 13 13 24 28 24 32 0 4 -47 118 -104 253 -100 237 -104 245 -132 247 -16 1 -48 -6 -71 -17z m103 -50 c42 -88 42 -88 -18 -114 -84 -37 -97 -40 -105 -20 -4 10 0 20 10 26 10 5 17 20 17 33 0 14 8 29 20 35 27 14 26 50 -1 57 -21 6 -21 6 2 19 37 21 52 13 75 -36z m-100 -9 c23 4 24 -3 3 -20 -26 -21 -39 -13 -39 23 0 15 3 16 14 7 8 -6 18 -11 22 -10z m152 -138 c25 -22 41 -69 21 -60 -119 49 -122 50 -103 64 25 18 58 16 82 -4z m-26 -64 c54 -23 79 -39 87 -57 7 -13 9 -27 7 -30 -3 -3 -28 4 -56 16 -29 12 -52 17 -56 11 -5 -8 53 -39 119 -62 24 -9 42 -58 25 -69 -10 -6 -9 -12 6 -23 21 -16 21 -17 -11 -34 -31 -16 -110 19 -123 55 -6 15 -9 29 -7 31 2 2 25 -5 50 -16 30 -13 49 -16 53 -10 8 13 10 11 -59 39 -63 25 -93 57 -82 89 3 12 0 23 -8 28 -13 7 -37 45 -37 57 0 11 14 7 92 -25z m-314 -159 c6 -16 9 -30 7 -30 -5 0 -35 56 -35 65 0 15 19 -8 28 -35z m-38 1 c7 -17 10 -35 8 -42 -2 -6 -63 -36 -136 -65 -109 -45 -136 -53 -153 -44 -14 8 -19 19 -17 38 3 24 16 32 138 83 74 32 138 58 141 58 4 1 12 -12 19 -28z m410 -111 c0 -5 -4 -10 -9 -10 -6 0 -13 5 -16 10 -3 6 1 10 9 10 9 0 16 -4 16 -10z" id="svg_30" stroke="#b6b6b6" stroke-opacity="1" opacity="0.46" filter="" fill="#e0e0e0" fill-opacity="1"/>
<path d="M2200 1010 c0 -5 5 -10 10 -10 6 0 10 5 10 10 0 6 -4 10 -10 10 -5 0 -10 -4 -10 -10z" id="svg_31" stroke="#b6b6b6" stroke-opacity="1" opacity="0.46" filter="" fill="#e0e0e0" fill-opacity="1"/>
<path d="M2140 993 c-8 -3 -37 -16 -65 -28 -27 -12 -60 -25 -72 -29 -23 -7 -32 -26 -14 -26 19 0 191 74 191 82 0 9 -17 9 -40 1z" id="svg_32" stroke="#b6b6b6" stroke-opacity="1" opacity="0.46" filter="" fill="#e0e0e0" fill-opacity="1"/>
<path d="M273 618 c-103 -98 -209 -272 -183 -303 12 -14 -2 -55 -19 -55 -4 0 -19 -27 -34 -60 l-25 -60 43 -19 c83 -37 82 -37 110 18 14 28 25 61 25 73 0 32 15 52 30 43 8 -5 18 -1 25 8 14 20 22 17 352 -129 117 -52 224 -94 237 -94 48 0 75 80 39 112 -20 17 -363 168 -381 168 -30 0 -7 -23 44 -46 45 -20 55 -28 49 -42 -4 -9 -10 -25 -12 -35 -6 -20 -15 -19 -108 24 -36 16 -65 33 -65 39 0 23 24 59 44 65 17 5 8 13 -54 43 -41 21 -74 43 -73 50 2 6 -11 19 -28 27 -36 19 -35 27 22 133 59 112 49 122 -38 40z m-13 -89 c-36 -78 -37 -87 -5 -99 14 -5 25 -14 25 -20 0 -21 -29 -80 -39 -80 -8 0 -80 31 -109 46 -2 1 8 25 22 52 26 51 124 177 132 169 3 -2 -9 -33 -26 -68z m73 -165 c6 -7 -23 -74 -32 -74 -3 0 -12 4 -20 9 -12 8 -12 14 -1 40 11 28 37 40 53 25z m-157 -41 c32 -14 53 -28 47 -30 -11 -4 -113 43 -113 52 0 8 4 6 66 -22z m212 19 c19 -12 -4 -72 -28 -72 -27 0 -30 11 -15 48 15 33 21 37 43 24z m-227 -62 c15 -9 17 -15 9 -30 -13 -23 -20 -25 -44 -7 -11 8 -15 19 -10 30 7 20 17 21 45 7z m698 -154 c15 -16 7 -52 -14 -60 -7 -2 -68 18 -135 47 -116 49 -121 53 -115 77 13 51 20 51 138 -2 62 -27 118 -55 126 -62z m-726 82 c31 -11 33 -18 12 -59 -15 -29 -16 -29 -51 -14 -20 8 -38 15 -40 15 -8 0 -4 30 8 55 8 18 17 24 27 19 9 -3 28 -11 44 -16z" id="svg_33" stroke="#b6b6b6" stroke-opacity="1" opacity="0.46" filter="" fill="#e0e0e0" fill-opacity="1"/>
<path d="M642 178 c7 -19 38 -22 38 -4 0 10 -9 16 -21 16 -12 0 -19 -5 -17 -12z" id="svg_34" stroke="#b6b6b6" stroke-opacity="1" opacity="0.46" filter="" fill="#e0e0e0" fill-opacity="1"/>
<path d="M700 156 c0 -15 78 -56 106 -56 26 0 14 20 -23 39 -61 30 -83 35 -83 17z" id="svg_35" stroke="#b6b6b6" stroke-opacity="1" opacity="0.46" filter="" fill="#e0e0e0" fill-opacity="1"/>
</g></g><defs><filter id="f038" xmlns:inkscape="http://www.inkscape.org/namespaces/inkscape" inkscape:label="Button" x="0" y="0" width="1" height="1" inkscape:menu="Bevels" inkscape:menu-tooltip="Soft bevel, slightly depressed middle" color-interpolation-filters="sRGB">
            <feGaussianBlur stdDeviation="2.3" in="SourceAlpha" result="result0"/>
            <feMorphology in="SourceAlpha" radius="6.6" result="result1"/>
            <feGaussianBlur stdDeviation="8.9" in="result1"/>
            <feColorMatrix id="feColorMatrix2861" values="1 0 0 0 0 0 1 0 0 0 0 0 1 0 0 0 0 0 0.3 0" result="result91"/>
            <feComposite in="result0" operator="out" result="result2" in2="result91"/>
            <feGaussianBlur stdDeviation="1.7" result="result4"/>
            <feDiffuseLighting surfaceScale="10">
                <feDistantLight azimuth="225" elevation="45"/>
            </feDiffuseLighting>
            <feBlend id="feBlend2863" in2="SourceGraphic" mode="multiply"/>
            <feComposite in2="SourceAlpha" operator="in" result="result3"/>
            <feSpecularLighting in="result4" surfaceScale="5" specularExponent="17.9">
                <feDistantLight azimuth="225" elevation="45"/>
            </feSpecularLighting>
            <feComposite in2="result3" operator="atop"/>
        </filter></defs></svg>