<?xml version="1.0" encoding="UTF-8"?>
<svg xmlns="http://www.w3.org/2000/svg" xmlns:xlink="http://www.w3.org/1999/xlink" width="150pt" height="173pt" viewBox="0 0 150 173" version="1.1">
<g id="surface1">
<path style=" stroke:none;fill-rule:nonzero;fill:rgb(0%,0%,0%);fill-opacity:1;" d="M 88.058594 0.78125 C 87.507812 1.9375 85.707031 6.617188 85.707031 6.828125 C 85.707031 6.976562 86.109375 7.25 86.617188 7.480469 C 87.359375 7.839844 87.527344 8.007812 87.570312 8.597656 C 87.613281 9.019531 87.464844 9.546875 87.210938 9.992188 C 86.746094 10.726562 86.640625 11.171875 86.957031 11.171875 C 87.0625 11.171875 87.402344 10.664062 87.738281 10.03125 C 88.332031 8.894531 88.332031 8.875 87.992188 8.136719 C 87.78125 7.714844 87.316406 7.230469 86.914062 7.019531 C 86.28125 6.703125 86.214844 6.574219 86.363281 6.15625 C 86.574219 5.585938 86.871094 5.5625 88.183594 6.132812 C 90.617188 7.1875 91.210938 7.375 91.210938 7.101562 C 91.210938 6.976562 90.238281 6.46875 89.074219 6.007812 C 87.886719 5.5625 87.019531 5.144531 87.148438 5.101562 C 87.402344 5.015625 92.691406 7.125 93.007812 7.441406 C 93.15625 7.585938 93.074219 7.585938 92.796875 7.480469 C 91.953125 7.167969 91.632812 7.125 91.632812 7.3125 C 91.632812 7.417969 91.867188 7.628906 92.164062 7.757812 C 92.714844 8.007812 92.820312 8.324219 92.5 8.808594 C 92.375 9.042969 92.140625 9.042969 91.589844 8.894531 C 90.660156 8.640625 89.855469 8.789062 89.410156 9.273438 C 89.222656 9.484375 88.882812 10.433594 88.648438 11.402344 C 88.140625 13.53125 86.828125 16.3125 85.941406 17.15625 L 85.285156 17.789062 L 85.285156 16.585938 C 85.285156 15.785156 85.496094 14.816406 85.917969 13.65625 C 86.597656 11.804688 86.640625 11.59375 86.386719 11.59375 C 85.835938 11.59375 84.394531 16.757812 84.714844 17.558594 C 85.410156 19.390625 88.058594 15.785156 89.117188 11.527344 C 89.664062 9.296875 89.984375 9.019531 91.570312 9.441406 C 92.121094 9.589844 92.605469 9.632812 92.691406 9.546875 C 92.925781 9.296875 95.230469 3.414062 95.230469 3.097656 C 95.230469 2.929688 93.878906 2.277344 91.886719 1.515625 C 90.046875 0.800781 88.480469 0.210938 88.417969 0.210938 C 88.375 0.210938 88.183594 0.464844 88.058594 0.78125 Z M 88.882812 1.074219 C 88.882812 1.203125 88.796875 1.453125 88.671875 1.664062 C 88.078125 2.761719 87.632812 4.214844 87.886719 4.214844 C 88.015625 4.214844 88.417969 3.539062 88.734375 2.738281 C 89.074219 1.917969 89.433594 1.265625 89.539062 1.265625 C 89.792969 1.265625 89.792969 1.371094 89.433594 2.214844 C 89.242188 2.675781 89.199219 2.992188 89.328125 3.078125 C 89.433594 3.140625 89.6875 2.804688 89.878906 2.339844 C 90.066406 1.855469 90.300781 1.476562 90.40625 1.476562 C 90.640625 1.476562 90.660156 1.453125 89.941406 3.160156 C 89.222656 4.910156 89.242188 4.847656 89.539062 4.847656 C 89.644531 4.847656 89.898438 4.488281 90.089844 4.046875 C 90.257812 3.625 90.535156 2.949219 90.703125 2.550781 C 91.0625 1.707031 91.378906 1.832031 91.042969 2.675781 C 90.914062 2.992188 90.765625 3.605469 90.679688 4.003906 C 90.574219 4.65625 90.597656 4.699219 90.851562 4.363281 C 91.019531 4.171875 91.253906 4.003906 91.378906 4.003906 C 91.507812 4.003906 91.632812 3.878906 91.695312 3.730469 C 91.738281 3.605469 91.84375 3.539062 91.929688 3.605469 C 92.140625 3.792969 91.824219 4.425781 91.527344 4.425781 C 91.230469 4.425781 90.871094 5.207031 91.0625 5.417969 C 91.253906 5.585938 91.632812 5.269531 91.632812 4.933594 C 91.632812 4.761719 91.71875 4.636719 91.804688 4.636719 C 92.140625 4.636719 92.480469 5.164062 92.480469 5.710938 C 92.480469 6.113281 92.605469 6.34375 92.902344 6.429688 C 93.136719 6.492188 93.328125 6.660156 93.328125 6.765625 C 93.328125 6.871094 93.007812 6.828125 92.648438 6.660156 C 92.269531 6.492188 90.871094 5.945312 89.582031 5.457031 C 88.269531 4.953125 87.191406 4.425781 87.191406 4.320312 C 87.191406 3.921875 88.542969 0.84375 88.714844 0.84375 C 88.796875 0.84375 88.882812 0.949219 88.882812 1.074219 Z M 93.792969 2.824219 L 94.785156 3.265625 L 94.214844 4.636719 C 93.601562 6.070312 93.074219 6.429688 92.945312 5.480469 C 92.902344 5.183594 92.753906 4.828125 92.628906 4.679688 C 92.5 4.511719 92.394531 4.089844 92.394531 3.730469 C 92.375 3.160156 92.289062 3.054688 91.910156 3.078125 C 91.359375 3.097656 91.335938 3.078125 91.65625 2.507812 C 91.886719 2.042969 92.121094 2.066406 93.792969 2.824219 Z M 93.792969 2.824219 "/>
<path style=" stroke:none;fill-rule:nonzero;fill:rgb(0%,0%,0%);fill-opacity:1;" d="M 88.882812 3.6875 C 88.882812 3.855469 88.988281 4.003906 89.09375 4.003906 C 89.222656 4.003906 89.304688 3.855469 89.304688 3.6875 C 89.304688 3.519531 89.222656 3.371094 89.09375 3.371094 C 88.988281 3.371094 88.882812 3.519531 88.882812 3.6875 Z M 88.882812 3.6875 "/>
<path style=" stroke:none;fill-rule:nonzero;fill:rgb(0%,0%,0%);fill-opacity:1;" d="M 86.765625 6.324219 C 86.765625 6.429688 86.871094 6.535156 86.976562 6.535156 C 87.105469 6.535156 87.191406 6.429688 87.191406 6.324219 C 87.191406 6.195312 87.105469 6.113281 86.976562 6.113281 C 86.871094 6.113281 86.765625 6.195312 86.765625 6.324219 Z M 86.765625 6.324219 "/>
<path style=" stroke:none;fill-rule:nonzero;fill:rgb(0%,0%,0%);fill-opacity:1;" d="M 91.84375 8.429688 C 91.84375 8.535156 91.953125 8.640625 92.058594 8.640625 C 92.183594 8.640625 92.269531 8.535156 92.269531 8.429688 C 92.269531 8.304688 92.183594 8.21875 92.058594 8.21875 C 91.953125 8.21875 91.84375 8.304688 91.84375 8.429688 Z M 91.84375 8.429688 "/>
<path style=" stroke:none;fill-rule:nonzero;fill:rgb(0%,0%,0%);fill-opacity:1;" d="M 85.835938 14.667969 C 85.644531 15.132812 86.195312 15.703125 86.660156 15.511719 C 86.871094 15.449219 86.976562 15.195312 86.9375 14.921875 C 86.851562 14.3125 86.046875 14.144531 85.835938 14.667969 Z M 85.835938 14.667969 "/>
<path style=" stroke:none;fill-rule:nonzero;fill:rgb(0%,0%,0%);fill-opacity:1;" d="M 29.796875 18.253906 C 28.824219 18.738281 28.335938 19.117188 28.253906 19.453125 C 28.1875 19.707031 28.273438 21.097656 28.464844 22.550781 C 28.632812 24.007812 28.929688 26.410156 29.121094 27.925781 C 29.289062 29.421875 29.628906 31.933594 29.859375 33.46875 C 30.453125 37.558594 30.433594 37.769531 29.480469 38.253906 C 28.90625 38.527344 28.78125 38.675781 29.035156 38.71875 C 29.226562 38.761719 30.070312 38.464844 30.898438 38.042969 C 31.742188 37.621094 33.246094 36.90625 34.261719 36.464844 C 35.257812 36.019531 37.753906 34.882812 39.785156 33.933594 C 41.816406 32.984375 43.890625 32.015625 44.398438 31.804688 C 44.90625 31.59375 45.246094 31.320312 45.183594 31.195312 C 45.097656 31.066406 44.820312 31.109375 44.441406 31.300781 C 44.101562 31.46875 43.660156 31.617188 43.46875 31.617188 C 43.257812 31.617188 42.410156 30.878906 41.5625 29.972656 C 40.714844 29.085938 39.953125 28.410156 39.871094 28.496094 C 39.785156 28.601562 39.871094 28.832031 40.0625 29.042969 C 40.273438 29.253906 40.421875 29.527344 40.421875 29.65625 C 40.421875 29.761719 39.636719 30.203125 38.683594 30.625 L 36.949219 31.40625 L 36.0625 30.414062 C 35.554688 29.84375 35.152344 29.359375 35.128906 29.296875 C 35.128906 29.234375 35.914062 28.832031 36.863281 28.390625 C 38.410156 27.695312 38.621094 27.652344 38.9375 27.925781 C 39.128906 28.09375 39.363281 28.242188 39.425781 28.242188 C 39.871094 28.242188 39.296875 27.484375 36.84375 24.914062 C 33.226562 21.097656 33.246094 21.121094 32.972656 19.453125 C 32.867188 18.652344 32.652344 17.894531 32.546875 17.746094 C 32.1875 17.324219 31.300781 17.472656 29.796875 18.253906 Z M 32.464844 19.304688 C 32.527344 19.9375 32.546875 20.550781 32.484375 20.65625 C 32.335938 20.886719 29.160156 22.363281 29.054688 22.257812 C 28.867188 22.066406 28.652344 19.8125 28.800781 19.558594 C 29.015625 19.222656 31.300781 18.167969 31.871094 18.148438 C 32.25 18.125 32.335938 18.273438 32.464844 19.304688 Z M 31.128906 22.234375 C 30.285156 22.636719 29.457031 22.972656 29.332031 22.972656 C 28.992188 22.953125 31.996094 21.539062 32.378906 21.519531 C 32.546875 21.519531 31.996094 21.835938 31.128906 22.234375 Z M 32.84375 23.375 L 32.90625 24.300781 L 31.257812 25.039062 C 29.4375 25.863281 29.203125 25.796875 29.203125 24.574219 L 29.203125 23.964844 L 29.691406 24.40625 C 30.179688 24.851562 30.6875 25.019531 30.6875 24.722656 C 30.6875 24.640625 30.472656 24.363281 30.21875 24.089844 C 29.964844 23.816406 29.796875 23.5625 29.859375 23.523438 C 30.199219 23.207031 32.503906 22.195312 32.632812 22.300781 C 32.71875 22.382812 32.800781 22.867188 32.84375 23.375 Z M 34.707031 23.394531 L 35.785156 24.640625 L 34.9375 25.082031 C 34.472656 25.3125 34.007812 25.503906 33.882812 25.503906 C 33.777344 25.503906 33.628906 24.914062 33.542969 24.175781 C 33.480469 23.457031 33.351562 22.699219 33.308594 22.488281 C 33.097656 21.816406 33.605469 22.128906 34.707031 23.394531 Z M 33.226562 25.355469 C 33.226562 25.902344 32.292969 26.515625 32.0625 26.136719 C 31.976562 26.007812 31.847656 25.925781 31.722656 25.925781 C 31.339844 25.925781 31.554688 26.492188 32.167969 27.082031 C 32.527344 27.421875 32.800781 27.757812 32.800781 27.863281 C 32.800781 28.03125 30.03125 29.359375 29.921875 29.234375 C 29.882812 29.191406 29.753906 28.582031 29.667969 27.84375 C 29.457031 26.367188 29.351562 26.515625 31.320312 25.566406 C 32.992188 24.765625 33.226562 24.746094 33.226562 25.355469 Z M 37.203125 26.136719 L 38.113281 27.1875 L 36.378906 28.03125 C 34.347656 29 34.199219 28.960938 33.964844 27.253906 L 33.816406 26.15625 L 34.855469 25.628906 C 35.40625 25.335938 35.976562 25.101562 36.082031 25.082031 C 36.210938 25.082031 36.695312 25.566406 37.203125 26.136719 Z M 33.4375 27 C 33.4375 27.503906 33.183594 27.503906 32.867188 27 C 32.652344 26.683594 32.652344 26.558594 32.867188 26.492188 C 33.246094 26.367188 33.4375 26.535156 33.4375 27 Z M 33.710938 29.675781 C 33.816406 30.289062 33.859375 30.921875 33.796875 31.046875 C 33.667969 31.382812 30.496094 32.773438 30.324219 32.585938 C 30.242188 32.5 30.136719 31.847656 30.09375 31.128906 L 30.007812 29.824219 L 31.46875 29.148438 C 32.25 28.792969 33.054688 28.496094 33.226562 28.515625 C 33.4375 28.558594 33.605469 28.9375 33.710938 29.675781 Z M 36.589844 31.722656 C 37.648438 32.878906 38.496094 33.871094 38.496094 33.933594 C 38.496094 33.996094 37.734375 34.398438 36.824219 34.820312 C 34.855469 35.726562 35.128906 36.019531 34.601562 32.394531 C 34.242188 29.761719 34.21875 29.445312 34.472656 29.550781 C 34.578125 29.570312 35.53125 30.5625 36.589844 31.722656 Z M 42.578125 32.058594 C 42.496094 32.140625 41.710938 32.542969 40.824219 32.941406 L 39.191406 33.679688 L 38.28125 32.753906 L 37.371094 31.847656 L 39.171875 31.003906 L 40.949219 30.160156 L 41.839844 31.046875 C 42.347656 31.511719 42.683594 31.972656 42.578125 32.058594 Z M 34.15625 32.710938 C 34.21875 33.21875 34.324219 34.125 34.410156 34.734375 L 34.558594 35.832031 L 32.78125 36.652344 L 31.003906 37.476562 L 30.832031 36.695312 C 30.75 36.273438 30.644531 35.347656 30.621094 34.609375 L 30.578125 33.28125 L 32.167969 32.5625 C 33.035156 32.164062 33.816406 31.847656 33.882812 31.847656 C 33.964844 31.828125 34.070312 32.226562 34.15625 32.710938 Z M 34.15625 32.710938 "/>
<path style=" stroke:none;fill-rule:nonzero;fill:rgb(0%,0%,0%);fill-opacity:1;" d="M 142.277344 28.453125 C 141.070312 28.980469 140.835938 29.464844 141.28125 30.539062 C 141.515625 31.109375 141.554688 31.488281 141.40625 31.742188 C 141.113281 32.269531 141.34375 32.859375 141.894531 33.007812 C 142.167969 33.070312 142.445312 33.238281 142.488281 33.363281 C 142.550781 33.511719 143.144531 34.945312 143.800781 36.570312 C 145.238281 40.109375 145.429688 40.339844 146.445312 40.152344 C 146.847656 40.066406 147.101562 40.089844 147.015625 40.195312 C 146.742188 40.445312 143.609375 41.710938 143.460938 41.605469 C 143.375 41.5625 142.679688 40.511719 141.875 39.265625 C 139.96875 36.210938 139.96875 36.230469 139.3125 36.527344 C 138.867188 36.714844 138.742188 36.695312 138.445312 36.292969 L 138.085938 35.832031 L 134.699219 37.222656 C 132.835938 38 131.1875 38.71875 131.039062 38.84375 C 130.867188 38.972656 130.785156 39.371094 130.828125 39.8125 C 130.867188 40.363281 131.039062 40.636719 131.460938 40.867188 C 131.992188 41.164062 132.140625 41.140625 133.789062 40.488281 C 139.144531 38.316406 139.082031 38.339844 138.972656 37.792969 C 138.890625 37.371094 139.292969 36.882812 139.734375 36.882812 C 139.777344 36.882812 140.5625 38.066406 141.492188 39.519531 C 142.402344 40.972656 143.269531 42.152344 143.398438 42.152344 C 144.011719 42.152344 147.609375 40.488281 147.671875 40.171875 C 147.714844 39.984375 147.96875 39.582031 148.265625 39.308594 C 148.539062 39.035156 148.773438 38.71875 148.773438 38.632812 C 148.773438 38.550781 147.777344 36.148438 146.570312 33.300781 C 144.457031 28.304688 144.371094 28.136719 143.777344 28.09375 C 143.441406 28.074219 142.761719 28.222656 142.277344 28.453125 Z M 144.457031 29.507812 C 145.34375 31.363281 145.34375 31.363281 144.074219 31.910156 C 142.296875 32.691406 142.023438 32.753906 141.851562 32.332031 C 141.769531 32.121094 141.851562 31.910156 142.0625 31.785156 C 142.277344 31.679688 142.421875 31.363281 142.421875 31.089844 C 142.421875 30.792969 142.59375 30.476562 142.847656 30.351562 C 143.417969 30.054688 143.398438 29.296875 142.824219 29.148438 C 142.382812 29.023438 142.382812 29.023438 142.867188 28.75 C 143.652344 28.304688 143.96875 28.476562 144.457031 29.507812 Z M 142.339844 29.699219 C 142.824219 29.613281 142.847656 29.761719 142.402344 30.117188 C 141.851562 30.5625 141.578125 30.394531 141.578125 29.632812 C 141.578125 29.316406 141.640625 29.296875 141.875 29.488281 C 142.042969 29.613281 142.253906 29.71875 142.339844 29.699219 Z M 145.554688 32.605469 C 146.085938 33.070312 146.421875 34.058594 146 33.871094 C 143.480469 32.839844 143.417969 32.816406 143.820312 32.523438 C 144.347656 32.140625 145.046875 32.183594 145.554688 32.605469 Z M 145.003906 33.953125 C 146.148438 34.441406 146.675781 34.777344 146.847656 35.15625 C 146.996094 35.429688 147.039062 35.726562 146.996094 35.789062 C 146.929688 35.851562 146.402344 35.703125 145.808594 35.453125 C 145.195312 35.199219 144.710938 35.09375 144.625 35.21875 C 144.519531 35.386719 145.746094 36.042969 147.144531 36.527344 C 147.652344 36.714844 148.03125 37.75 147.671875 37.980469 C 147.460938 38.105469 147.480469 38.234375 147.800781 38.464844 C 148.242188 38.804688 148.242188 38.824219 147.566406 39.183594 C 146.910156 39.519531 145.238281 38.78125 144.964844 38.023438 C 144.835938 37.707031 144.773438 37.410156 144.816406 37.371094 C 144.859375 37.328125 145.34375 37.476562 145.875 37.707031 C 146.507812 37.980469 146.910156 38.042969 146.996094 37.917969 C 147.164062 37.644531 147.207031 37.6875 145.746094 37.09375 C 144.414062 36.570312 143.777344 35.894531 144.011719 35.21875 C 144.074219 34.964844 144.011719 34.734375 143.839844 34.628906 C 143.566406 34.480469 143.058594 33.679688 143.058594 33.429688 C 143.058594 33.195312 143.355469 33.28125 145.003906 33.953125 Z M 138.359375 37.304688 C 138.488281 37.644531 138.550781 37.9375 138.507812 37.9375 C 138.402344 37.9375 137.769531 36.757812 137.769531 36.570312 C 137.769531 36.253906 138.171875 36.738281 138.359375 37.304688 Z M 137.554688 37.285156 C 137.703125 37.644531 137.769531 38.023438 137.726562 38.171875 C 137.683594 38.296875 136.390625 38.929688 134.847656 39.539062 C 132.539062 40.488281 131.96875 40.65625 131.609375 40.46875 C 131.3125 40.300781 131.207031 40.066406 131.25 39.667969 C 131.3125 39.160156 131.589844 38.992188 134.171875 37.917969 C 135.738281 37.242188 137.089844 36.695312 137.15625 36.695312 C 137.238281 36.675781 137.410156 36.949219 137.554688 37.285156 Z M 146.234375 39.625 C 146.234375 39.730469 146.148438 39.835938 146.042969 39.835938 C 145.914062 39.835938 145.765625 39.730469 145.703125 39.625 C 145.640625 39.5 145.726562 39.414062 145.894531 39.414062 C 146.085938 39.414062 146.234375 39.5 146.234375 39.625 Z M 146.234375 39.625 "/>
<path style=" stroke:none;fill-rule:nonzero;fill:rgb(0%,0%,0%);fill-opacity:1;" d="M 136.710938 37.726562 C 136.710938 37.832031 136.816406 37.9375 136.921875 37.9375 C 137.046875 37.9375 137.132812 37.832031 137.132812 37.726562 C 137.132812 37.601562 137.046875 37.515625 136.921875 37.515625 C 136.816406 37.515625 136.710938 37.601562 136.710938 37.726562 Z M 136.710938 37.726562 "/>
<path style=" stroke:none;fill-rule:nonzero;fill:rgb(0%,0%,0%);fill-opacity:1;" d="M 135.441406 38.085938 C 135.269531 38.148438 134.65625 38.421875 134.066406 38.675781 C 133.492188 38.929688 132.792969 39.203125 132.539062 39.289062 C 132.054688 39.433594 131.863281 39.835938 132.246094 39.835938 C 132.648438 39.835938 136.285156 38.277344 136.285156 38.105469 C 136.285156 37.917969 135.925781 37.917969 135.441406 38.085938 Z M 135.441406 38.085938 "/>
<path style=" stroke:none;fill-rule:nonzero;fill:rgb(0%,0%,0%);fill-opacity:1;" d="M 77.644531 37.117188 C 77.265625 37.832031 74.703125 43.902344 74.703125 44.09375 C 74.703125 44.597656 75.191406 44.136719 75.550781 43.3125 C 75.972656 42.324219 76.164062 42.21875 76.839844 42.597656 C 77.308594 42.828125 77.285156 42.996094 76.480469 44.789062 C 75.996094 45.90625 75.996094 45.925781 75.339844 45.675781 C 74.957031 45.527344 74.703125 45.273438 74.703125 45.0625 C 74.703125 44.324219 74.34375 44.703125 73.75 46.054688 C 73.347656 47 73.054688 47.421875 72.800781 47.421875 C 72.566406 47.421875 72.375 47.632812 72.292969 47.949219 C 72.207031 48.246094 72.058594 48.476562 71.929688 48.476562 C 71.804688 48.476562 70.9375 48.078125 70.027344 47.613281 C 69.09375 47.128906 68.292969 46.789062 68.226562 46.855469 C 67.761719 47.316406 70.449219 49.699219 72.671875 50.816406 C 73.941406 51.449219 74.511719 51.617188 74.957031 51.535156 C 75.382812 51.429688 75.59375 51.492188 75.675781 51.722656 C 75.804688 52.058594 77.476562 52.902344 77.984375 52.902344 C 78.132812 52.902344 78.429688 52.460938 78.640625 51.914062 C 78.871094 51.34375 79.0625 50.835938 79.105469 50.753906 C 79.191406 50.5625 77.75 49.929688 76.820312 49.761719 C 76.3125 49.679688 76.058594 49.488281 75.996094 49.214844 C 75.953125 48.984375 75.824219 48.730469 75.699219 48.644531 C 75.550781 48.5625 76.25 46.6875 77.730469 43.25 C 78.980469 40.382812 79.996094 37.875 79.996094 37.6875 C 79.996094 36.738281 78.109375 36.273438 77.644531 37.117188 Z M 79.339844 37.390625 C 79.527344 37.621094 79.378906 38.171875 78.597656 39.960938 C 78.046875 41.226562 77.582031 42.28125 77.539062 42.324219 C 77.519531 42.363281 77.199219 42.238281 76.839844 42.070312 L 76.207031 41.734375 L 76.90625 40.066406 C 77.308594 39.160156 77.773438 38.128906 77.960938 37.75 C 78.34375 37.054688 78.9375 36.882812 79.339844 37.390625 Z M 75.464844 46.242188 C 75.78125 46.496094 75.804688 46.601562 75.613281 46.8125 C 75.273438 47.148438 74.28125 46.75 74.28125 46.265625 C 74.28125 45.863281 74.914062 45.863281 75.464844 46.242188 Z M 75.0625 47.507812 C 75.550781 47.949219 75.0625 48.289062 74.324219 48.035156 C 73.582031 47.78125 73.601562 47.800781 73.773438 47.339844 C 73.921875 46.960938 74.597656 47.042969 75.0625 47.507812 Z M 71.550781 48.8125 C 72.375 49.089844 72.398438 49.089844 72.628906 48.582031 C 72.757812 48.289062 72.925781 48.054688 73.011719 48.054688 C 73.457031 48.054688 74.492188 48.5625 74.492188 48.75 C 74.492188 49.214844 73.75 50.796875 73.539062 50.796875 C 73.117188 50.796875 71.191406 49.550781 70.257812 48.707031 C 69.347656 47.867188 69.328125 47.84375 70.027344 48.160156 C 70.40625 48.351562 71.105469 48.644531 71.550781 48.8125 Z M 74.894531 50.183594 C 74.617188 50.796875 74.386719 51.195312 74.34375 51.070312 C 74.257812 50.816406 75.128906 48.835938 75.273438 48.960938 C 75.316406 49.023438 75.148438 49.574219 74.894531 50.183594 Z M 76.164062 50.140625 C 76.4375 50.3125 76.3125 51.21875 76.015625 51.21875 C 75.59375 51.195312 75.296875 50.816406 75.445312 50.394531 C 75.59375 49.910156 75.71875 49.867188 76.164062 50.140625 Z M 78.175781 50.648438 C 78.535156 50.921875 78.535156 50.964844 78.214844 51.597656 C 77.835938 52.335938 77.730469 52.375 76.945312 52.058594 C 76.398438 51.871094 76.398438 51.847656 76.757812 51.113281 C 77.136719 50.332031 77.5625 50.183594 78.175781 50.648438 Z M 78.175781 50.648438 "/>
<path style=" stroke:none;fill-rule:nonzero;fill:rgb(0%,0%,0%);fill-opacity:1;" d="M 77.878906 38.929688 C 77.308594 40.214844 77.667969 40.65625 78.28125 39.457031 C 78.535156 38.972656 78.722656 38.445312 78.722656 38.253906 C 78.722656 37.621094 78.324219 37.960938 77.878906 38.929688 Z M 77.878906 38.929688 "/>
<path style=" stroke:none;fill-rule:nonzero;fill:rgb(0%,0%,0%);fill-opacity:1;" d="M 77.117188 40.761719 C 76.945312 41.226562 77.179688 41.457031 77.496094 41.140625 C 77.6875 40.953125 77.6875 40.824219 77.496094 40.636719 C 77.308594 40.445312 77.222656 40.488281 77.117188 40.761719 Z M 77.117188 40.761719 "/>
<path style=" stroke:none;fill-rule:nonzero;fill:rgb(0%,0%,0%);fill-opacity:1;" d="M 84.96875 68.984375 C 84.4375 69.492188 84.015625 70.058594 84.015625 70.25 C 84.015625 70.417969 84.246094 70.859375 84.542969 71.199219 C 84.863281 71.578125 85.074219 72.082031 85.074219 72.484375 C 85.074219 73.117188 85.601562 73.621094 86.152344 73.515625 C 86.28125 73.472656 87.464844 74.738281 88.753906 76.296875 C 90.066406 77.859375 91.296875 79.164062 91.507812 79.207031 C 91.695312 79.25 92.097656 79.125 92.375 78.953125 C 93.433594 78.257812 92.859375 78.996094 91.421875 80.15625 L 89.960938 81.355469 L 87.507812 79.25 L 85.03125 77.140625 L 84.4375 77.5625 C 83.929688 77.921875 83.824219 77.941406 83.59375 77.667969 C 83.445312 77.5 83.253906 77.351562 83.148438 77.351562 C 83.042969 77.351562 81.667969 78.40625 80.101562 79.671875 C 77.453125 81.84375 77.242188 82.054688 77.242188 82.726562 C 77.242188 83.484375 77.835938 84.097656 78.535156 84.097656 C 78.851562 84.097656 84.4375 79.753906 84.734375 79.269531 C 84.796875 79.164062 84.714844 78.976562 84.542969 78.828125 C 84.121094 78.492188 84.140625 78.34375 84.648438 78.027344 C 85.03125 77.796875 85.304688 77.964844 87.402344 79.777344 C 88.691406 80.871094 89.855469 81.777344 89.960938 81.777344 C 90.089844 81.777344 90.957031 81.144531 91.886719 80.367188 C 93.113281 79.355469 93.539062 78.871094 93.476562 78.597656 C 93.410156 78.386719 93.496094 78.113281 93.644531 77.984375 C 94.089844 77.605469 94.152344 76.996094 93.769531 76.46875 C 93.582031 76.171875 91.972656 74.171875 90.171875 72.019531 C 87.65625 68.964844 86.808594 68.078125 86.429688 68.078125 C 86.132812 68.078125 85.539062 68.457031 84.96875 68.984375 Z M 87.210938 69.175781 C 87.570312 69.554688 88.035156 70.125 88.269531 70.4375 L 88.671875 70.988281 L 87.464844 71.957031 C 86.789062 72.484375 86.066406 72.925781 85.878906 72.925781 C 85.453125 72.925781 85.371094 72.398438 85.730469 72.167969 C 85.855469 72.105469 85.917969 71.789062 85.855469 71.472656 C 85.792969 71.136719 85.878906 70.777344 86.089844 70.542969 C 86.535156 70.039062 86.171875 69.425781 85.496094 69.511719 C 85.03125 69.597656 85.03125 69.554688 85.625 69.046875 C 85.960938 68.753906 86.320312 68.5 86.40625 68.5 C 86.492188 68.5 86.871094 68.816406 87.210938 69.175781 Z M 85.582031 70.460938 C 85.371094 70.714844 85.15625 70.964844 85.117188 71.03125 C 85.03125 71.15625 84.648438 70.566406 84.648438 70.292969 C 84.648438 70.164062 84.945312 70.058594 85.304688 70.039062 L 85.984375 69.996094 Z M 89.769531 72.230469 C 90.511719 72.882812 90.257812 73.117188 88.839844 72.988281 C 88.097656 72.925781 87.464844 72.820312 87.402344 72.777344 C 87.335938 72.714844 87.527344 72.503906 87.804688 72.273438 C 88.417969 71.789062 89.242188 71.765625 89.769531 72.230469 Z M 90.28125 73.558594 C 90.722656 73.558594 91.632812 74.273438 91.632812 74.632812 C 91.632812 74.71875 91.0625 74.738281 90.363281 74.675781 C 89.582031 74.589844 89.09375 74.632812 89.09375 74.761719 C 89.09375 74.992188 90.257812 75.246094 91.441406 75.246094 C 92.417969 75.246094 93.328125 76.109375 92.902344 76.613281 C 92.691406 76.890625 92.714844 76.929688 93.09375 76.929688 C 93.664062 76.929688 93.664062 77.480469 93.09375 77.796875 C 92.164062 78.28125 89.941406 77.625 89.941406 76.890625 C 89.941406 76.761719 90.425781 76.71875 91.042969 76.761719 C 92.796875 76.867188 92.542969 76.382812 90.746094 76.234375 C 89.496094 76.128906 89.15625 76.023438 88.839844 75.625 C 88.628906 75.351562 88.5 75.011719 88.566406 74.867188 C 88.628906 74.71875 88.5 74.527344 88.289062 74.464844 C 87.804688 74.296875 87.191406 73.75 87.191406 73.496094 C 87.191406 73.367188 87.675781 73.347656 88.480469 73.433594 C 89.199219 73.496094 90.003906 73.558594 90.28125 73.558594 Z M 83.824219 78.660156 L 84.289062 79.355469 L 83.632812 78.742188 C 82.914062 78.070312 82.851562 77.984375 83.148438 77.984375 C 83.253906 77.984375 83.570312 78.300781 83.824219 78.660156 Z M 83.148438 78.953125 C 83.378906 79.269531 83.527344 79.585938 83.464844 79.691406 C 83.402344 79.796875 82.300781 80.746094 81.03125 81.777344 C 79.085938 83.359375 78.640625 83.632812 78.238281 83.484375 C 77.960938 83.378906 77.75 83.105469 77.707031 82.789062 C 77.644531 82.347656 78.027344 81.96875 80.015625 80.34375 C 81.304688 79.269531 82.449219 78.40625 82.554688 78.40625 C 82.640625 78.40625 82.914062 78.660156 83.148438 78.953125 Z M 91.953125 78.617188 C 91.886719 78.722656 91.695312 78.765625 91.527344 78.679688 C 91.082031 78.53125 91.125 78.40625 91.65625 78.40625 C 91.886719 78.40625 92.035156 78.492188 91.953125 78.617188 Z M 91.953125 78.617188 "/>
<path style=" stroke:none;fill-rule:nonzero;fill:rgb(0%,0%,0%);fill-opacity:1;" d="M 82.320312 79.460938 C 82.320312 79.566406 82.429688 79.671875 82.535156 79.671875 C 82.660156 79.671875 82.746094 79.566406 82.746094 79.460938 C 82.746094 79.332031 82.660156 79.25 82.535156 79.25 C 82.429688 79.25 82.320312 79.332031 82.320312 79.460938 Z M 82.320312 79.460938 "/>
<path style=" stroke:none;fill-rule:nonzero;fill:rgb(0%,0%,0%);fill-opacity:1;" d="M 80.164062 81 C 78.789062 82.117188 78.175781 82.832031 78.617188 82.832031 C 78.914062 82.832031 82.089844 80.03125 81.984375 79.859375 C 81.835938 79.609375 82.027344 79.503906 80.164062 81 Z M 80.164062 81 "/>
<path style=" stroke:none;fill-rule:nonzero;fill:rgb(0%,0%,0%);fill-opacity:1;" d="M 23.382812 71.9375 C 18.261719 75.644531 18.222656 75.730469 19.574219 77.308594 C 20.441406 78.320312 20.910156 78.40625 21.859375 77.730469 C 22.21875 77.480469 22.75 77.289062 23.023438 77.308594 C 23.660156 77.351562 24.125 77.015625 24.125 76.488281 C 24.125 76.257812 25.183594 75.351562 27.152344 73.917969 C 30.199219 71.703125 30.621094 71.199219 30.03125 70.480469 C 29.902344 70.3125 29.839844 70.101562 29.921875 70.019531 C 30.007812 69.933594 30.15625 70.019531 30.261719 70.1875 C 30.367188 70.355469 30.832031 71.007812 31.300781 71.640625 C 31.785156 72.273438 32.167969 72.882812 32.167969 73.011719 C 32.167969 73.136719 31.195312 74.210938 30.007812 75.414062 L 27.828125 77.5625 L 28.210938 78.214844 C 28.546875 78.828125 28.546875 78.890625 28.230469 79.144531 C 28.019531 79.292969 27.914062 79.542969 27.996094 79.734375 C 28.0625 79.925781 29.097656 81.355469 30.285156 82.9375 C 32.082031 85.339844 32.527344 85.785156 32.992188 85.785156 C 33.289062 85.785156 33.648438 85.699219 33.777344 85.613281 C 34.050781 85.445312 34.496094 84.644531 34.496094 84.351562 C 34.496094 84.179688 30.578125 78.703125 30.050781 78.132812 C 29.964844 78.027344 29.691406 78.070312 29.4375 78.238281 C 29.035156 78.46875 28.929688 78.46875 28.675781 78.113281 C 28.378906 77.730469 28.527344 77.542969 30.539062 75.519531 C 31.722656 74.316406 32.71875 73.242188 32.757812 73.136719 C 32.800781 73.03125 32.1875 72.082031 31.425781 71.03125 C 30.367188 69.597656 29.945312 69.175781 29.734375 69.34375 C 29.5625 69.492188 29.375 69.425781 29.097656 69.132812 C 28.886719 68.902344 28.507812 68.710938 28.273438 68.710938 C 28.019531 68.710938 25.839844 70.164062 23.382812 71.9375 Z M 28.84375 69.617188 C 29.4375 70.503906 28.738281 72.671875 27.851562 72.714844 C 27.742188 72.714844 27.722656 72.25 27.785156 71.660156 C 27.851562 71.09375 27.828125 70.566406 27.722656 70.503906 C 27.511719 70.375 27.382812 70.777344 27.195312 72.25 C 27.046875 73.433594 26.328125 74.296875 25.691406 74.042969 C 25.480469 73.960938 25.332031 74.085938 25.246094 74.359375 C 25.183594 74.613281 24.910156 74.949219 24.632812 75.140625 C 24.144531 75.457031 24.125 75.457031 24.125 74.90625 C 24.125 74.589844 24.230469 73.726562 24.378906 72.988281 C 24.570312 71.976562 24.761719 71.535156 25.140625 71.21875 C 25.4375 70.988281 25.710938 70.859375 25.753906 70.902344 C 25.796875 70.945312 25.753906 71.492188 25.648438 72.105469 C 25.523438 72.738281 25.480469 73.304688 25.542969 73.410156 C 25.777344 73.789062 25.988281 73.261719 26.136719 71.957031 C 26.242188 70.839844 26.390625 70.460938 26.8125 70.058594 C 27.257812 69.660156 27.425781 69.597656 27.660156 69.808594 C 27.890625 69.996094 27.976562 69.953125 28.082031 69.597656 C 28.230469 69.007812 28.441406 69.007812 28.84375 69.617188 Z M 29.839844 71.136719 C 29.839844 71.304688 29.753906 71.449219 29.628906 71.449219 C 29.523438 71.449219 29.414062 71.304688 29.414062 71.136719 C 29.414062 70.964844 29.523438 70.820312 29.628906 70.820312 C 29.753906 70.820312 29.839844 70.964844 29.839844 71.136719 Z M 23.808594 73.601562 C 23.722656 74.339844 23.617188 74.972656 23.554688 75.035156 C 23.382812 75.203125 22.644531 74.171875 22.644531 73.769531 C 22.644531 73.347656 23.425781 72.292969 23.746094 72.292969 C 23.871094 72.292969 23.890625 72.757812 23.808594 73.601562 Z M 22.75 75.035156 C 23.320312 75.773438 23.679688 76.445312 23.617188 76.613281 C 23.492188 76.972656 23.152344 77.035156 22.960938 76.71875 C 22.898438 76.59375 22.539062 76.507812 22.179688 76.507812 C 21.820312 76.507812 21.332031 76.363281 21.121094 76.171875 C 20.824219 75.878906 20.695312 75.878906 20.421875 76.089844 C 20.253906 76.234375 20.105469 76.488281 20.105469 76.679688 C 20.105469 76.953125 20.039062 76.929688 19.679688 76.613281 C 19.003906 76.003906 19.171875 75.539062 20.464844 74.632812 C 21.121094 74.148438 21.691406 73.769531 21.710938 73.769531 C 21.753906 73.769531 22.21875 74.339844 22.75 75.035156 Z M 21.246094 76.824219 C 21.585938 77.078125 21.605469 77.183594 21.375 77.457031 C 20.949219 77.984375 20.589844 77.835938 20.613281 77.140625 C 20.632812 76.425781 20.675781 76.402344 21.246094 76.824219 Z M 29.628906 78.953125 C 29.457031 79.125 29.140625 79.375 28.90625 79.480469 C 28.589844 79.628906 28.632812 79.542969 29.054688 79.164062 C 29.710938 78.554688 30.050781 78.425781 29.628906 78.953125 Z M 32.125 81.652344 C 33.078125 82.980469 33.859375 84.246094 33.859375 84.476562 C 33.859375 85.066406 33.308594 85.46875 32.800781 85.234375 C 32.398438 85.046875 28.992188 80.597656 28.992188 80.238281 C 28.992188 80.007812 29.882812 79.269531 30.15625 79.269531 C 30.285156 79.269531 31.152344 80.34375 32.125 81.652344 Z M 32.125 81.652344 "/>
<path style=" stroke:none;fill-rule:nonzero;fill:rgb(0%,0%,0%);fill-opacity:1;" d="M 29.753906 80.050781 C 29.691406 80.175781 29.734375 80.34375 29.859375 80.410156 C 30.179688 80.621094 30.390625 80.34375 30.113281 80.070312 C 29.964844 79.925781 29.839844 79.925781 29.753906 80.050781 Z M 29.753906 80.050781 "/>
<path style=" stroke:none;fill-rule:nonzero;fill:rgb(0%,0%,0%);fill-opacity:1;" d="M 30.324219 81.019531 C 30.601562 81.714844 32.84375 84.519531 33.035156 84.390625 C 33.160156 84.328125 33.035156 83.992188 32.738281 83.613281 C 32.464844 83.234375 31.871094 82.433594 31.425781 81.820312 C 30.644531 80.789062 30.070312 80.367188 30.324219 81.019531 Z M 30.324219 81.019531 "/>
<path style=" stroke:none;fill-rule:nonzero;fill:rgb(0%,0%,0%);fill-opacity:1;" d="M 120.4375 88.820312 C 120.289062 89.472656 120.183594 90.0625 120.203125 90.144531 C 120.222656 90.398438 121.707031 90.863281 122.636719 90.90625 C 123.335938 90.945312 123.503906 91.03125 123.546875 91.410156 C 123.589844 91.683594 123.757812 91.894531 123.929688 91.894531 C 124.097656 91.894531 124.222656 91.957031 124.222656 92.042969 C 124.203125 92.148438 123.460938 94.824219 122.53125 98.007812 C 120.710938 104.375 120.710938 104.4375 122.085938 104.835938 C 123.164062 105.152344 123.441406 104.667969 124.625 100.410156 C 125.21875 98.324219 125.707031 96.53125 125.707031 96.46875 C 125.707031 96.386719 125.578125 96.320312 125.410156 96.320312 C 125.21875 96.320312 125.007812 96.742188 124.859375 97.375 C 124.710938 97.964844 124.542969 98.472656 124.457031 98.515625 C 124.160156 98.703125 123.164062 98.367188 123.164062 98.050781 C 123.164062 97.375 124.054688 94.847656 124.289062 94.847656 C 124.878906 94.847656 125.492188 95.121094 125.492188 95.394531 C 125.492188 95.542969 125.578125 95.710938 125.683594 95.773438 C 125.789062 95.859375 126.085938 95.183594 126.363281 94.320312 C 126.617188 93.433594 126.933594 92.738281 127.082031 92.738281 C 127.230469 92.738281 127.460938 92.445312 127.589844 92.105469 C 127.695312 91.75 127.84375 91.472656 127.886719 91.472656 C 128.074219 91.472656 130.996094 92.507812 131.417969 92.738281 C 131.714844 92.886719 131.96875 92.90625 132.097656 92.78125 C 132.222656 92.65625 131.925781 92.253906 131.269531 91.683594 C 129.21875 89.894531 125.28125 88.164062 124.4375 88.691406 C 124.011719 88.945312 123.378906 88.839844 123.378906 88.503906 C 123.378906 88.355469 122.871094 88.164062 121.238281 87.785156 C 120.730469 87.660156 120.691406 87.722656 120.4375 88.820312 Z M 122.171875 88.503906 C 122.679688 88.691406 122.699219 88.753906 122.488281 89.578125 C 122.277344 90.398438 122.234375 90.441406 121.601562 90.292969 C 120.667969 90.105469 120.605469 89.976562 120.878906 89.09375 C 121.132812 88.269531 121.324219 88.1875 122.171875 88.503906 Z M 123.757812 89.34375 C 123.929688 89.429688 124.011719 89.746094 123.96875 90.019531 C 123.929688 90.398438 123.800781 90.503906 123.484375 90.460938 C 122.910156 90.355469 122.890625 90.316406 123.039062 89.683594 C 123.1875 89.113281 123.3125 89.050781 123.757812 89.34375 Z M 124.964844 89.832031 C 124.753906 90.777344 124.4375 91.558594 124.328125 91.433594 C 124.203125 91.304688 124.835938 89.15625 124.984375 89.15625 C 125.050781 89.15625 125.027344 89.472656 124.964844 89.832031 Z M 127.441406 89.851562 C 128.796875 90.460938 130.445312 91.472656 130.296875 91.601562 C 130.234375 91.664062 129.683594 91.558594 129.070312 91.390625 C 127.589844 90.945312 127.417969 90.96875 127.1875 91.601562 C 126.996094 92.105469 126.890625 92.148438 126.171875 92 C 125.746094 91.9375 125.324219 91.789062 125.21875 91.707031 C 124.964844 91.453125 125.683594 89.367188 126.023438 89.367188 C 126.191406 89.367188 126.828125 89.597656 127.441406 89.851562 Z M 126.085938 92.949219 C 126.148438 93.371094 126.109375 93.414062 125.664062 93.308594 C 125.410156 93.222656 125.050781 93.160156 124.921875 93.160156 C 124.648438 93.160156 124.542969 92.484375 124.773438 92.273438 C 125.050781 91.980469 126.023438 92.464844 126.085938 92.949219 Z M 125.367188 93.707031 C 125.558594 93.773438 125.707031 94.023438 125.707031 94.257812 C 125.707031 94.636719 125.621094 94.679688 125.027344 94.550781 C 124.222656 94.382812 124.140625 94.320312 124.289062 93.898438 C 124.4375 93.5625 124.816406 93.496094 125.367188 93.707031 Z M 123.886719 98.976562 C 124.351562 99.144531 124.308594 99.484375 123.546875 102.054688 C 122.910156 104.246094 122.871094 104.332031 122.296875 104.332031 C 121.980469 104.332031 121.640625 104.226562 121.578125 104.097656 C 121.492188 103.972656 121.746094 102.75 122.128906 101.359375 C 122.871094 98.789062 122.976562 98.640625 123.886719 98.976562 Z M 123.886719 98.976562 "/>
<path style=" stroke:none;fill-rule:nonzero;fill:rgb(0%,0%,0%);fill-opacity:1;" d="M 123.082031 99.839844 C 122.828125 100.09375 122.953125 100.539062 123.273438 100.539062 C 123.441406 100.539062 123.589844 100.410156 123.589844 100.242188 C 123.589844 99.882812 123.292969 99.652344 123.082031 99.839844 Z M 123.082031 99.839844 "/>
<path style=" stroke:none;fill-rule:nonzero;fill:rgb(0%,0%,0%);fill-opacity:1;" d="M 122.636719 101.210938 C 122.488281 101.71875 122.109375 103.171875 122.109375 103.320312 C 122.109375 103.425781 122.234375 103.488281 122.402344 103.488281 C 122.679688 103.488281 123.164062 102.074219 123.164062 101.296875 C 123.164062 100.894531 122.765625 100.851562 122.636719 101.210938 Z M 122.636719 101.210938 "/>
<path style=" stroke:none;fill-rule:nonzero;fill:rgb(0%,0%,0%);fill-opacity:1;" d="M 37.289062 104.585938 C 36.695312 105.195312 35.53125 106.523438 34.664062 107.515625 C 30.515625 112.363281 26.855469 116.554688 26.75 116.554688 C 26.6875 116.554688 26.347656 116.410156 26.007812 116.21875 C 25.351562 115.902344 24.929688 115.964844 25.308594 116.324219 C 25.417969 116.429688 25.988281 116.703125 26.558594 116.933594 C 27.152344 117.167969 28.613281 117.777344 29.839844 118.304688 C 33.5 119.863281 37.691406 121.613281 39.042969 122.164062 C 40.527344 122.773438 41.351562 122.730469 40.101562 122.121094 C 39.152344 121.65625 39.171875 121.699219 39.425781 118.917969 C 39.554688 117.695312 39.53125 117.378906 39.320312 117.441406 C 39.171875 117.503906 39.023438 117.757812 38.980469 118.011719 C 38.898438 118.578125 38.578125 118.535156 36.71875 117.695312 L 35.488281 117.125 L 35.617188 115.882812 C 35.679688 115.1875 35.765625 114.59375 35.808594 114.53125 C 35.871094 114.492188 36.632812 114.765625 37.519531 115.144531 C 38.855469 115.691406 39.152344 115.902344 39.152344 116.28125 C 39.152344 116.554688 39.234375 116.765625 39.363281 116.765625 C 39.636719 116.765625 39.742188 116.175781 39.890625 114.027344 C 39.953125 113.035156 40.101562 111.433594 40.207031 110.445312 C 40.316406 109.453125 40.421875 108.484375 40.421875 108.292969 C 40.421875 108.082031 40.84375 107.449219 41.371094 106.859375 C 42.769531 105.300781 42.683594 104.921875 40.757812 104.058594 C 38.9375 103.214844 38.535156 103.296875 37.289062 104.585938 Z M 40.316406 104.5 C 41.117188 104.816406 41.796875 105.175781 41.839844 105.300781 C 41.878906 105.40625 41.542969 105.910156 41.097656 106.4375 L 40.273438 107.367188 L 38.707031 106.710938 C 37.859375 106.355469 37.117188 105.953125 37.078125 105.847656 C 37.011719 105.617188 38.453125 103.910156 38.726562 103.910156 C 38.8125 103.910156 39.53125 104.183594 40.316406 104.5 Z M 38.136719 107.007812 C 38.9375 107.304688 39.554688 107.597656 39.511719 107.640625 C 39.425781 107.703125 36.570312 106.691406 36.421875 106.523438 C 36.210938 106.3125 36.824219 106.480469 38.136719 107.007812 Z M 35.847656 107.828125 C 35.742188 108.441406 35.765625 108.589844 35.996094 108.503906 C 36.167969 108.460938 36.316406 108.144531 36.355469 107.851562 C 36.398438 107.535156 36.503906 107.28125 36.609375 107.28125 C 37.078125 107.28125 39.152344 108.210938 39.152344 108.421875 C 39.152344 108.546875 38.898438 108.925781 38.621094 109.242188 L 38.09375 109.832031 L 36.398438 109.15625 C 35.46875 108.800781 34.707031 108.441406 34.707031 108.378906 C 34.707031 108.25 35.808594 107.070312 35.914062 107.070312 C 35.957031 107.070312 35.933594 107.410156 35.847656 107.828125 Z M 39.679688 110.570312 C 39.617188 111.308594 39.445312 111.917969 39.339844 111.917969 C 39.023438 111.917969 37.667969 111.328125 37.667969 111.179688 C 37.667969 110.886719 39.679688 108.757812 39.742188 108.96875 C 39.785156 109.09375 39.765625 109.8125 39.679688 110.570312 Z M 36.464844 109.707031 C 37.519531 110.148438 37.667969 110.296875 37.457031 110.550781 C 37.078125 110.992188 36.464844 110.949219 36.1875 110.445312 C 35.847656 109.8125 35.554688 109.9375 35.554688 110.738281 C 35.554688 112.085938 35.46875 112.152344 33.945312 111.539062 C 33.203125 111.246094 32.589844 110.949219 32.589844 110.863281 C 32.589844 110.800781 32.929688 110.316406 33.375 109.832031 C 34.242188 108.800781 34.429688 108.800781 36.464844 109.707031 Z M 36.609375 111.476562 C 36.609375 111.582031 36.464844 111.769531 36.292969 111.917969 C 36.019531 112.128906 35.976562 112.109375 35.976562 111.730469 C 35.976562 111.476562 36.101562 111.285156 36.292969 111.285156 C 36.464844 111.285156 36.609375 111.371094 36.609375 111.476562 Z M 33.964844 112.109375 C 34.726562 112.46875 35.339844 112.804688 35.339844 112.910156 C 35.339844 112.992188 34.960938 113.480469 34.496094 113.964844 L 33.648438 114.847656 L 32.738281 114.449219 C 32.25 114.238281 31.46875 113.921875 31.023438 113.730469 L 30.179688 113.375 L 31.109375 112.445312 C 31.617188 111.917969 32.167969 111.496094 32.316406 111.496094 C 32.484375 111.496094 33.226562 111.769531 33.964844 112.109375 Z M 38.515625 112.191406 L 39.46875 112.65625 L 39.40625 113.816406 C 39.363281 114.449219 39.257812 115.039062 39.191406 115.121094 C 39.003906 115.3125 35.957031 114.003906 35.828125 113.6875 C 35.722656 113.375 36.992188 111.707031 37.332031 111.707031 C 37.457031 111.730469 37.988281 111.941406 38.515625 112.191406 Z M 31.636719 114.554688 L 33.265625 115.292969 L 32.824219 115.859375 C 32.589844 116.199219 32.039062 116.851562 31.59375 117.335938 L 30.792969 118.199219 L 29.160156 117.566406 C 28.253906 117.210938 27.511719 116.828125 27.511719 116.746094 C 27.511719 116.578125 29.796875 113.816406 29.945312 113.816406 C 29.988281 113.816406 30.75 114.152344 31.636719 114.554688 Z M 35.214844 114.699219 C 35.171875 115.082031 35.023438 116.34375 34.917969 117.484375 C 34.792969 118.640625 34.644531 119.632812 34.601562 119.695312 C 34.429688 119.84375 31.53125 118.621094 31.53125 118.390625 C 31.53125 118.15625 34.960938 114.046875 35.171875 114.027344 C 35.257812 114.027344 35.277344 114.34375 35.214844 114.699219 Z M 37.289062 118.472656 L 38.917969 119.148438 L 38.789062 120.222656 C 38.726562 120.8125 38.644531 121.339844 38.578125 121.382812 C 38.535156 121.445312 37.816406 121.191406 36.972656 120.855469 L 35.445312 120.222656 L 35.382812 119.023438 C 35.339844 118.367188 35.40625 117.820312 35.488281 117.820312 C 35.574219 117.820312 36.398438 118.117188 37.289062 118.472656 Z M 37.289062 118.472656 "/>
<path style=" stroke:none;fill-rule:nonzero;fill:rgb(0%,0%,0%);fill-opacity:1;" d="M 83.378906 122.289062 C 82.046875 123.679688 80.925781 124.921875 80.882812 125.09375 C 80.839844 125.238281 81.09375 125.578125 81.414062 125.828125 C 81.730469 126.082031 82.871094 127.136719 83.929688 128.167969 C 84.988281 129.203125 85.941406 130.046875 86.027344 130.046875 C 86.109375 130.046875 86.511719 129.769531 86.914062 129.414062 C 88.058594 128.402344 88.714844 128.570312 89.878906 130.152344 C 90.132812 130.507812 90.40625 130.71875 90.492188 130.636719 C 90.679688 130.445312 89.582031 128.824219 89.074219 128.546875 C 88.394531 128.191406 87.464844 128.335938 86.789062 128.886719 C 86.238281 129.371094 86.089844 129.390625 85.730469 129.160156 C 85.476562 129.011719 85.285156 128.800781 85.285156 128.675781 C 85.285156 128.570312 86.027344 127.746094 86.914062 126.839844 C 87.804688 125.933594 88.480469 125.132812 88.375 125.050781 C 88.289062 124.964844 87.507812 125.617188 86.617188 126.523438 C 85.730469 127.429688 84.988281 128.128906 84.945312 128.085938 C 84.902344 128.042969 85.835938 127.011719 87.019531 125.765625 C 88.183594 124.523438 89.199219 123.554688 89.261719 123.617188 C 89.328125 123.679688 89.199219 123.910156 88.988281 124.144531 C 88.4375 124.734375 88.777344 124.945312 89.371094 124.394531 C 89.855469 123.933594 89.878906 123.933594 90.238281 124.332031 C 90.574219 124.710938 90.574219 124.777344 90.046875 125.511719 C 89.09375 126.925781 89.390625 127.621094 91.484375 129.035156 C 92.207031 129.519531 93.285156 130.402344 93.878906 130.972656 C 94.976562 132.070312 96.164062 133.882812 96.035156 134.261719 C 95.910156 134.617188 93.898438 133.523438 92.417969 132.257812 C 90.765625 130.847656 90.171875 130.886719 91.738281 132.300781 C 93.328125 133.753906 94.894531 134.722656 95.695312 134.746094 C 96.753906 134.808594 96.753906 134.027344 95.675781 132.449219 C 94.640625 130.910156 93.8125 130.109375 91.824219 128.695312 C 89.917969 127.347656 89.664062 126.777344 90.597656 125.746094 C 90.933594 125.34375 91.210938 124.945312 91.210938 124.816406 C 91.210938 124.585938 86.152344 119.695312 85.941406 119.738281 C 85.878906 119.738281 84.714844 120.898438 83.378906 122.289062 Z M 88.121094 122.394531 C 88.355469 122.835938 87.867188 123.132812 87.359375 122.859375 C 87.148438 122.730469 86.789062 122.710938 86.554688 122.773438 C 86.320312 122.835938 85.941406 122.792969 85.6875 122.648438 C 85.285156 122.4375 85.15625 122.457031 84.863281 122.835938 C 84.585938 123.175781 84.4375 123.214844 84.246094 123.027344 C 83.867188 122.648438 83.972656 122.414062 85.011719 121.363281 L 85.984375 120.371094 L 86.957031 121.214844 C 87.484375 121.699219 88.015625 122.226562 88.121094 122.394531 Z M 87.273438 124.816406 C 84.882812 127.285156 84.417969 127.726562 84.246094 127.726562 C 84.164062 127.726562 83.484375 127.117188 82.746094 126.355469 C 81.136719 124.734375 81.347656 124.523438 83.0625 126.0625 C 84.648438 127.515625 84.882812 127.179688 83.316406 125.683594 C 82.003906 124.417969 81.835938 123.933594 83.042969 124.859375 C 83.972656 125.554688 84.246094 125.21875 83.359375 124.480469 C 83 124.164062 82.746094 123.847656 82.832031 123.785156 C 82.914062 123.699219 83.464844 124.144531 84.078125 124.734375 C 85.09375 125.722656 85.707031 126.082031 85.707031 125.660156 C 85.707031 125.578125 85.15625 125.027344 84.503906 124.417969 C 83.824219 123.828125 83.339844 123.257812 83.445312 123.175781 C 83.527344 123.089844 83.867188 123.28125 84.183594 123.574219 C 84.523438 123.890625 84.863281 124.144531 84.945312 124.144531 C 85.050781 124.144531 85.265625 124.3125 85.410156 124.5 C 85.75 124.964844 85.792969 124.605469 85.496094 123.804688 C 85.242188 123.175781 85.328125 122.964844 85.75 123.214844 C 86.238281 123.53125 88.207031 123.488281 88.480469 123.175781 C 88.628906 123.003906 88.777344 122.921875 88.839844 122.984375 C 88.902344 123.046875 88.207031 123.871094 87.273438 124.816406 Z M 87.273438 124.816406 "/>
<path style=" stroke:none;fill-rule:nonzero;fill:rgb(0%,0%,0%);fill-opacity:1;" d="M 85.917969 123.890625 C 85.917969 124.164062 86.40625 124.566406 86.746094 124.566406 C 86.976562 124.566406 86.957031 124.480469 86.660156 124.144531 C 86.257812 123.699219 85.917969 123.59375 85.917969 123.890625 Z M 85.917969 123.890625 "/>
<path style=" stroke:none;fill-rule:nonzero;fill:rgb(0%,0%,0%);fill-opacity:1;" d="M 84.140625 125.597656 C 84.058594 125.703125 84.101562 125.851562 84.207031 125.914062 C 84.3125 126 84.460938 125.957031 84.523438 125.851562 C 84.609375 125.746094 84.566406 125.597656 84.460938 125.535156 C 84.355469 125.449219 84.207031 125.492188 84.140625 125.597656 Z M 84.140625 125.597656 "/>
<path style=" stroke:none;fill-rule:nonzero;fill:rgb(0%,0%,0%);fill-opacity:1;" d="M 85.917969 128.695312 C 85.917969 128.863281 86.027344 128.949219 86.132812 128.886719 C 86.257812 128.824219 86.34375 128.675781 86.34375 128.546875 C 86.34375 128.441406 86.257812 128.359375 86.132812 128.359375 C 86.027344 128.359375 85.917969 128.507812 85.917969 128.695312 Z M 85.917969 128.695312 "/>
<path style=" stroke:none;fill-rule:nonzero;fill:rgb(0%,0%,0%);fill-opacity:1;" d="M 93.410156 132.027344 C 93.199219 132.574219 93.496094 133.039062 94.003906 132.953125 C 94.363281 132.910156 94.492188 132.742188 94.492188 132.363281 C 94.492188 131.984375 94.363281 131.816406 94.003906 131.773438 C 93.730469 131.730469 93.476562 131.835938 93.410156 132.027344 Z M 94.171875 132.238281 C 94.171875 132.300781 94.089844 132.40625 93.960938 132.46875 C 93.855469 132.53125 93.75 132.488281 93.75 132.382812 C 93.75 132.257812 93.855469 132.152344 93.960938 132.152344 C 94.089844 132.152344 94.171875 132.195312 94.171875 132.238281 Z M 94.171875 132.238281 "/>
<path style=" stroke:none;fill-rule:nonzero;fill:rgb(0%,0%,0%);fill-opacity:1;" d="M 117.410156 135.652344 C 116.4375 136.136719 115.949219 136.515625 115.863281 136.851562 C 115.800781 137.105469 115.886719 138.496094 116.078125 139.953125 C 116.246094 141.40625 116.542969 143.808594 116.734375 145.324219 C 116.902344 146.824219 117.242188 149.332031 117.472656 150.871094 C 118.066406 154.957031 118.042969 155.167969 117.09375 155.652344 C 116.519531 155.925781 116.394531 156.074219 116.648438 156.117188 C 116.839844 156.160156 117.683594 155.863281 118.511719 155.441406 C 119.355469 155.019531 120.859375 154.304688 121.875 153.863281 C 122.871094 153.417969 125.367188 152.28125 127.398438 151.332031 C 129.429688 150.382812 131.503906 149.414062 132.011719 149.203125 C 132.519531 148.992188 132.859375 148.71875 132.792969 148.59375 C 132.710938 148.464844 132.433594 148.507812 132.054688 148.699219 C 131.714844 148.867188 131.269531 149.015625 131.082031 149.015625 C 130.867188 149.015625 130.023438 148.277344 129.175781 147.371094 C 128.328125 146.484375 127.566406 145.8125 127.484375 145.894531 C 127.398438 146 127.484375 146.230469 127.671875 146.441406 C 127.886719 146.652344 128.035156 146.929688 128.035156 147.054688 C 128.035156 147.160156 127.25 147.601562 126.296875 148.023438 L 124.5625 148.804688 L 123.671875 147.8125 C 123.164062 147.242188 122.765625 146.757812 122.742188 146.695312 C 122.742188 146.632812 123.527344 146.230469 124.476562 145.789062 C 126.023438 145.09375 126.234375 145.050781 126.550781 145.324219 C 126.742188 145.496094 126.976562 145.640625 127.039062 145.640625 C 127.484375 145.640625 126.910156 144.882812 124.457031 142.3125 C 120.839844 138.496094 120.859375 138.519531 120.585938 136.851562 C 120.476562 136.050781 120.265625 135.292969 120.160156 135.144531 C 119.800781 134.722656 118.914062 134.871094 117.410156 135.652344 Z M 120.078125 136.707031 C 120.140625 137.335938 120.160156 137.949219 120.097656 138.054688 C 119.949219 138.285156 116.773438 139.761719 116.667969 139.65625 C 116.480469 139.464844 116.265625 137.210938 116.414062 136.957031 C 116.625 136.621094 118.914062 135.566406 119.484375 135.546875 C 119.863281 135.523438 119.949219 135.671875 120.078125 136.707031 Z M 118.742188 139.636719 C 117.894531 140.035156 117.070312 140.371094 116.945312 140.371094 C 116.605469 140.351562 119.609375 138.941406 119.992188 138.917969 C 120.160156 138.917969 119.609375 139.234375 118.742188 139.636719 Z M 120.457031 140.773438 L 120.519531 141.699219 L 118.871094 142.4375 C 117.050781 143.261719 116.816406 143.195312 116.816406 141.976562 L 116.816406 141.363281 L 117.304688 141.804688 C 117.789062 142.25 118.296875 142.417969 118.296875 142.121094 C 118.296875 142.039062 118.085938 141.765625 117.832031 141.488281 C 117.578125 141.214844 117.410156 140.964844 117.472656 140.921875 C 117.8125 140.605469 120.117188 139.59375 120.246094 139.699219 C 120.332031 139.78125 120.414062 140.265625 120.457031 140.773438 Z M 122.320312 140.792969 L 123.398438 142.039062 L 122.550781 142.480469 C 122.085938 142.710938 121.621094 142.902344 121.492188 142.902344 C 121.386719 142.902344 121.238281 142.3125 121.15625 141.574219 C 121.09375 140.859375 120.964844 140.097656 120.921875 139.886719 C 120.710938 139.214844 121.21875 139.53125 122.320312 140.792969 Z M 120.839844 142.753906 C 120.839844 143.300781 119.90625 143.914062 119.675781 143.535156 C 119.589844 143.40625 119.460938 143.324219 119.335938 143.324219 C 118.953125 143.324219 119.167969 143.894531 119.78125 144.484375 C 120.140625 144.820312 120.414062 145.15625 120.414062 145.261719 C 120.414062 145.429688 117.640625 146.757812 117.535156 146.632812 C 117.496094 146.589844 117.367188 145.980469 117.28125 145.242188 C 117.070312 143.765625 116.964844 143.914062 118.933594 142.964844 C 120.605469 142.164062 120.839844 142.144531 120.839844 142.753906 Z M 124.816406 143.535156 L 125.726562 144.589844 L 123.992188 145.429688 C 121.960938 146.402344 121.8125 146.359375 121.578125 144.652344 L 121.429688 143.554688 L 122.46875 143.027344 C 123.019531 142.734375 123.589844 142.5 123.695312 142.480469 C 123.820312 142.480469 124.308594 142.964844 124.816406 143.535156 Z M 121.050781 144.398438 C 121.050781 144.90625 120.796875 144.90625 120.476562 144.398438 C 120.265625 144.082031 120.265625 143.957031 120.476562 143.894531 C 120.859375 143.765625 121.050781 143.933594 121.050781 144.398438 Z M 121.324219 147.074219 C 121.429688 147.6875 121.472656 148.320312 121.410156 148.445312 C 121.28125 148.78125 118.109375 150.171875 117.9375 149.984375 C 117.855469 149.898438 117.75 149.246094 117.707031 148.53125 L 117.621094 147.222656 L 119.082031 146.546875 C 119.863281 146.191406 120.667969 145.894531 120.839844 145.917969 C 121.050781 145.957031 121.21875 146.335938 121.324219 147.074219 Z M 124.203125 149.121094 C 125.261719 150.277344 126.109375 151.269531 126.109375 151.332031 C 126.109375 151.394531 125.34375 151.796875 124.4375 152.21875 C 122.46875 153.125 122.742188 153.417969 122.214844 149.792969 C 121.855469 147.160156 121.832031 146.84375 122.085938 146.949219 C 122.191406 146.96875 123.144531 147.960938 124.203125 149.121094 Z M 130.191406 149.457031 C 130.105469 149.542969 129.324219 149.941406 128.433594 150.34375 L 126.804688 151.078125 L 125.894531 150.152344 L 124.984375 149.246094 L 126.785156 148.402344 L 128.5625 147.558594 L 129.453125 148.445312 C 129.960938 148.910156 130.296875 149.371094 130.191406 149.457031 Z M 121.769531 150.109375 C 121.832031 150.617188 121.9375 151.523438 122.023438 152.132812 L 122.171875 153.230469 L 120.394531 154.050781 L 118.617188 154.875 L 118.445312 154.09375 C 118.363281 153.671875 118.257812 152.746094 118.234375 152.007812 L 118.191406 150.679688 L 119.78125 149.960938 C 120.648438 149.5625 121.429688 149.246094 121.492188 149.246094 C 121.578125 149.226562 121.683594 149.625 121.769531 150.109375 Z M 121.769531 150.109375 "/>
<path style=" stroke:none;fill-rule:nonzero;fill:rgb(0%,0%,0%);fill-opacity:1;" d="M 52.125 142.480469 C 50.917969 143.007812 50.683594 143.492188 51.128906 144.566406 C 51.363281 145.136719 51.402344 145.515625 51.253906 145.769531 C 50.960938 146.296875 51.191406 146.886719 51.742188 147.03125 C 52.015625 147.097656 52.292969 147.265625 52.335938 147.390625 C 52.398438 147.539062 52.992188 148.972656 53.648438 150.59375 C 55.085938 154.136719 55.277344 154.367188 56.292969 154.179688 C 56.695312 154.09375 56.949219 154.113281 56.863281 154.21875 C 56.589844 154.472656 53.457031 155.738281 53.308594 155.632812 C 53.222656 155.589844 52.527344 154.535156 51.722656 153.292969 C 49.816406 150.238281 49.816406 150.257812 49.160156 150.554688 C 48.714844 150.742188 48.589844 150.722656 48.292969 150.320312 L 47.933594 149.859375 L 44.546875 151.25 C 42.683594 152.027344 41.035156 152.746094 40.886719 152.871094 C 40.714844 152.996094 40.632812 153.398438 40.675781 153.839844 C 40.714844 154.390625 40.886719 154.664062 41.308594 154.894531 C 41.839844 155.191406 41.988281 155.167969 43.636719 154.515625 C 48.992188 152.34375 48.929688 152.367188 48.820312 151.816406 C 48.738281 151.394531 49.140625 150.910156 49.582031 150.910156 C 49.625 150.910156 50.410156 152.089844 51.339844 153.546875 C 52.25 155 53.117188 156.179688 53.246094 156.179688 C 53.859375 156.179688 57.457031 154.515625 57.519531 154.199219 C 57.5625 154.007812 57.816406 153.609375 58.113281 153.335938 C 58.386719 153.0625 58.621094 152.746094 58.621094 152.660156 C 58.621094 152.578125 57.625 150.171875 56.417969 147.328125 C 54.304688 142.332031 54.21875 142.164062 53.625 142.121094 C 53.289062 142.101562 52.609375 142.25 52.125 142.480469 Z M 54.304688 143.535156 C 55.191406 145.390625 55.191406 145.390625 53.921875 145.9375 C 52.144531 146.71875 51.871094 146.78125 51.699219 146.359375 C 51.617188 146.148438 51.699219 145.9375 51.910156 145.8125 C 52.125 145.707031 52.269531 145.390625 52.269531 145.113281 C 52.269531 144.820312 52.441406 144.503906 52.695312 144.378906 C 53.265625 144.082031 53.246094 143.324219 52.671875 143.175781 C 52.230469 143.050781 52.230469 143.050781 52.714844 142.777344 C 53.5 142.332031 53.816406 142.5 54.304688 143.535156 Z M 52.1875 143.722656 C 52.671875 143.640625 52.695312 143.789062 52.25 144.144531 C 51.699219 144.589844 51.425781 144.417969 51.425781 143.660156 C 51.425781 143.34375 51.488281 143.324219 51.722656 143.511719 C 51.890625 143.640625 52.101562 143.746094 52.1875 143.722656 Z M 55.402344 146.632812 C 55.933594 147.097656 56.269531 148.085938 55.847656 147.898438 C 53.328125 146.863281 53.265625 146.84375 53.667969 146.546875 C 54.195312 146.167969 54.894531 146.210938 55.402344 146.632812 Z M 54.851562 147.980469 C 55.996094 148.464844 56.523438 148.804688 56.695312 149.183594 C 56.84375 149.457031 56.886719 149.753906 56.84375 149.816406 C 56.777344 149.878906 56.25 149.730469 55.65625 149.476562 C 55.042969 149.226562 54.558594 149.121094 54.472656 149.246094 C 54.367188 149.414062 55.59375 150.066406 56.992188 150.554688 C 57.5 150.742188 57.878906 151.777344 57.519531 152.007812 C 57.308594 152.132812 57.328125 152.261719 57.648438 152.492188 C 58.089844 152.828125 58.089844 152.851562 57.414062 153.207031 C 56.757812 153.546875 55.085938 152.808594 54.8125 152.050781 C 54.683594 151.734375 54.621094 151.4375 54.664062 151.394531 C 54.707031 151.355469 55.191406 151.5 55.722656 151.734375 C 56.355469 152.007812 56.757812 152.070312 56.84375 151.945312 C 57.011719 151.671875 57.054688 151.710938 55.59375 151.121094 C 54.261719 150.59375 53.625 149.921875 53.859375 149.246094 C 53.921875 148.992188 53.859375 148.761719 53.6875 148.65625 C 53.414062 148.507812 52.90625 147.707031 52.90625 147.453125 C 52.90625 147.222656 53.203125 147.308594 54.851562 147.980469 Z M 48.207031 151.332031 C 48.335938 151.671875 48.398438 151.964844 48.355469 151.964844 C 48.25 151.964844 47.617188 150.785156 47.617188 150.59375 C 47.617188 150.277344 48.019531 150.765625 48.207031 151.332031 Z M 47.402344 151.3125 C 47.550781 151.671875 47.617188 152.050781 47.574219 152.195312 C 47.53125 152.324219 46.238281 152.957031 44.695312 153.566406 C 42.386719 154.515625 41.816406 154.683594 41.457031 154.496094 C 41.160156 154.324219 41.054688 154.09375 41.097656 153.695312 C 41.160156 153.1875 41.4375 153.019531 44.019531 151.945312 C 45.585938 151.269531 46.9375 150.722656 47.003906 150.722656 C 47.085938 150.699219 47.257812 150.972656 47.402344 151.3125 Z M 56.082031 153.652344 C 56.082031 153.757812 55.996094 153.863281 55.890625 153.863281 C 55.761719 153.863281 55.613281 153.757812 55.550781 153.652344 C 55.488281 153.523438 55.574219 153.441406 55.742188 153.441406 C 55.933594 153.441406 56.082031 153.523438 56.082031 153.652344 Z M 56.082031 153.652344 "/>
<path style=" stroke:none;fill-rule:nonzero;fill:rgb(0%,0%,0%);fill-opacity:1;" d="M 46.558594 151.753906 C 46.558594 151.859375 46.664062 151.964844 46.769531 151.964844 C 46.894531 151.964844 46.980469 151.859375 46.980469 151.753906 C 46.980469 151.628906 46.894531 151.542969 46.769531 151.542969 C 46.664062 151.542969 46.558594 151.628906 46.558594 151.753906 Z M 46.558594 151.753906 "/>
<path style=" stroke:none;fill-rule:nonzero;fill:rgb(0%,0%,0%);fill-opacity:1;" d="M 45.289062 152.113281 C 45.117188 152.175781 44.503906 152.449219 43.914062 152.703125 C 43.339844 152.957031 42.640625 153.230469 42.386719 153.3125 C 41.902344 153.460938 41.710938 153.863281 42.09375 153.863281 C 42.496094 153.863281 46.132812 152.300781 46.132812 152.132812 C 46.132812 151.945312 45.773438 151.945312 45.289062 152.113281 Z M 45.289062 152.113281 "/>
<path style=" stroke:none;fill-rule:nonzero;fill:rgb(0%,0%,0%);fill-opacity:1;" d="M 5.777344 160.015625 C 3.597656 162.082031 1.355469 165.75 1.90625 166.402344 C 2.160156 166.699219 1.863281 167.5625 1.503906 167.5625 C 1.417969 167.5625 1.101562 168.132812 0.78125 168.828125 L 0.253906 170.089844 L 1.164062 170.492188 C 2.921875 171.273438 2.898438 171.273438 3.492188 170.113281 C 3.789062 169.523438 4.019531 168.828125 4.019531 168.574219 C 4.019531 167.898438 4.339844 167.476562 4.65625 167.667969 C 4.824219 167.773438 5.035156 167.6875 5.183594 167.5 C 5.480469 167.078125 5.652344 167.140625 12.632812 170.21875 C 15.109375 171.3125 17.375 172.199219 17.648438 172.199219 C 18.664062 172.199219 19.238281 170.511719 18.476562 169.839844 C 18.050781 169.480469 10.792969 166.296875 10.410156 166.296875 C 9.777344 166.296875 10.265625 166.78125 11.34375 167.265625 C 12.296875 167.6875 12.507812 167.855469 12.378906 168.152344 C 12.296875 168.34375 12.167969 168.679688 12.125 168.890625 C 12 169.3125 11.808594 169.289062 9.839844 168.382812 C 9.078125 168.046875 8.464844 167.6875 8.464844 167.5625 C 8.464844 167.078125 8.972656 166.320312 9.394531 166.191406 C 9.757812 166.085938 9.566406 165.917969 8.253906 165.285156 C 7.386719 164.84375 6.6875 164.378906 6.707031 164.230469 C 6.75 164.105469 6.476562 163.832031 6.117188 163.664062 C 5.355469 163.261719 5.375 163.09375 6.582031 160.859375 C 7.832031 158.5 7.617188 158.289062 5.777344 160.015625 Z M 5.503906 161.890625 C 4.742188 163.535156 4.71875 163.726562 5.394531 163.980469 C 5.691406 164.085938 5.925781 164.273438 5.925781 164.402344 C 5.925781 164.84375 5.3125 166.085938 5.101562 166.085938 C 4.929688 166.085938 3.40625 165.433594 2.792969 165.117188 C 2.75 165.097656 2.960938 164.589844 3.257812 164.019531 C 3.808594 162.945312 5.882812 160.289062 6.050781 160.460938 C 6.117188 160.5 5.863281 161.15625 5.503906 161.890625 Z M 7.046875 165.371094 C 7.175781 165.519531 6.558594 166.929688 6.371094 166.929688 C 6.304688 166.929688 6.117188 166.84375 5.945312 166.738281 C 5.691406 166.570312 5.691406 166.445312 5.925781 165.898438 C 6.160156 165.308594 6.707031 165.054688 7.046875 165.371094 Z M 3.722656 166.234375 C 4.402344 166.53125 4.847656 166.824219 4.71875 166.867188 C 4.488281 166.949219 2.328125 165.960938 2.328125 165.769531 C 2.328125 165.601562 2.414062 165.644531 3.722656 166.234375 Z M 8.210938 165.832031 C 8.613281 166.085938 8.125 167.351562 7.617188 167.351562 C 7.046875 167.351562 6.984375 167.121094 7.300781 166.339844 C 7.617188 165.644531 7.746094 165.558594 8.210938 165.832031 Z M 3.40625 167.140625 C 3.722656 167.332031 3.765625 167.457031 3.597656 167.773438 C 3.324219 168.257812 3.175781 168.300781 2.667969 167.921875 C 2.433594 167.75 2.347656 167.519531 2.453125 167.289062 C 2.601562 166.867188 2.816406 166.84375 3.40625 167.140625 Z M 18.179688 170.386719 C 18.496094 170.722656 18.328125 171.484375 17.882812 171.652344 C 17.734375 171.691406 16.441406 171.273438 15.027344 170.660156 C 12.570312 169.628906 12.464844 169.542969 12.589844 169.039062 C 12.867188 167.960938 13.015625 167.960938 15.511719 169.078125 C 16.824219 169.648438 18.007812 170.238281 18.179688 170.386719 Z M 2.816406 168.65625 C 3.46875 168.890625 3.511719 169.039062 3.070312 169.902344 C 2.75 170.511719 2.730469 170.511719 1.988281 170.195312 C 1.566406 170.027344 1.183594 169.878906 1.144531 169.878906 C 0.972656 169.878906 1.058594 169.25 1.3125 168.722656 C 1.480469 168.34375 1.671875 168.214844 1.882812 168.320312 C 2.074219 168.382812 2.476562 168.554688 2.816406 168.65625 Z M 2.816406 168.65625 "/>
<path style=" stroke:none;fill-rule:nonzero;fill:rgb(0%,0%,0%);fill-opacity:1;" d="M 13.585938 169.289062 C 13.734375 169.691406 14.390625 169.753906 14.390625 169.375 C 14.390625 169.164062 14.199219 169.039062 13.945312 169.039062 C 13.691406 169.039062 13.542969 169.144531 13.585938 169.289062 Z M 13.585938 169.289062 "/>
<path style=" stroke:none;fill-rule:nonzero;fill:rgb(0%,0%,0%);fill-opacity:1;" d="M 14.8125 169.753906 C 14.8125 170.070312 16.464844 170.933594 17.058594 170.933594 C 17.605469 170.933594 17.351562 170.511719 16.570312 170.113281 C 15.28125 169.480469 14.8125 169.375 14.8125 169.753906 Z M 14.8125 169.753906 "/>
</g>
</svg>
