<svg width="150" height="173" xmlns="http://www.w3.org/2000/svg">

 <g>
  <title>background</title>
  <rect fill="none" id="canvas_background" height="402" width="582" y="-1" x="-1"/>
 </g>
 <g>
  <title>Layer 1</title>
  <g id="surface1">
   <path id="svg_1" fill-rule="nonzero" fill="#2fd1e0" d="m88.05859,0.78125c-0.55078,1.15625 -2.35156,5.83594 -2.35156,6.04688c0,0.14843 0.40235,0.42187 0.91016,0.65234c0.74219,0.35937 0.91015,0.52734 0.95312,1.11719c0.04297,0.42187 -0.10547,0.94922 -0.35937,1.39453c-0.46485,0.73437 -0.57031,1.17969 -0.25391,1.17969c0.10547,0 0.44531,-0.50782 0.78125,-1.14063c0.59375,-1.13672 0.59375,-1.15625 0.25391,-1.89453c-0.21094,-0.42188 -0.67578,-0.90625 -1.07813,-1.11719c-0.63281,-0.3164 -0.69922,-0.44531 -0.55078,-0.86328c0.21094,-0.57031 0.50781,-0.59375 1.82031,-0.02344c2.4336,1.05469 3.02735,1.24219 3.02735,0.96875c0,-0.125 -0.97266,-0.63281 -2.13672,-1.09375c-1.1875,-0.44531 -2.05469,-0.86328 -1.92578,-0.90625c0.2539,-0.08593 5.54297,2.02344 5.85937,2.33985c0.14844,0.14453 0.06641,0.14453 -0.21093,0.03906c-0.84375,-0.3125 -1.16407,-0.35547 -1.16407,-0.16797c0,0.10547 0.23438,0.31641 0.53125,0.44531c0.55078,0.25 0.65625,0.56641 0.33594,1.05078c-0.125,0.23438 -0.35937,0.23438 -0.91016,0.08594c-0.92968,-0.2539 -1.73437,-0.10547 -2.17968,0.37891c-0.1875,0.21094 -0.52735,1.16015 -0.76172,2.1289c-0.50781,2.12891 -1.82031,4.91016 -2.70703,5.75391l-0.65625,0.63281l0,-1.20312c0,-0.80078 0.21093,-1.76953 0.63281,-2.92969c0.67969,-1.85156 0.72266,-2.0625 0.46875,-2.0625c-0.55078,0 -1.99219,5.16406 -1.67188,5.96484c0.69532,1.83204 3.34375,-1.77343 4.40235,-6.03125c0.54687,-2.23046 0.86719,-2.50781 2.45312,-2.08593c0.55078,0.14843 1.03516,0.1914 1.1211,0.10547c0.23437,-0.25 2.53906,-6.13282 2.53906,-6.44922c0,-0.16797 -1.35156,-0.82032 -3.34375,-1.58203c-1.83984,-0.71485 -3.40625,-1.30469 -3.46875,-1.30469c-0.04297,0 -0.23438,0.2539 -0.35938,0.57031zm0.82422,0.29297c0,0.12891 -0.08593,0.37891 -0.21093,0.58984c-0.59375,1.09766 -1.03907,2.55078 -0.78516,2.55078c0.12891,0 0.53125,-0.67578 0.84766,-1.47656c0.33984,-0.82031 0.69921,-1.47265 0.80468,-1.47265c0.25391,0 0.25391,0.10546 -0.10547,0.94921c-0.1914,0.46094 -0.23437,0.77735 -0.10546,0.86329c0.10546,0.0625 0.35937,-0.27344 0.55078,-0.73829c0.1875,-0.48437 0.42187,-0.86328 0.52734,-0.86328c0.23438,0 0.25391,-0.02343 -0.46484,1.6836c-0.71875,1.75 -0.69922,1.6875 -0.40235,1.6875c0.10547,0 0.35938,-0.35938 0.55078,-0.80078c0.16797,-0.42188 0.44532,-1.09766 0.61329,-1.4961c0.35937,-0.84375 0.67578,-0.71875 0.33984,0.125c-0.12891,0.31641 -0.27734,0.92969 -0.36328,1.32813c-0.10547,0.65234 -0.08203,0.69531 0.17187,0.35937c0.16797,-0.1914 0.40235,-0.35937 0.52735,-0.35937c0.1289,0 0.2539,-0.125 0.3164,-0.27344c0.04297,-0.125 0.14844,-0.19141 0.23438,-0.125c0.21094,0.1875 -0.10547,0.82031 -0.40235,0.82031c-0.29687,0 -0.65625,0.78125 -0.46484,0.99219c0.19141,0.16797 0.57031,-0.14844 0.57031,-0.48438c0,-0.17187 0.08594,-0.29687 0.17188,-0.29687c0.33594,0 0.67578,0.52734 0.67578,1.07422c0,0.40234 0.125,0.63281 0.42187,0.71875c0.23438,0.0625 0.42579,0.23047 0.42579,0.33594c0,0.10546 -0.32032,0.0625 -0.67969,-0.10547c-0.37891,-0.16797 -1.77735,-0.71485 -3.06641,-1.20313c-1.3125,-0.5039 -2.39062,-1.03125 -2.39062,-1.13672c0,-0.39843 1.35156,-3.47656 1.52343,-3.47656c0.08204,0 0.16797,0.10547 0.16797,0.23047zm4.91016,1.75l0.99219,0.44141l-0.57032,1.37109c-0.61328,1.43359 -1.14062,1.79297 -1.26953,0.84375c-0.04297,-0.29688 -0.1914,-0.65234 -0.3164,-0.80078c-0.12891,-0.16797 -0.23438,-0.58985 -0.23438,-0.94922c-0.01953,-0.57031 -0.10547,-0.67578 -0.48437,-0.65234c-0.55078,0.01953 -0.57422,0 -0.25391,-0.57032c0.23047,-0.46484 0.46484,-0.4414 2.13672,0.31641zm0,0"/>
   <path id="svg_2" fill-rule="nonzero" fill="#2fd1e0" d="m88.88281,3.6875c0,0.16797 0.10547,0.31641 0.21094,0.31641c0.12891,0 0.21094,-0.14844 0.21094,-0.31641c0,-0.16797 -0.08203,-0.31641 -0.21094,-0.31641c-0.10547,0 -0.21094,0.14844 -0.21094,0.31641zm0,0"/>
   <path id="svg_3" fill-rule="nonzero" fill="#2fd1e0" d="m86.76563,6.32422c0,0.10547 0.10546,0.21094 0.21093,0.21094c0.12891,0 0.21485,-0.10547 0.21485,-0.21094c0,-0.12891 -0.08594,-0.21094 -0.21485,-0.21094c-0.10547,0 -0.21093,0.08203 -0.21093,0.21094zm0,0"/>
   <path id="svg_4" fill-rule="nonzero" fill="#2fd1e0" d="m91.84375,8.42969c0,0.10547 0.10938,0.21094 0.21484,0.21094c0.125,0 0.21094,-0.10547 0.21094,-0.21094c0,-0.125 -0.08594,-0.21094 -0.21094,-0.21094c-0.10546,0 -0.21484,0.08594 -0.21484,0.21094zm0,0"/>
   <path id="svg_5" fill-rule="nonzero" fill="#2fd1e0" d="m85.83594,14.66797c-0.19141,0.46484 0.35937,1.03516 0.82422,0.84375c0.21093,-0.0625 0.3164,-0.31641 0.27734,-0.58984c-0.08594,-0.60938 -0.89062,-0.77735 -1.10156,-0.25391zm0,0"/>
   <path id="svg_6" fill-rule="nonzero" fill="#2fd1e0" d="m29.79688,18.25391c-0.97266,0.48437 -1.46094,0.86328 -1.54297,1.19922c-0.06641,0.2539 0.01953,1.64453 0.21093,3.09765c0.16797,1.45703 0.46485,3.85938 0.65625,5.375c0.16797,1.4961 0.50782,4.00781 0.73829,5.54297c0.59375,4.08984 0.57421,4.30078 -0.37891,4.78516c-0.57422,0.27343 -0.69922,0.42187 -0.44531,0.46484c0.1914,0.04297 1.03515,-0.25391 1.86328,-0.67578c0.84375,-0.42188 2.34765,-1.13672 3.36328,-1.57813c0.99609,-0.44531 3.49219,-1.58203 5.52344,-2.53125c2.03125,-0.94921 4.10547,-1.91796 4.61328,-2.1289c0.50781,-0.21094 0.84765,-0.48438 0.78515,-0.60938c-0.08593,-0.1289 -0.36328,-0.08593 -0.74218,0.10547c-0.33985,0.16797 -0.78125,0.31641 -0.97266,0.31641c-0.21094,0 -1.05859,-0.73828 -1.90625,-1.64453c-0.84766,-0.88672 -1.60937,-1.5625 -1.69141,-1.47657c-0.08593,0.10547 0,0.33594 0.19141,0.54688c0.21094,0.21094 0.35938,0.48437 0.35938,0.61328c0,0.10547 -0.78516,0.54688 -1.73829,0.96875l-1.73437,0.78125l-0.88672,-0.99219c-0.50781,-0.57031 -0.91016,-1.05468 -0.93359,-1.11718c0,-0.0625 0.78515,-0.46485 1.73437,-0.90625c1.54688,-0.69532 1.75781,-0.73829 2.07422,-0.46485c0.19141,0.16797 0.42578,0.31641 0.48828,0.31641c0.44531,0 -0.1289,-0.75781 -2.58203,-3.32813c-3.61719,-3.8164 -3.59766,-3.79297 -3.87109,-5.46093c-0.10547,-0.80079 -0.32032,-1.5586 -0.42578,-1.70704c-0.35938,-0.42187 -1.2461,-0.27343 -2.75,0.50782zm2.66796,1.05078c0.0625,0.63281 0.08204,1.24609 0.01954,1.35156c-0.14844,0.23047 -3.32422,1.70703 -3.42969,1.60156c-0.1875,-0.1914 -0.40235,-2.44531 -0.25391,-2.69922c0.21485,-0.33593 2.5,-1.39062 3.07031,-1.41015c0.37891,-0.02344 0.46485,0.125 0.59375,1.15625zm-1.33593,2.92969c-0.84375,0.40234 -1.67188,0.73828 -1.79688,0.73828c-0.33984,-0.01953 2.66406,-1.4336 3.04688,-1.45313c0.16797,0 -0.38282,0.31641 -1.25,0.71485zm1.71484,1.14062l0.0625,0.92578l-1.64844,0.73828c-1.82031,0.82422 -2.05468,0.75782 -2.05468,-0.46484l0,-0.60938l0.48828,0.44141c0.48828,0.44531 0.99609,0.61328 0.99609,0.31641c0,-0.08203 -0.21484,-0.35938 -0.46875,-0.63282c-0.25391,-0.27343 -0.42187,-0.52734 -0.35937,-0.5664c0.33984,-0.31641 2.64453,-1.32813 2.77343,-1.22266c0.08594,0.08203 0.16797,0.56641 0.21094,1.07422zm1.86328,0.01953l1.07813,1.2461l-0.84766,0.4414c-0.46484,0.23047 -0.92969,0.42188 -1.05469,0.42188c-0.10547,0 -0.2539,-0.58985 -0.33984,-1.32813c-0.0625,-0.71875 -0.19141,-1.47656 -0.23438,-1.6875c-0.21093,-0.67187 0.29688,-0.35937 1.39844,0.90625zm-1.48047,1.96094c0,0.54687 -0.93359,1.16016 -1.16406,0.78125c-0.08594,-0.12891 -0.21484,-0.21094 -0.33984,-0.21094c-0.38282,0 -0.16797,0.56641 0.44531,1.15625c0.35937,0.33985 0.63281,0.67578 0.63281,0.78125c0,0.16797 -2.76953,1.4961 -2.8789,1.3711c-0.03907,-0.04297 -0.16797,-0.65235 -0.25391,-1.39063c-0.21094,-1.47656 -0.31641,-1.32812 1.65234,-2.27734c1.67188,-0.80078 1.90625,-0.82032 1.90625,-0.21094zm3.97657,0.78125l0.91015,1.05078l-1.73437,0.84375c-2.03125,0.96875 -2.17969,0.92969 -2.41407,-0.77734l-0.14843,-1.09766l1.03906,-0.52734c0.55078,-0.29297 1.12109,-0.52735 1.22656,-0.54688c0.12891,0 0.61328,0.48438 1.1211,1.05469zm-3.76563,0.86328c0,0.50391 -0.25391,0.50391 -0.57031,0c-0.21485,-0.31641 -0.21485,-0.44141 0,-0.50781c0.3789,-0.125 0.57031,0.04297 0.57031,0.50781zm0.27344,2.67578c0.10547,0.61328 0.14844,1.2461 0.08594,1.3711c-0.12891,0.33593 -3.30079,1.72656 -3.47266,1.53906c-0.08203,-0.08594 -0.1875,-0.73828 -0.23047,-1.45703l-0.08594,-1.30469l1.46094,-0.67578c0.78125,-0.35547 1.58594,-0.65235 1.75781,-0.63281c0.21094,0.04296 0.37891,0.42187 0.48438,1.16015zm2.8789,2.04688c1.0586,1.15625 1.90625,2.14843 1.90625,2.21093c0,0.0625 -0.76171,0.46485 -1.67187,0.88672c-1.96875,0.90625 -1.69531,1.19922 -2.22266,-2.42578c-0.35937,-2.63281 -0.38281,-2.94922 -0.1289,-2.84375c0.10547,0.01953 1.05859,1.01172 2.11718,2.17188zm5.98829,0.33593c-0.08204,0.08204 -0.86719,0.48438 -1.75391,0.88282l-1.63281,0.73828l-0.91016,-0.92578l-0.91016,-0.90625l1.80079,-0.84375l1.77734,-0.84375l0.89062,0.88672c0.50782,0.46484 0.84375,0.92578 0.73829,1.01171zm-8.42188,0.65235c0.0625,0.50781 0.16797,1.41406 0.25391,2.02344l0.14843,1.09765l-1.77734,0.82031l-1.77734,0.82422l-0.17188,-0.78125c-0.08203,-0.42187 -0.1875,-1.34765 -0.21094,-2.08593l-0.04296,-1.32813l1.58984,-0.71875c0.86719,-0.39844 1.64844,-0.71484 1.71484,-0.71484c0.08203,-0.01953 0.1875,0.3789 0.27344,0.86328zm0,0"/>
   <path id="svg_7" fill-rule="nonzero" fill="#2fd1e0" d="m142.27734,28.45313c-1.20703,0.52734 -1.4414,1.01171 -0.99609,2.08593c0.23438,0.57032 0.27344,0.94922 0.125,1.20313c-0.29297,0.52734 -0.0625,1.11719 0.48828,1.26562c0.27344,0.0625 0.55078,0.23047 0.59375,0.35547c0.0625,0.14844 0.65625,1.58203 1.3125,3.20703c1.4375,3.53907 1.62891,3.76953 2.64453,3.58203c0.40235,-0.08593 0.65625,-0.0625 0.57032,0.04297c-0.27344,0.25 -3.40625,1.51563 -3.55469,1.41016c-0.08594,-0.04297 -0.78125,-1.09375 -1.58594,-2.33984c-1.90625,-3.05469 -1.90625,-3.03516 -2.5625,-2.73829c-0.44531,0.1875 -0.57031,0.16797 -0.86719,-0.23437l-0.35937,-0.46094l-3.38672,1.39063c-1.86328,0.77734 -3.51172,1.49609 -3.66016,1.62109c-0.17187,0.12891 -0.2539,0.52734 -0.21093,0.96875c0.03906,0.55078 0.21093,0.82422 0.63281,1.05469c0.53125,0.29687 0.67969,0.27344 2.32812,-0.37891c5.35547,-2.17187 5.29297,-2.14844 5.1836,-2.69531c-0.08203,-0.42188 0.32031,-0.91016 0.76172,-0.91016c0.04296,0 0.82812,1.1836 1.75781,2.63672c0.91015,1.45313 1.77734,2.63281 1.90625,2.63281c0.61328,0 4.21094,-1.66406 4.27344,-1.98046c0.04296,-0.1875 0.29687,-0.58985 0.59375,-0.86329c0.27343,-0.27343 0.50781,-0.58984 0.50781,-0.67578c0,-0.08203 -0.9961,-2.48437 -2.20313,-5.33203c-2.11328,-4.99609 -2.19922,-5.16406 -2.79297,-5.20703c-0.33593,-0.01953 -1.01562,0.12891 -1.5,0.35938zm2.17969,1.05468c0.88672,1.85547 0.88672,1.85547 -0.38281,2.40235c-1.77734,0.78125 -2.05078,0.84375 -2.22266,0.42187c-0.08203,-0.21094 0,-0.42187 0.21094,-0.54687c0.21484,-0.10547 0.35938,-0.42188 0.35938,-0.69532c0,-0.29687 0.17187,-0.61328 0.42578,-0.73828c0.57031,-0.29687 0.55078,-1.05468 -0.02344,-1.20312c-0.44141,-0.125 -0.44141,-0.125 0.04297,-0.39844c0.78515,-0.44531 1.10156,-0.27344 1.58984,0.75781zm-2.11719,0.19141c0.48438,-0.08594 0.50782,0.0625 0.0625,0.41797c-0.55078,0.44531 -0.82421,0.27734 -0.82421,-0.48438c0,-0.3164 0.0625,-0.33593 0.29687,-0.14453c0.16797,0.125 0.37891,0.23047 0.46484,0.21094zm3.21485,2.90625c0.53125,0.46484 0.86719,1.45312 0.44531,1.26562c-2.51953,-1.03125 -2.58203,-1.05468 -2.17969,-1.34765c0.52735,-0.38281 1.22657,-0.33985 1.73438,0.08203zm-0.55078,1.34766c1.14453,0.48828 1.67187,0.82421 1.84375,1.20312c0.14843,0.27344 0.1914,0.57031 0.14843,0.63281c-0.0664,0.0625 -0.59375,-0.08593 -1.1875,-0.33593c-0.61328,-0.25391 -1.09765,-0.35938 -1.18359,-0.23438c-0.10547,0.16797 1.12109,0.82422 2.51953,1.30859c0.50781,0.1875 0.88672,1.22266 0.52735,1.45313c-0.21094,0.125 -0.19141,0.25391 0.1289,0.48437c0.44141,0.33985 0.44141,0.35938 -0.23437,0.71875c-0.65625,0.33594 -2.32813,-0.40234 -2.60157,-1.16015c-0.1289,-0.31641 -0.1914,-0.61328 -0.14843,-0.65235c0.04297,-0.04296 0.52734,0.10547 1.05859,0.33594c0.63281,0.27344 1.03516,0.33594 1.12109,0.21094c0.16797,-0.27344 0.21094,-0.23047 -1.25,-0.82422c-1.33203,-0.52344 -1.96875,-1.19922 -1.73437,-1.875c0.0625,-0.25391 0,-0.48437 -0.17188,-0.58984c-0.27343,-0.14844 -0.78125,-0.94922 -0.78125,-1.19922c0,-0.23438 0.29688,-0.14844 1.94532,0.52344zm-6.64453,3.35156c0.1289,0.33984 0.1914,0.63281 0.14843,0.63281c-0.10547,0 -0.73828,-1.17969 -0.73828,-1.36719c0,-0.3164 0.40235,0.16797 0.58985,0.73438zm-0.80469,-0.01953c0.14844,0.35937 0.21484,0.73828 0.17187,0.88672c-0.04297,0.125 -1.33593,0.75781 -2.8789,1.36718c-2.3086,0.94922 -2.87891,1.11719 -3.23828,0.92969c-0.29688,-0.16797 -0.40235,-0.40234 -0.35938,-0.80078c0.0625,-0.50781 0.33984,-0.67578 2.92188,-1.75c1.5664,-0.67578 2.91796,-1.22266 2.98437,-1.22266c0.08203,-0.01953 0.25391,0.25391 0.39844,0.58985zm8.67969,2.33984c0,0.10547 -0.08594,0.21094 -0.19141,0.21094c-0.12891,0 -0.27734,-0.10547 -0.33984,-0.21094c-0.0625,-0.125 0.02343,-0.21094 0.1914,-0.21094c0.19141,0 0.33985,0.08594 0.33985,0.21094zm0,0"/>
   <path id="svg_8" fill-rule="nonzero" fill="#2fd1e0" d="m136.71094,37.72656c0,0.10547 0.10547,0.21094 0.21094,0.21094c0.125,0 0.21093,-0.10547 0.21093,-0.21094c0,-0.125 -0.08593,-0.21093 -0.21093,-0.21093c-0.10547,0 -0.21094,0.08593 -0.21094,0.21093zm0,0"/>
   <path id="svg_9" fill-rule="nonzero" fill="#2fd1e0" d="m135.44141,38.08594c-0.17188,0.0625 -0.78516,0.33594 -1.375,0.58984c-0.57422,0.25391 -1.27344,0.52735 -1.52735,0.61328c-0.48437,0.14453 -0.67578,0.54688 -0.29297,0.54688c0.40235,0 4.03907,-1.5586 4.03907,-1.73047c0,-0.1875 -0.35938,-0.1875 -0.84375,-0.01953zm0,0"/>
   <path id="svg_10" fill-rule="nonzero" fill="#2fd1e0" d="m77.64453,37.11719c-0.3789,0.71484 -2.9414,6.78515 -2.9414,6.97656c0,0.50391 0.48828,0.04297 0.84765,-0.78125c0.42188,-0.98828 0.61328,-1.09375 1.28906,-0.71484c0.46875,0.23047 0.44532,0.39843 -0.35937,2.1914c-0.48438,1.11719 -0.48438,1.13672 -1.14063,0.88672c-0.38281,-0.14844 -0.63671,-0.40234 -0.63671,-0.61328c0,-0.73828 -0.35938,-0.35937 -0.95313,0.99219c-0.40234,0.94531 -0.69531,1.36719 -0.94922,1.36719c-0.23437,0 -0.42578,0.21093 -0.50781,0.52734c-0.08594,0.29687 -0.23438,0.52734 -0.36328,0.52734c-0.125,0 -0.99219,-0.39843 -1.90235,-0.86328c-0.93359,-0.48437 -1.73437,-0.82422 -1.80078,-0.75781c-0.46484,0.46094 2.22266,2.84375 4.44532,3.96094c1.26953,0.63281 1.83984,0.80078 2.28515,0.71875c0.42578,-0.10547 0.63672,-0.04297 0.71875,0.1875c0.12891,0.33593 1.80078,1.17968 2.3086,1.17968c0.14843,0 0.44531,-0.4414 0.65625,-0.98828c0.23046,-0.57031 0.42187,-1.07812 0.46484,-1.16015c0.08594,-0.19141 -1.35547,-0.82422 -2.28516,-0.99219c-0.50781,-0.08203 -0.76172,-0.27344 -0.82422,-0.54688c-0.04296,-0.23046 -0.17187,-0.48437 -0.29687,-0.57031c-0.14844,-0.08203 0.55078,-1.95703 2.03125,-5.39453c1.25,-2.86719 2.26562,-5.375 2.26562,-5.5625c0,-0.94922 -1.88671,-1.41406 -2.35156,-0.57031zm1.69531,0.27344c0.1875,0.23046 0.03907,0.78125 -0.74218,2.57031c-0.55078,1.26562 -1.01563,2.32031 -1.0586,2.36328c-0.01953,0.03906 -0.33984,-0.08594 -0.69922,-0.25391l-0.63281,-0.33593l0.69922,-1.66797c0.40234,-0.90625 0.86719,-1.9375 1.05469,-2.31641c0.38281,-0.69531 0.97656,-0.86719 1.3789,-0.35937zm-3.875,8.85156c0.31641,0.2539 0.33985,0.35937 0.14844,0.57031c-0.33984,0.33594 -1.33203,-0.0625 -1.33203,-0.54687c0,-0.40235 0.63281,-0.40235 1.18359,-0.02344zm-0.40234,1.26562c0.48828,0.44141 0,0.78125 -0.73828,0.52735c-0.74219,-0.25391 -0.72266,-0.23438 -0.55078,-0.69532c0.14844,-0.3789 0.82422,-0.29687 1.28906,0.16797zm-3.51172,1.30469c0.82422,0.27734 0.84766,0.27734 1.07813,-0.23047c0.1289,-0.29297 0.29687,-0.52734 0.38281,-0.52734c0.44531,0 1.48047,0.50781 1.48047,0.69531c0,0.46484 -0.74219,2.04688 -0.95313,2.04688c-0.42187,0 -2.34765,-1.2461 -3.28125,-2.08985c-0.91015,-0.83984 -0.92968,-0.86328 -0.23047,-0.54687c0.37891,0.1914 1.07813,0.48437 1.52344,0.65234zm3.34375,1.37109c-0.27734,0.61329 -0.50781,1.01172 -0.55078,0.88672c-0.08594,-0.2539 0.78516,-2.23437 0.92969,-2.10937c0.04297,0.0625 -0.125,0.61328 -0.37891,1.22265zm1.26953,-0.04296c0.27344,0.17187 0.14844,1.07812 -0.14843,1.07812c-0.42188,-0.02344 -0.71875,-0.40234 -0.57032,-0.82422c0.14844,-0.48437 0.27344,-0.52734 0.71875,-0.2539zm2.01172,0.50781c0.35938,0.27344 0.35938,0.3164 0.03906,0.94922c-0.3789,0.73828 -0.48437,0.77734 -1.26953,0.46093c-0.54687,-0.1875 -0.54687,-0.21093 -0.1875,-0.94531c0.37891,-0.78125 0.80469,-0.92969 1.41797,-0.46484zm0,0"/>
   <path id="svg_11" fill-rule="nonzero" fill="#2fd1e0" d="m77.87891,38.92969c-0.57032,1.28515 -0.21094,1.72656 0.40234,0.52734c0.25391,-0.48437 0.44141,-1.01172 0.44141,-1.20312c0,-0.63282 -0.39844,-0.29297 -0.84375,0.67578zm0,0"/>
   <path id="svg_12" fill-rule="nonzero" fill="#2fd1e0" d="m77.11719,40.76172c-0.17188,0.46484 0.0625,0.69531 0.3789,0.37891c0.19141,-0.1875 0.19141,-0.31641 0,-0.50391c-0.1875,-0.19141 -0.27343,-0.14844 -0.3789,0.125zm0,0"/>
   <path id="svg_13" fill-rule="nonzero" fill="#2fd1e0" d="m84.96875,68.98438c-0.53125,0.50781 -0.95312,1.07421 -0.95312,1.26562c0,0.16797 0.23046,0.60938 0.52734,0.94922c0.32031,0.37891 0.53125,0.88281 0.53125,1.28516c0,0.63281 0.52734,1.13671 1.07812,1.03125c0.12891,-0.04297 1.3125,1.22265 2.60157,2.78125c1.3125,1.5625 2.54297,2.86718 2.7539,2.91015c0.1875,0.04297 0.58985,-0.08203 0.86719,-0.2539c1.05859,-0.69532 0.48438,0.04296 -0.95312,1.20312l-1.46094,1.19922l-2.45313,-2.10547l-2.47656,-2.10937l-0.59375,0.42187c-0.50781,0.35938 -0.61328,0.37891 -0.84375,0.10547c-0.14844,-0.16797 -0.33984,-0.31641 -0.44531,-0.31641c-0.10547,0 -1.48047,1.05469 -3.04688,2.32032c-2.64843,2.17187 -2.85937,2.38281 -2.85937,3.05468c0,0.75782 0.59375,1.3711 1.29297,1.3711c0.3164,0 5.90234,-4.34375 6.19922,-4.82813c0.0625,-0.10547 -0.01954,-0.29297 -0.19141,-0.4414c-0.42188,-0.33594 -0.40234,-0.48438 0.10547,-0.80079c0.38281,-0.23046 0.65625,-0.0625 2.7539,1.75c1.28907,1.09375 2.45313,2 2.5586,2c0.1289,0 0.99609,-0.63281 1.92578,-1.41015c1.22656,-1.01172 1.65234,-1.4961 1.58984,-1.76953c-0.0664,-0.21094 0.01953,-0.48438 0.16797,-0.61328c0.44531,-0.37891 0.50781,-0.98829 0.125,-1.51563c-0.1875,-0.29687 -1.79687,-2.29687 -3.59765,-4.44922c-2.51563,-3.05469 -3.36329,-3.9414 -3.74219,-3.9414c-0.29688,0 -0.89063,0.3789 -1.46094,0.90625zm2.24219,0.1914c0.35937,0.37891 0.82422,0.94922 1.05859,1.26172l0.40235,0.55078l-1.20704,0.96875c-0.67578,0.52735 -1.39843,0.96875 -1.58593,0.96875c-0.42578,0 -0.50782,-0.52734 -0.14844,-0.75781c0.125,-0.0625 0.1875,-0.37891 0.125,-0.69531c-0.0625,-0.33594 0.02344,-0.69532 0.23437,-0.92969c0.44532,-0.50391 0.08204,-1.11719 -0.59375,-1.03125c-0.46484,0.08594 -0.46484,0.04297 0.12891,-0.46484c0.33594,-0.29297 0.69531,-0.54688 0.78125,-0.54688c0.08594,0 0.46484,0.31641 0.80469,0.67578zm-1.62891,1.28516c-0.21094,0.2539 -0.42578,0.5039 -0.46484,0.57031c-0.08594,0.125 -0.46875,-0.46484 -0.46875,-0.73828c0,-0.12891 0.29687,-0.23438 0.65625,-0.25391l0.67969,-0.04297l-0.40235,0.46485zm4.1875,1.76953c0.74219,0.65234 0.48828,0.88672 -0.92969,0.75781c-0.74218,-0.0625 -1.375,-0.16797 -1.4375,-0.21094c-0.0664,-0.0625 0.125,-0.27343 0.40235,-0.5039c0.61328,-0.48438 1.4375,-0.50781 1.96484,-0.04297zm0.51172,1.32812c0.44141,0 1.35156,0.71485 1.35156,1.07422c0,0.08594 -0.57031,0.10547 -1.26953,0.04297c-0.78125,-0.08594 -1.26953,-0.04297 -1.26953,0.08594c0,0.23047 1.16406,0.48437 2.34766,0.48437c0.97656,0 1.88672,0.86329 1.46093,1.36719c-0.21093,0.27735 -0.1875,0.31641 0.19141,0.31641c0.57031,0 0.57031,0.55078 0,0.86719c-0.92969,0.48437 -3.15234,-0.17188 -3.15234,-0.90625c0,-0.12891 0.48437,-0.17188 1.10156,-0.12891c1.75391,0.10547 1.5,-0.37891 -0.29688,-0.52734c-1.25,-0.10547 -1.58984,-0.21094 -1.90625,-0.60938c-0.21093,-0.27344 -0.33984,-0.61328 -0.27343,-0.75781c0.0625,-0.14844 -0.06641,-0.33985 -0.27735,-0.40235c-0.48437,-0.16796 -1.09765,-0.71484 -1.09765,-0.96875c0,-0.1289 0.48437,-0.14843 1.28906,-0.0625c0.71875,0.0625 1.52344,0.125 1.80078,0.125zm-6.45703,5.10157l0.46484,0.69531l-0.65625,-0.61328c-0.71875,-0.67188 -0.78125,-0.75781 -0.48437,-0.75781c0.10547,0 0.42187,0.3164 0.67578,0.67578zm-0.67578,0.29297c0.23047,0.3164 0.3789,0.63281 0.3164,0.73828c-0.0625,0.10547 -1.16406,1.05468 -2.43359,2.08593c-1.94531,1.58204 -2.39062,1.85547 -2.79297,1.70704c-0.27734,-0.10547 -0.48828,-0.37891 -0.53125,-0.69532c-0.0625,-0.4414 0.32031,-0.82031 2.3086,-2.44531c1.28906,-1.07422 2.43359,-1.9375 2.53906,-1.9375c0.08594,0 0.35937,0.25391 0.59375,0.54688zm8.80469,-0.33594c-0.06641,0.10547 -0.25782,0.14844 -0.42579,0.0625c-0.44531,-0.14844 -0.40234,-0.27344 0.12891,-0.27344c0.23047,0 0.37891,0.08594 0.29688,0.21094zm0,0"/>
   <path id="svg_14" fill-rule="nonzero" fill="#2fd1e0" d="m82.32031,79.46094c0,0.10547 0.10938,0.21094 0.21485,0.21094c0.125,0 0.21093,-0.10547 0.21093,-0.21094c0,-0.12891 -0.08593,-0.21094 -0.21093,-0.21094c-0.10547,0 -0.21485,0.08203 -0.21485,0.21094zm0,0"/>
   <path id="svg_15" fill-rule="nonzero" fill="#2fd1e0" d="m80.16406,81c-1.375,1.11719 -1.98828,1.83203 -1.54687,1.83203c0.29687,0 3.47265,-2.80078 3.36719,-2.97265c-0.14844,-0.25 0.04296,-0.35547 -1.82032,1.14062zm0,0"/>
   <path id="svg_16" fill-rule="nonzero" fill="#2fd1e0" d="m23.38281,71.9375c-5.12109,3.70703 -5.16015,3.79297 -3.80859,5.37109c0.86719,1.01172 1.33594,1.09766 2.28516,0.42188c0.35937,-0.25 0.89062,-0.44141 1.16406,-0.42188c0.63672,0.04297 1.10156,-0.29296 1.10156,-0.82031c0,-0.23047 1.05859,-1.13672 3.02734,-2.57031c3.04688,-2.21484 3.46875,-2.71875 2.87891,-3.4375c-0.12891,-0.16797 -0.19141,-0.37891 -0.10937,-0.46094c0.08593,-0.08594 0.23437,0 0.33984,0.16797c0.10547,0.16797 0.57031,0.82031 1.03906,1.45313c0.48438,0.63281 0.86719,1.24218 0.86719,1.37109c0,0.125 -0.97266,1.19922 -2.16016,2.40234l-2.17968,2.14844l0.38281,0.65234c0.33594,0.61329 0.33594,0.67579 0.01953,0.92969c-0.21094,0.14844 -0.31641,0.39844 -0.23438,0.58985c0.06641,0.1914 1.10157,1.62109 2.28907,3.20312c1.79687,2.40234 2.24218,2.84766 2.70703,2.84766c0.29687,0 0.65625,-0.08594 0.78515,-0.17188c0.27344,-0.16797 0.71875,-0.96875 0.71875,-1.26172c0,-0.17187 -3.91796,-5.64843 -4.44531,-6.21875c-0.08594,-0.10547 -0.35937,-0.0625 -0.61328,0.10547c-0.40234,0.23047 -0.50781,0.23047 -0.76172,-0.125c-0.29687,-0.38281 -0.14844,-0.57031 1.86328,-2.59375c1.1836,-1.20312 2.17969,-2.27734 2.21875,-2.38281c0.04297,-0.10547 -0.57031,-1.05469 -1.33203,-2.10547c-1.05859,-1.43359 -1.48047,-1.85547 -1.6914,-1.6875c-0.17188,0.14844 -0.35938,0.08203 -0.63672,-0.21094c-0.21094,-0.23047 -0.58985,-0.42187 -0.82422,-0.42187c-0.25391,0 -2.4336,1.45312 -4.89063,3.22656zm5.46094,-2.32031c0.59375,0.88672 -0.10547,3.05469 -0.99219,3.09765c-0.10937,0 -0.1289,-0.46484 -0.0664,-1.05468c0.0664,-0.56641 0.04297,-1.09375 -0.0625,-1.15625c-0.21094,-0.12891 -0.33985,0.27343 -0.52735,1.74609c-0.14843,1.18359 -0.86718,2.04688 -1.5039,1.79297c-0.21094,-0.08203 -0.35938,0.04297 -0.44532,0.31641c-0.0625,0.2539 -0.33593,0.58984 -0.61328,0.78125c-0.48828,0.3164 -0.50781,0.3164 -0.50781,-0.23438c0,-0.31641 0.10547,-1.17969 0.25391,-1.91797c0.1914,-1.01172 0.38281,-1.45312 0.76172,-1.76953c0.29687,-0.23047 0.57031,-0.35937 0.61328,-0.31641c0.04297,0.04297 0,0.58985 -0.10547,1.20313c-0.125,0.63281 -0.16797,1.19922 -0.10547,1.30469c0.23437,0.3789 0.44531,-0.14844 0.59375,-1.45313c0.10547,-1.11719 0.25391,-1.49609 0.67578,-1.89844c0.44531,-0.39843 0.61328,-0.46093 0.84766,-0.25c0.23047,0.1875 0.3164,0.14454 0.42187,-0.21093c0.14844,-0.58985 0.35938,-0.58985 0.76172,0.01953zm0.99609,1.51953c0,0.16797 -0.08593,0.3125 -0.21093,0.3125c-0.10547,0 -0.21485,-0.14453 -0.21485,-0.3125c0,-0.17188 0.10938,-0.31641 0.21485,-0.31641c0.125,0 0.21093,0.14453 0.21093,0.31641zm-6.03125,2.46484c-0.08593,0.73828 -0.1914,1.3711 -0.2539,1.4336c-0.17188,0.16797 -0.91016,-0.86328 -0.91016,-1.26563c0,-0.42187 0.78125,-1.47656 1.10156,-1.47656c0.125,0 0.14454,0.46484 0.0625,1.30859zm-1.05859,1.4336c0.57031,0.73828 0.92969,1.41015 0.86719,1.57812c-0.125,0.35938 -0.46485,0.42188 -0.65625,0.10547c-0.0625,-0.125 -0.42188,-0.21094 -0.78125,-0.21094c-0.35938,0 -0.84766,-0.14453 -1.0586,-0.33593c-0.29687,-0.29297 -0.42578,-0.29297 -0.69921,-0.08204c-0.16797,0.14454 -0.31641,0.39844 -0.31641,0.58985c0,0.27344 -0.06641,0.25 -0.42578,-0.06641c-0.67578,-0.60937 -0.50781,-1.07422 0.78515,-1.98047c0.65625,-0.48437 1.22657,-0.86328 1.2461,-0.86328c0.04297,0 0.50781,0.57031 1.03906,1.26563zm-1.50391,1.78906c0.33985,0.25391 0.35938,0.35937 0.12891,0.63281c-0.42578,0.52735 -0.78516,0.37891 -0.76172,-0.3164c0.01953,-0.71485 0.0625,-0.73829 0.63281,-0.31641zm8.38282,2.12891c-0.17188,0.17187 -0.48828,0.42187 -0.72266,0.52734c-0.31641,0.14844 -0.27344,0.0625 0.14844,-0.31641c0.65625,-0.60937 0.99609,-0.73828 0.57422,-0.21093zm2.49609,2.69921c0.95313,1.32813 1.73438,2.59375 1.73438,2.82422c0,0.58985 -0.55079,0.99219 -1.0586,0.75782c-0.40234,-0.1875 -3.80859,-4.63672 -3.80859,-4.9961c0,-0.23047 0.89062,-0.96875 1.16406,-0.96875c0.12891,0 0.99609,1.07422 1.96875,2.38281zm0,0"/>
   <path id="svg_17" fill-rule="nonzero" fill="#2fd1e0" d="m29.75391,80.05078c-0.0625,0.125 -0.01953,0.29297 0.10547,0.35938c0.32031,0.21093 0.53125,-0.06641 0.2539,-0.33985c-0.14844,-0.14453 -0.27344,-0.14453 -0.35937,-0.01953zm0,0"/>
   <path id="svg_18" fill-rule="nonzero" fill="#2fd1e0" d="m30.32422,81.01953c0.27734,0.69531 2.51953,3.5 2.71094,3.3711c0.125,-0.0625 0,-0.39844 -0.29688,-0.77735c-0.27344,-0.3789 -0.86719,-1.17969 -1.3125,-1.79297c-0.78125,-1.03125 -1.35547,-1.45312 -1.10156,-0.80078zm0,0"/>
   <path id="svg_19" fill-rule="nonzero" fill="#2fd1e0" d="m120.4375,88.82031c-0.14844,0.65235 -0.25391,1.24219 -0.23437,1.32422c0.01953,0.25391 1.5039,0.71875 2.43359,0.76172c0.69922,0.03906 0.86719,0.125 0.91016,0.50391c0.04296,0.27343 0.21093,0.48437 0.38281,0.48437c0.16797,0 0.29297,0.0625 0.29297,0.14844c-0.01953,0.10547 -0.76172,2.78125 -1.69141,5.96484c-1.82031,6.36719 -1.82031,6.42969 -0.44531,6.82813c1.07812,0.3164 1.35547,-0.16797 2.53906,-4.42578c0.59375,-2.08594 1.08203,-3.87891 1.08203,-3.94141c0,-0.08203 -0.1289,-0.14844 -0.29687,-0.14844c-0.19141,0 -0.40235,0.42188 -0.55078,1.05469c-0.14844,0.58984 -0.31641,1.09766 -0.40235,1.14063c-0.29687,0.1875 -1.29297,-0.14844 -1.29297,-0.46485c0,-0.67578 0.89063,-3.20312 1.125,-3.20312c0.58985,0 1.20313,0.27343 1.20313,0.54687c0,0.14844 0.08594,0.31641 0.1914,0.37891c0.10547,0.08594 0.40235,-0.58985 0.67969,-1.45313c0.25391,-0.88672 0.57031,-1.58203 0.71875,-1.58203c0.14844,0 0.37891,-0.29297 0.50781,-0.63281c0.10547,-0.35547 0.25391,-0.63281 0.29688,-0.63281c0.1875,0 3.10937,1.03515 3.53125,1.26562c0.29687,0.14844 0.55078,0.16797 0.67969,0.04297c0.125,-0.125 -0.17188,-0.52734 -0.82813,-1.09766c-2.05078,-1.78906 -5.98828,-3.51953 -6.83203,-2.99218c-0.42578,0.2539 -1.05859,0.14843 -1.05859,-0.1875c0,-0.14844 -0.50782,-0.33985 -2.14063,-0.71875c-0.50781,-0.125 -0.54687,-0.0625 -0.80078,1.03515zm1.73438,-0.3164c0.50781,0.1875 0.52734,0.25 0.3164,1.07422c-0.21094,0.82031 -0.2539,0.86328 -0.88672,0.71484c-0.93359,-0.1875 -0.99609,-0.31641 -0.72265,-1.19922c0.2539,-0.82422 0.44531,-0.90625 1.29297,-0.58984zm1.58593,0.83984c0.17188,0.08594 0.25391,0.40234 0.21094,0.67578c-0.03906,0.37891 -0.16797,0.48438 -0.48437,0.44141c-0.57422,-0.10547 -0.59375,-0.14453 -0.44532,-0.77735c0.14844,-0.57031 0.27344,-0.63281 0.71875,-0.33984zm1.20703,0.48828c-0.21093,0.94531 -0.52734,1.72656 -0.63671,1.60156c-0.125,-0.1289 0.50781,-2.27734 0.65625,-2.27734c0.0664,0 0.04296,0.31641 -0.01954,0.67578zm2.47657,0.01953c1.35547,0.60938 3.0039,1.6211 2.85547,1.75c-0.0625,0.0625 -0.61329,-0.04297 -1.22657,-0.21093c-1.48047,-0.44532 -1.65234,-0.42188 -1.88281,0.21093c-0.19141,0.50391 -0.29687,0.54688 -1.01562,0.39844c-0.42579,-0.0625 -0.84766,-0.21094 -0.95313,-0.29297c-0.25391,-0.2539 0.46484,-2.33984 0.80469,-2.33984c0.16797,0 0.80469,0.23047 1.41797,0.48437zm-1.35547,3.09766c0.0625,0.42187 0.02344,0.46484 -0.42188,0.35937c-0.2539,-0.08593 -0.61328,-0.14843 -0.74218,-0.14843c-0.27344,0 -0.37891,-0.67578 -0.14844,-0.88672c0.27734,-0.29297 1.25,0.1914 1.3125,0.67578zm-0.71875,0.75781c0.1914,0.06641 0.33984,0.31641 0.33984,0.55078c0,0.37891 -0.08594,0.42188 -0.67969,0.29297c-0.80468,-0.16797 -0.88671,-0.23047 -0.73828,-0.65234c0.14844,-0.33594 0.52735,-0.40235 1.07813,-0.19141zm-1.48047,5.26953c0.46484,0.16797 0.42187,0.50782 -0.33984,3.07813c-0.63672,2.1914 -0.67579,2.27734 -1.25,2.27734c-0.31641,0 -0.65625,-0.10547 -0.71875,-0.23437c-0.08594,-0.125 0.16796,-1.34766 0.55078,-2.73828c0.74218,-2.57032 0.84765,-2.71875 1.75781,-2.38282zm0,0"/>
   <path id="svg_20" fill-rule="nonzero" fill="#2fd1e0" d="m123.08203,99.83984c-0.2539,0.25391 -0.1289,0.69922 0.19141,0.69922c0.16797,0 0.3164,-0.1289 0.3164,-0.29687c0,-0.35938 -0.29687,-0.58985 -0.50781,-0.40235zm0,0"/>
   <path id="svg_21" fill-rule="nonzero" fill="#2fd1e0" d="m122.63672,101.21094c-0.14844,0.50781 -0.52734,1.96094 -0.52734,2.10937c0,0.10547 0.125,0.16797 0.29296,0.16797c0.27735,0 0.76172,-1.41406 0.76172,-2.1914c0,-0.40235 -0.39843,-0.44532 -0.52734,-0.08594zm0,0"/>
   <path id="svg_22" fill-rule="nonzero" fill="#2fd1e0" d="m37.28906,104.58594c-0.59375,0.60937 -1.75781,1.9375 -2.625,2.92969c-4.14843,4.84765 -7.80859,9.03906 -7.91406,9.03906c-0.0625,0 -0.40234,-0.14453 -0.74219,-0.33594c-0.65625,-0.31641 -1.07812,-0.25391 -0.69922,0.10547c0.10938,0.10547 0.67969,0.37891 1.25,0.60937c0.59375,0.23438 2.05469,0.84375 3.28125,1.3711c3.66016,1.55859 7.85157,3.30859 9.20313,3.85937c1.48437,0.60938 2.30859,0.56641 1.05859,-0.04297c-0.94922,-0.46484 -0.92968,-0.42187 -0.67578,-3.20312c0.12891,-1.22266 0.10547,-1.53906 -0.10547,-1.47656c-0.14843,0.0625 -0.29687,0.3164 -0.33984,0.57031c-0.08203,0.56641 -0.40234,0.52344 -2.26172,-0.31641l-1.23047,-0.57031l0.12891,-1.24219c0.0625,-0.69531 0.14844,-1.28906 0.1914,-1.35156c0.0625,-0.03906 0.82422,0.23438 1.71094,0.61328c1.33594,0.54688 1.63281,0.75781 1.63281,1.13672c0,0.27344 0.08204,0.48438 0.21094,0.48438c0.27344,0 0.37891,-0.58985 0.52735,-2.73829c0.0625,-0.99218 0.21093,-2.59375 0.3164,-3.58203c0.10938,-0.99218 0.21485,-1.96093 0.21485,-2.15234c0,-0.21094 0.42187,-0.84375 0.94921,-1.43359c1.39844,-1.5586 1.3125,-1.9375 -0.61328,-2.80079c-1.82031,-0.84375 -2.22265,-0.76171 -3.46875,0.52735zm3.02735,-0.08594c0.80078,0.31641 1.48047,0.67578 1.52343,0.80078c0.03907,0.10547 -0.29687,0.60938 -0.74218,1.13672l-0.82422,0.92969l-1.56641,-0.65625c-0.84765,-0.35547 -1.58984,-0.75781 -1.6289,-0.86328c-0.06641,-0.23047 1.375,-1.9375 1.64843,-1.9375c0.08594,0 0.80469,0.27343 1.58985,0.58984zm-2.17969,2.50781c0.80078,0.29688 1.41797,0.58985 1.375,0.63282c-0.08594,0.0625 -2.94141,-0.94922 -3.08984,-1.11719c-0.21094,-0.21094 0.40234,-0.04297 1.71484,0.48437zm-2.28906,0.82032c-0.10547,0.61328 -0.08203,0.76171 0.14843,0.67578c0.17188,-0.04297 0.32032,-0.35938 0.35938,-0.65235c0.04297,-0.3164 0.14844,-0.57031 0.25391,-0.57031c0.46875,0 2.54296,0.92969 2.54296,1.14063c0,0.125 -0.2539,0.5039 -0.53125,0.82031l-0.52734,0.58984l-1.69531,-0.67578c-0.92969,-0.35547 -1.69141,-0.71484 -1.69141,-0.77734c0,-0.12891 1.10156,-1.3086 1.20703,-1.3086c0.04297,0 0.01953,0.33985 -0.0664,0.75782zm3.83203,2.74218c-0.0625,0.73828 -0.23438,1.34766 -0.33985,1.34766c-0.3164,0 -1.67187,-0.58984 -1.67187,-0.73828c0,-0.29297 2.01172,-2.42188 2.07422,-2.21094c0.04297,0.125 0.02344,0.84375 -0.0625,1.60156zm-3.21485,-0.86328c1.05469,0.44141 1.20313,0.58985 0.99219,0.84375c-0.3789,0.44141 -0.99219,0.39844 -1.26953,-0.10547c-0.33984,-0.63281 -0.63281,-0.50781 -0.63281,0.29297c0,1.34766 -0.08594,1.41406 -1.60938,0.80078c-0.74218,-0.29297 -1.35547,-0.58984 -1.35547,-0.67578c0,-0.0625 0.33985,-0.54687 0.78516,-1.03125c0.86719,-1.03125 1.05469,-1.03125 3.08984,-0.125zm0.14454,1.76953c0,0.10547 -0.14454,0.29297 -0.31641,0.44141c-0.27344,0.21094 -0.31641,0.19141 -0.31641,-0.1875c0,-0.25391 0.125,-0.44531 0.31641,-0.44531c0.17187,0 0.31641,0.08593 0.31641,0.1914zm-2.64454,0.63282c0.76172,0.35937 1.375,0.69531 1.375,0.80078c0,0.08203 -0.3789,0.57031 -0.84375,1.05468l-0.84765,0.88282l-0.91016,-0.39844c-0.48828,-0.21094 -1.26953,-0.52734 -1.71484,-0.71875l-0.84375,-0.35547l0.92969,-0.92969c0.50781,-0.52734 1.05859,-0.94922 1.20703,-0.94922c0.16797,0 0.91015,0.27344 1.64843,0.61329zm4.55079,0.08203l0.95312,0.46484l-0.0625,1.16016c-0.04297,0.63281 -0.14844,1.22265 -0.21484,1.30468c-0.1875,0.19141 -3.23438,-1.11718 -3.36328,-1.43359c-0.10547,-0.3125 1.16406,-1.98047 1.5039,-1.98047c0.125,0.02344 0.65625,0.23438 1.1836,0.48438zm-6.87891,2.36328l1.62891,0.73828l-0.44141,0.56641c-0.23438,0.33984 -0.78516,0.99218 -1.23047,1.47656l-0.80078,0.86328l-1.63281,-0.63281c-0.90625,-0.35547 -1.64844,-0.73828 -1.64844,-0.82032c0,-0.16796 2.28516,-2.92968 2.43359,-2.92968c0.04297,0 0.80469,0.33593 1.69141,0.73828zm3.57812,0.14453c-0.04296,0.38281 -0.1914,1.64453 -0.29687,2.78516c-0.125,1.15625 -0.27344,2.14843 -0.31641,2.21093c-0.17187,0.14844 -3.07031,-1.07422 -3.07031,-1.30468c0,-0.23438 3.42969,-4.34375 3.64063,-4.36329c0.08593,0 0.10546,0.31641 0.04296,0.67188zm2.07422,3.77344l1.62891,0.67578l-0.12891,1.07422c-0.0625,0.58984 -0.14453,1.11718 -0.21093,1.16015c-0.04297,0.0625 -0.76172,-0.1914 -1.60547,-0.52734l-1.52735,-0.63281l-0.0625,-1.19922c-0.04297,-0.65625 0.02344,-1.20313 0.10547,-1.20313c0.08594,0 0.91016,0.29688 1.80078,0.65235zm0,0"/>
   <path id="svg_23" fill-rule="nonzero" fill="#2fd1e0" d="m83.37891,122.28906c-1.33203,1.39063 -2.45313,2.63282 -2.4961,2.80469c-0.04297,0.14453 0.21094,0.48438 0.53125,0.73438c0.31641,0.2539 1.45703,1.30859 2.51563,2.33984c1.05859,1.03516 2.01172,1.87891 2.09765,1.87891c0.08204,0 0.48438,-0.27735 0.88672,-0.63282c1.14453,-1.01172 1.80078,-0.84375 2.96485,0.73828c0.2539,0.35547 0.52734,0.56641 0.61328,0.48438c0.1875,-0.19141 -0.91016,-1.8125 -1.41797,-2.08984c-0.67969,-0.35547 -1.60938,-0.21094 -2.28516,0.33984c-0.55078,0.48437 -0.69922,0.50391 -1.05859,0.27344c-0.25391,-0.14844 -0.44531,-0.35938 -0.44531,-0.48438c0,-0.10547 0.74218,-0.92969 1.6289,-1.83594c0.89063,-0.90625 1.56641,-1.70703 1.46094,-1.78906c-0.08594,-0.08594 -0.86719,0.56641 -1.75781,1.47266c-0.88672,0.90625 -1.62891,1.60547 -1.67188,1.5625c-0.04297,-0.04297 0.89063,-1.07422 2.07422,-2.32031c1.16406,-1.24219 2.17969,-2.21094 2.24219,-2.14844c0.06641,0.0625 -0.0625,0.29297 -0.27344,0.52734c-0.55078,0.58985 -0.21094,0.80078 0.38281,0.25c0.48438,-0.46094 0.50782,-0.46094 0.86719,-0.0625c0.33594,0.37891 0.33594,0.44531 -0.1914,1.17969c-0.95313,1.41406 -0.65625,2.10937 1.4375,3.52344c0.72265,0.48437 1.80078,1.36718 2.39453,1.9375c1.09765,1.09765 2.28515,2.91015 2.15625,3.28906c-0.125,0.35547 -2.13672,-0.73828 -3.61719,-2.00391c-1.65234,-1.41015 -2.24609,-1.37109 -0.67969,0.04297c1.58985,1.45313 3.15625,2.42188 3.95703,2.44531c1.0586,0.0625 1.0586,-0.71875 -0.01953,-2.29687c-1.03515,-1.53906 -1.86328,-2.33984 -3.85156,-3.75391c-1.90625,-1.34765 -2.16016,-1.91797 -1.22656,-2.94922c0.33593,-0.40234 0.61328,-0.80078 0.61328,-0.92968c0,-0.23047 -5.0586,-5.1211 -5.26953,-5.07813c-0.0625,0 -1.22657,1.16016 -2.5625,2.55078zm4.74218,0.10547c0.23438,0.44141 -0.2539,0.73828 -0.76171,0.46485c-0.21094,-0.12891 -0.57032,-0.14844 -0.80469,-0.08594c-0.23438,0.0625 -0.61328,0.01953 -0.86719,-0.125c-0.40234,-0.21094 -0.53125,-0.19141 -0.82422,0.1875c-0.27734,0.33984 -0.42578,0.3789 -0.61719,0.1914c-0.3789,-0.3789 -0.27343,-0.61328 0.76563,-1.66406l0.97266,-0.99219l0.97265,0.84375c0.52735,0.48438 1.0586,1.01172 1.16406,1.17969zm-0.84765,2.42188c-2.39063,2.46875 -2.85547,2.91015 -3.02735,2.91015c-0.08203,0 -0.76171,-0.60937 -1.5,-1.37109c-1.60937,-1.62109 -1.39843,-1.83203 0.31641,-0.29297c1.58594,1.45313 1.82031,1.11719 0.25391,-0.37891c-1.3125,-1.26562 -1.48047,-1.75 -0.27344,-0.82421c0.92969,0.69531 1.20312,0.35937 0.31641,-0.37891c-0.35938,-0.31641 -0.61329,-0.63281 -0.52735,-0.69531c0.08203,-0.08594 0.63281,0.35937 1.2461,0.94922c1.01562,0.98828 1.6289,1.34765 1.6289,0.92578c0,-0.08203 -0.55078,-0.63282 -1.20312,-1.24219c-0.67969,-0.58984 -1.16407,-1.16016 -1.0586,-1.24219c0.08203,-0.08594 0.42188,0.10547 0.73828,0.39844c0.33985,0.31641 0.67969,0.57031 0.76172,0.57031c0.10547,0 0.32032,0.16797 0.46485,0.35547c0.33984,0.46484 0.38281,0.10547 0.08593,-0.69531c-0.2539,-0.62891 -0.16796,-0.83985 0.25391,-0.58985c0.48828,0.31641 2.45703,0.27344 2.73047,-0.03906c0.14844,-0.17187 0.29687,-0.2539 0.35937,-0.1914c0.0625,0.0625 -0.63281,0.88671 -1.5664,1.83203zm0,0"/>
   <path id="svg_24" fill-rule="nonzero" fill="#2fd1e0" d="m85.91797,123.89063c0,0.27343 0.48828,0.67578 0.82812,0.67578c0.23047,0 0.21094,-0.08594 -0.08593,-0.42188c-0.40235,-0.44531 -0.74219,-0.55078 -0.74219,-0.2539zm0,0"/>
   <path id="svg_25" fill-rule="nonzero" fill="#2fd1e0" d="m84.14063,125.59766c-0.08204,0.10547 -0.03907,0.2539 0.0664,0.3164c0.10547,0.08594 0.25391,0.04297 0.31641,-0.0625c0.08594,-0.10547 0.04297,-0.2539 -0.0625,-0.3164c-0.10547,-0.08594 -0.25391,-0.04297 -0.32031,0.0625zm0,0"/>
   <path id="svg_26" fill-rule="nonzero" fill="#2fd1e0" d="m85.91797,128.69531c0,0.16797 0.10937,0.25391 0.21484,0.19141c0.125,-0.0625 0.21094,-0.21094 0.21094,-0.33984c0,-0.10547 -0.08594,-0.1875 -0.21094,-0.1875c-0.10547,0 -0.21484,0.14843 -0.21484,0.33593zm0,0"/>
   <path id="svg_27" fill-rule="nonzero" fill="#2fd1e0" d="m93.41016,132.02734c-0.21094,0.54688 0.08593,1.01172 0.59375,0.92579c0.35937,-0.04297 0.48828,-0.21094 0.48828,-0.58985c0,-0.3789 -0.12891,-0.54687 -0.48828,-0.58984c-0.27344,-0.04297 -0.52735,0.0625 -0.59375,0.2539zm0.76172,0.21094c0,0.0625 -0.08204,0.16797 -0.21094,0.23047c-0.10547,0.0625 -0.21094,0.01953 -0.21094,-0.08594c0,-0.125 0.10547,-0.23047 0.21094,-0.23047c0.1289,0 0.21094,0.04297 0.21094,0.08594zm0,0"/>
   <path id="svg_28" fill-rule="nonzero" fill="#2fd1e0" d="m117.41016,135.65234c-0.97266,0.48438 -1.46094,0.86329 -1.54688,1.19922c-0.0625,0.25391 0.02344,1.64453 0.21485,3.10157c0.16796,1.45312 0.46484,3.85546 0.65625,5.37109c0.16796,1.5 0.50781,4.00781 0.73828,5.54687c0.59375,4.08594 0.57031,4.29688 -0.37891,4.78125c-0.57422,0.27344 -0.69922,0.42188 -0.44531,0.46485c0.1914,0.04297 1.03515,-0.25391 1.86328,-0.67578c0.84375,-0.42188 2.34766,-1.13672 3.36328,-1.57813c0.99609,-0.44531 3.49219,-1.58203 5.52344,-2.53125c2.03125,-0.94922 4.10547,-1.91797 4.61328,-2.1289c0.50781,-0.21094 0.84766,-0.48438 0.78125,-0.60938c-0.08203,-0.12891 -0.35938,-0.08594 -0.73828,0.10547c-0.33985,0.16797 -0.78516,0.31641 -0.97266,0.31641c-0.21484,0 -1.05859,-0.73829 -1.90625,-1.64454c-0.84765,-0.88671 -1.60937,-1.55859 -1.6914,-1.47656c-0.08594,0.10547 0,0.33594 0.1875,0.54688c0.21484,0.21093 0.36328,0.48828 0.36328,0.61328c0,0.10547 -0.78516,0.54687 -1.73828,0.96875l-1.73438,0.78125l-0.89062,-0.99219c-0.50782,-0.57031 -0.90625,-1.05469 -0.92969,-1.11719c0,-0.0625 0.78515,-0.46484 1.73437,-0.90625c1.54688,-0.69531 1.75782,-0.73828 2.07422,-0.46484c0.19141,0.17187 0.42578,0.31641 0.48828,0.31641c0.44532,0 -0.1289,-0.75782 -2.58203,-3.32813c-3.61719,-3.81641 -3.59765,-3.79297 -3.87109,-5.46094c-0.10938,-0.80078 -0.32031,-1.55859 -0.42578,-1.70703c-0.35938,-0.42187 -1.2461,-0.27344 -2.75,0.50781zm2.66797,1.05469c0.0625,0.62891 0.08203,1.24219 0.01953,1.34766c-0.14844,0.23047 -3.32422,1.70703 -3.42969,1.60156c-0.1875,-0.19141 -0.40234,-2.44531 -0.25391,-2.69922c0.21094,-0.33594 2.5,-1.39062 3.07032,-1.41015c0.3789,-0.02344 0.46484,0.125 0.59375,1.16015zm-1.33594,2.92969c-0.84766,0.39844 -1.67188,0.73437 -1.79688,0.73437c-0.33984,-0.01953 2.66407,-1.42968 3.04688,-1.45312c0.16797,0 -0.38281,0.31641 -1.25,0.71875zm1.71484,1.13672l0.0625,0.92578l-1.64844,0.73828c-1.82031,0.82422 -2.05468,0.75781 -2.05468,-0.46094l0,-0.61328l0.48828,0.44141c0.48437,0.44531 0.99219,0.61328 0.99219,0.3164c0,-0.08203 -0.21094,-0.35546 -0.46485,-0.63281c-0.2539,-0.27344 -0.42187,-0.52344 -0.35937,-0.5664c0.33984,-0.31641 2.64453,-1.32813 2.77343,-1.22266c0.08594,0.08203 0.16797,0.56641 0.21094,1.07422zm1.86328,0.01953l1.07813,1.24609l-0.84766,0.44141c-0.46484,0.23047 -0.92969,0.42187 -1.05859,0.42187c-0.10547,0 -0.25391,-0.58984 -0.33594,-1.32812c-0.0625,-0.71484 -0.19141,-1.47656 -0.23437,-1.6875c-0.21094,-0.67188 0.29687,-0.35547 1.39843,0.90625zm-1.48047,1.96094c0,0.54687 -0.93359,1.16015 -1.16406,0.78125c-0.08594,-0.12891 -0.21484,-0.21094 -0.33984,-0.21094c-0.38281,0 -0.16797,0.57031 0.44531,1.16016c0.35938,0.33593 0.63281,0.67187 0.63281,0.77734c0,0.16797 -2.77343,1.49609 -2.8789,1.37109c-0.03907,-0.04297 -0.16797,-0.65234 -0.25391,-1.39062c-0.21094,-1.47656 -0.31641,-1.32813 1.65234,-2.27735c1.67188,-0.80078 1.90625,-0.82031 1.90625,-0.21093zm3.97657,0.78125l0.91015,1.05468l-1.73437,0.83985c-2.03125,0.97265 -2.17969,0.92969 -2.41406,-0.77735l-0.14844,-1.09765l1.03906,-0.52735c0.55078,-0.29296 1.12109,-0.52734 1.22656,-0.54687c0.125,0 0.61328,0.48437 1.1211,1.05469zm-3.76563,0.86328c0,0.50781 -0.2539,0.50781 -0.57422,0c-0.21093,-0.31641 -0.21093,-0.44141 0,-0.50391c0.38282,-0.1289 0.57422,0.03906 0.57422,0.50391zm0.27344,2.67578c0.10547,0.61328 0.14844,1.24609 0.08594,1.37109c-0.12891,0.33594 -3.30078,1.72657 -3.47266,1.53907c-0.08203,-0.08594 -0.1875,-0.73829 -0.23047,-1.45313l-0.08594,-1.30859l1.46094,-0.67578c0.78125,-0.35547 1.58594,-0.65235 1.75781,-0.62891c0.21094,0.03906 0.37891,0.41797 0.48438,1.15625zm2.87891,2.04687c1.05859,1.15625 1.90625,2.14844 1.90625,2.21094c0,0.0625 -0.76563,0.46485 -1.67188,0.88672c-1.96875,0.90625 -1.69531,1.19922 -2.22266,-2.42578c-0.35937,-2.63281 -0.38281,-2.94922 -0.1289,-2.84375c0.10547,0.01953 1.05859,1.01172 2.11719,2.17187zm5.98828,0.33594c-0.08594,0.08594 -0.86719,0.48438 -1.75782,0.88672l-1.6289,0.73438l-0.91016,-0.92579l-0.91015,-0.90625l1.80078,-0.84375l1.77734,-0.84375l0.89063,0.88672c0.50781,0.46485 0.84375,0.92578 0.73828,1.01172zm-8.42188,0.65235c0.0625,0.50781 0.16797,1.41406 0.25391,2.02343l0.14844,1.09766l-1.77735,0.82031l-1.77734,0.82422l-0.17188,-0.78125c-0.08203,-0.42187 -0.1875,-1.34766 -0.21093,-2.08594l-0.04297,-1.32812l1.58984,-0.71875c0.86719,-0.39844 1.64844,-0.71485 1.71094,-0.71485c0.08594,-0.01953 0.1914,0.37891 0.27734,0.86329zm0,0"/>
   <path id="svg_29" fill-rule="nonzero" fill="#2fd1e0" d="m52.125,142.48047c-1.20703,0.52734 -1.44141,1.01172 -0.99609,2.08594c0.23437,0.57031 0.27343,0.94922 0.125,1.20312c-0.29297,0.52735 -0.0625,1.11719 0.48828,1.26172c0.27344,0.06641 0.55078,0.23438 0.59375,0.35938c0.0625,0.14843 0.65625,1.58203 1.3125,3.20312c1.4375,3.54297 1.6289,3.77344 2.64453,3.58594c0.40234,-0.08594 0.65625,-0.06641 0.57031,0.03906c-0.27344,0.25391 -3.40625,1.51953 -3.55469,1.41406c-0.08593,-0.04297 -0.78125,-1.09765 -1.58593,-2.33984c-1.90625,-3.05469 -1.90625,-3.03516 -2.5625,-2.73828c-0.44532,0.1875 -0.57032,0.16797 -0.86719,-0.23438l-0.35938,-0.46093l-3.38671,1.39062c-1.86329,0.77734 -3.51172,1.49609 -3.66016,1.62109c-0.17188,0.125 -0.25391,0.52735 -0.21094,0.96875c0.03906,0.55079 0.21094,0.82422 0.63281,1.05469c0.53125,0.29688 0.67969,0.27344 2.32813,-0.3789c5.35547,-2.17188 5.29297,-2.14844 5.18359,-2.69922c-0.08203,-0.42188 0.32032,-0.90625 0.76172,-0.90625c0.04297,0 0.82813,1.17968 1.75781,2.63672c0.91016,1.45312 1.77735,2.63281 1.90625,2.63281c0.61329,0 4.21094,-1.66406 4.27344,-1.98047c0.04297,-0.19141 0.29688,-0.58984 0.59375,-0.86328c0.27344,-0.27344 0.50781,-0.58985 0.50781,-0.67578c0,-0.08203 -0.99609,-2.48828 -2.20312,-5.33203c-2.11328,-4.9961 -2.19922,-5.16407 -2.79297,-5.20704c-0.33594,-0.01953 -1.01562,0.12891 -1.5,0.35938zm2.17969,1.05469c0.88672,1.85547 0.88672,1.85547 -0.38281,2.40234c-1.77735,0.78125 -2.05079,0.84375 -2.22266,0.42188c-0.08203,-0.21094 0,-0.42188 0.21094,-0.54688c0.21484,-0.10547 0.35937,-0.42187 0.35937,-0.69922c0,-0.29297 0.17188,-0.60937 0.42578,-0.73437c0.57032,-0.29688 0.55078,-1.05469 -0.02343,-1.20313c-0.44141,-0.125 -0.44141,-0.125 0.04296,-0.39844c0.78516,-0.44531 1.10157,-0.27734 1.58985,0.75782zm-2.11719,0.1875c0.48438,-0.08203 0.50781,0.0664 0.0625,0.42187c-0.55078,0.44531 -0.82422,0.27344 -0.82422,-0.48437c0,-0.31641 0.0625,-0.33594 0.29688,-0.14844c0.16797,0.12891 0.3789,0.23437 0.46484,0.21094zm3.21484,2.91015c0.53125,0.46485 0.86719,1.45313 0.44532,1.26563c-2.51953,-1.03516 -2.58203,-1.05469 -2.17969,-1.35156c0.52734,-0.37891 1.22656,-0.33594 1.73437,0.08593zm-0.55078,1.34766c1.14453,0.48437 1.67188,0.82422 1.84375,1.20312c0.14844,0.27344 0.19141,0.57032 0.14844,0.63282c-0.06641,0.0625 -0.59375,-0.08594 -1.1875,-0.33985c-0.61328,-0.25 -1.09766,-0.35547 -1.18359,-0.23047c-0.10547,0.16797 1.12109,0.82032 2.51953,1.3086c0.50781,0.1875 0.88672,1.22265 0.52734,1.45312c-0.21094,0.125 -0.1914,0.25391 0.12891,0.48438c0.4414,0.33594 0.4414,0.35937 -0.23438,0.71484c-0.65625,0.33985 -2.32812,-0.39844 -2.60156,-1.15625c-0.12891,-0.3164 -0.19141,-0.61328 -0.14844,-0.65625c0.04297,-0.03906 0.52735,0.10547 1.0586,0.33985c0.63281,0.27343 1.03515,0.33593 1.12109,0.21093c0.16797,-0.27343 0.21094,-0.23437 -1.25,-0.82422c-1.33203,-0.52734 -1.96875,-1.19921 -1.73437,-1.875c0.0625,-0.2539 0,-0.48437 -0.17188,-0.58984c-0.27344,-0.14844 -0.78125,-0.94922 -0.78125,-1.20312c0,-0.23047 0.29688,-0.14454 1.94531,0.52734zm-6.64453,3.35156c0.12891,0.33985 0.19141,0.63281 0.14844,0.63281c-0.10547,0 -0.73828,-1.17968 -0.73828,-1.37109c0,-0.31641 0.40234,0.17188 0.58984,0.73828zm-0.80469,-0.01953c0.14844,0.35938 0.21485,0.73828 0.17188,0.88281c-0.04297,0.12891 -1.33594,0.76172 -2.87891,1.3711c-2.30859,0.94922 -2.8789,1.11718 -3.23828,0.92968c-0.29687,-0.17187 -0.40234,-0.40234 -0.35937,-0.80078c0.0625,-0.50781 0.33984,-0.67578 2.92187,-1.75c1.56641,-0.67578 2.91797,-1.22265 2.98438,-1.22265c0.08203,-0.02344 0.2539,0.25 0.39843,0.58984zm8.67969,2.33984c0,0.10547 -0.08594,0.21094 -0.1914,0.21094c-0.12891,0 -0.27735,-0.10547 -0.33985,-0.21094c-0.0625,-0.1289 0.02344,-0.21093 0.19141,-0.21093c0.1914,0 0.33984,0.08203 0.33984,0.21093zm0,0"/>
   <path id="svg_30" fill-rule="nonzero" fill="#2fd1e0" d="m46.55859,151.75391c0,0.10547 0.10547,0.21093 0.21094,0.21093c0.125,0 0.21094,-0.10546 0.21094,-0.21093c0,-0.125 -0.08594,-0.21094 -0.21094,-0.21094c-0.10547,0 -0.21094,0.08594 -0.21094,0.21094zm0,0"/>
   <path id="svg_31" fill-rule="nonzero" fill="#2fd1e0" d="m45.28906,152.11328c-0.17187,0.0625 -0.78515,0.33594 -1.375,0.58985c-0.57422,0.2539 -1.27343,0.52734 -1.52734,0.60937c-0.48438,0.14844 -0.67578,0.55078 -0.29297,0.55078c0.40234,0 4.03906,-1.5625 4.03906,-1.73047c0,-0.1875 -0.35937,-0.1875 -0.84375,-0.01953zm0,0"/>
   <path id="svg_32" fill-rule="nonzero" fill="#2fd1e0" d="m5.77734,160.01563c-2.17968,2.0664 -4.42187,5.73437 -3.87109,6.38671c0.25391,0.29688 -0.04297,1.16016 -0.40234,1.16016c-0.08594,0 -0.40235,0.57031 -0.72266,1.26563l-0.52734,1.26171l0.91015,0.40235c1.75782,0.78125 1.73438,0.78125 2.32813,-0.37891c0.29687,-0.58984 0.52734,-1.28515 0.52734,-1.53906c0,-0.67578 0.32031,-1.09766 0.63672,-0.90625c0.16797,0.10547 0.37891,0.01953 0.52734,-0.16797c0.29688,-0.42187 0.46875,-0.35937 7.44922,2.71875c2.47657,1.09375 4.74219,1.98047 5.01563,1.98047c1.01562,0 1.58984,-1.6875 0.82812,-2.35938c-0.42578,-0.35937 -7.68359,-3.54296 -8.0664,-3.54296c-0.63282,0 -0.14453,0.48437 0.93359,0.96875c0.95313,0.42187 1.16406,0.58984 1.03516,0.88671c-0.08203,0.19141 -0.21094,0.52735 -0.25391,0.73829c-0.125,0.42187 -0.31641,0.39843 -2.28516,-0.50782c-0.76171,-0.33593 -1.375,-0.69531 -1.375,-0.82031c0,-0.48437 0.50782,-1.24219 0.92969,-1.37109c0.36328,-0.10547 0.17188,-0.27344 -1.14062,-0.90625c-0.86719,-0.44141 -1.56641,-0.90625 -1.54688,-1.05469c0.04297,-0.125 -0.23047,-0.39844 -0.58984,-0.56641c-0.76172,-0.40234 -0.74219,-0.57031 0.46484,-2.80468c1.25,-2.35938 1.03516,-2.57032 -0.80469,-0.84375zm-0.27343,1.875c-0.76172,1.64453 -0.78516,1.83593 -0.10938,2.08984c0.29688,0.10547 0.53125,0.29297 0.53125,0.42187c0,0.44141 -0.61328,1.6836 -0.82422,1.6836c-0.17187,0 -1.69531,-0.65235 -2.30859,-0.96875c-0.04297,-0.01953 0.16797,-0.52735 0.46484,-1.09766c0.55078,-1.07422 2.625,-3.73047 2.79297,-3.55859c0.06641,0.03906 -0.1875,0.69531 -0.54687,1.42969zm1.54297,3.48046c0.1289,0.14844 -0.48829,1.5586 -0.67579,1.5586c-0.0664,0 -0.2539,-0.08594 -0.42578,-0.19141c-0.2539,-0.16797 -0.2539,-0.29297 -0.01953,-0.83984c0.23438,-0.58985 0.78125,-0.84375 1.1211,-0.52735zm-3.32422,0.86329c0.67968,0.29687 1.125,0.58984 0.99609,0.63281c-0.23047,0.08203 -2.39062,-0.90625 -2.39062,-1.09766c0,-0.16797 0.08593,-0.125 1.39453,0.46485zm4.48828,-0.40235c0.40234,0.25391 -0.08594,1.51953 -0.59375,1.51953c-0.57031,0 -0.63281,-0.23047 -0.31641,-1.01172c0.31641,-0.69531 0.44531,-0.78125 0.91016,-0.50781zm-4.80469,1.3086c0.31641,0.1914 0.35938,0.3164 0.19141,0.63281c-0.27344,0.48437 -0.42188,0.52734 -0.92969,0.14844c-0.23438,-0.17188 -0.32031,-0.40235 -0.21484,-0.63282c0.14843,-0.42187 0.36328,-0.44531 0.95312,-0.14843zm14.77344,3.24609c0.3164,0.33594 0.14844,1.09766 -0.29688,1.26562c-0.14843,0.03907 -1.4414,-0.3789 -2.85547,-0.99218c-2.45703,-1.03125 -2.5625,-1.11719 -2.4375,-1.6211c0.27735,-1.07812 0.42579,-1.07812 2.92188,0.03907c1.3125,0.57031 2.49609,1.16015 2.66797,1.30859zm-15.36328,-1.73047c0.65234,0.23438 0.69531,0.38281 0.2539,1.24609c-0.32031,0.60938 -0.33984,0.60938 -1.08203,0.29297c-0.42187,-0.16797 -0.80469,-0.3164 -0.84375,-0.3164c-0.17187,0 -0.08594,-0.62891 0.16797,-1.15625c0.16797,-0.37891 0.35938,-0.50782 0.57031,-0.40235c0.19141,0.0625 0.59375,0.23438 0.9336,0.33594zm0,0"/>
   <path id="svg_33" fill-rule="nonzero" fill="#2fd1e0" d="m13.58594,169.28906c0.14844,0.40235 0.80469,0.46485 0.80469,0.08594c0,-0.21094 -0.19141,-0.33594 -0.44532,-0.33594c-0.2539,0 -0.40234,0.10547 -0.35937,0.25zm0,0"/>
   <path id="svg_34" fill-rule="nonzero" fill="#2fd1e0" d="m14.8125,169.75391c0,0.3164 1.65234,1.17968 2.24609,1.17968c0.54688,0 0.29297,-0.42187 -0.48828,-0.82031c-1.28906,-0.63281 -1.75781,-0.73828 -1.75781,-0.35937zm0,0"/>
  </g>
 </g>
</svg>